{
.appVersion = "3151";
.formatVersion = 3;
DisplayStrings = (
"ABCDEFGHIJKLMNOPQRSTUVWXYZ
abcdefghijklmnopqrstuvwxyz"
);
axes = (
{
name = weight;
tag = wght;
},
{
name = shell;
tag = SHLL;
}
);
classes = (
{
automatic = 1;

glyphs = (
{
glyphname = A;
kernLeft = A;
kernRight = A;
layers = (
{
anchors = (
{
name = bottom;
pos = (330,0);
},
{
name = ogonek;
pos = (634,0);
},
{
name = top;
pos = (330,660);
},
{
name = top_ring;
pos = (331,535);
}
);
layerId = "4A17B37A-CBFD-40E5-9E02-2080A0E1F76C";
shapes = (
{
closed = 1;
nodes = (
(378,660,l),
(283,660,l),
(26,0,l),
(110,0,l),
(180,183,l),
(479,183,l),
(549,0,l),
(634,0,l)
);
},
{
closed = 1;
nodes = (
(329,583,l),
(450,258,l),
(209,258,l)
);
}
);
width = 660;
},
{
anchors = (
{
name = bottom;
pos = (344,0);
},
{
name = ogonek;
pos = (699,0);
},
{
name = top;
pos = (344,660);
},
{
name = top_ring;
pos = (345,543);
}
);
layerId = "99EB5860-B45A-4B60-BB0B-F826C8F71D42";
shapes = (
{
closed = 1;
nodes = (
(484,660,l),
(204,660,l),
(-10,0,l),
(222,0,l),
(253,126,l),
(431,126,l),
(461,0,l),
(699,0,l)
);
},
{
closed = 1;
nodes = (
(343,500,l),
(397,271,l),
(288,271,l)
);
}
);
width = 689;
},
{
anchors = (
{
name = bottom;
pos = (293,0);
},
{
name = ogonek;
pos = (574,0);
},
{
name = top;
pos = (293,660);
},
{
name = top_ring;
pos = (293,571);
}
);
layerId = "1C7CD022-87C7-4E11-B656-E47B18819458";
shapes = (
{
closed = 1;
nodes = (
(302,660,l),
(284,660,l),
(12,0,l),
(29,0,l),
(126,234,l),
(460,234,l),
(557,0,l),
(574,0,l)
);
},
{
closed = 1;
nodes = (
(293,642,l),
(454,248,l),
(132,248,l)
);
}
);
width = 586;
},
{
anchors = (
{
name = bottom;
pos = (293,0);
},
{
name = ogonek;
pos = (574,0);
},
{
name = top;
pos = (293,660);
},
{
name = top_ring;
pos = (293,571);
}
);
layerId = "A593077A-0A46-47E3-817B-5940F86DDEB8";
shapes = (
{
closed = 1;
nodes = (
(302,660,l),
(284,660,l),
(12,0,l),
(29,0,l),
(126,234,l),
(460,234,l),
(557,0,l),
(574,0,l)
);
},
{
closed = 1;
nodes = (
(293,642,l),
(454,248,l),
(132,248,l)
);
}
);
width = 586;
},
{
anchors = (
{
name = bottom;
pos = (330,0);
},
{
name = ogonek;
pos = (634,0);
},
{
name = top;
pos = (330,660);
},
{
name = top_ring;
pos = (331,535);
}
);
layerId = "2D95750D-BD9C-4F78-991A-09E4A80A9CCF";
shapes = (
{
closed = 1;
nodes = (
(378,660,l),
(283,660,l),
(26,0,l),
(110,0,l),
(180,183,l),
(479,183,l),
(549,0,l),
(634,0,l)
);
},
{
closed = 1;
nodes = (
(329,583,l),
(450,258,l),
(209,258,l)
);
}
);
width = 660;
},
{
anchors = (
{
name = bottom;
pos = (344,0);
},
{
name = ogonek;
pos = (699,0);
},
{
name = top;
pos = (344,660);
},
{
name = top_ring;
pos = (345,543);
}
);
layerId = "C6BF4D98-2DC0-4313-8217-C5861B72DC4C";
shapes = (
{
closed = 1;
nodes = (
(484,660,l),
(204,660,l),
(-10,0,l),
(222,0,l),
(253,126,l),
(431,126,l),
(461,0,l),
(699,0,l)
);
},
{
closed = 1;
nodes = (
(343,500,l),
(397,271,l),
(288,271,l)
);
}
);
width = 689;
}
);
unicode = 65;
},
{
glyphname = AE;
kernLeft = AE;
kernRight = E;
layers = (
{
anchors = (
{
name = bottom;
pos = (491,0);
},
{
name = ogonek;
pos = (902,0);
},
{
name = top;
pos = (491,660);
}
);
layerId = "4A17B37A-CBFD-40E5-9E02-2080A0E1F76C";
shapes = (
{
closed = 1;
nodes = (
(531,297,l),
(802,297,l),
(802,372,l),
(531,372,l),
(531,585,l),
(887,585,l),
(887,660,l),
(392,660,l),
(6,0,l),
(92,0,l),
(215,213,l),
(451,213,l),
(451,0,l),
(902,0,l),
(902,75,l),
(531,75,l)
);
},
{
closed = 1;
nodes = (
(431,585,l),
(451,585,l),
(451,288,l),
(259,288,l)
);
}
);
width = 954;
},
{
anchors = (
{
name = bottom;
pos = (508,0);
},
{
name = ogonek;
pos = (888,0);
},
{
name = top;
pos = (508,660);
}
);
layerId = "99EB5860-B45A-4B60-BB0B-F826C8F71D42";
metricLeft = "=A";
shapes = (
{
closed = 1;
nodes = (
(615,254,l),
(815,254,l),
(815,403,l),
(615,403,l),
(615,499,l),
(876,499,l),
(876,660,l),
(204,660,l),
(-10,0,l),
(220,0,l),
(266,185,l),
(401,185,l),
(401,0,l),
(888,0,l),
(888,161,l),
(615,161,l)
);
},
{
closed = 1;
nodes = (
(345,507,l),
(401,507,l),
(401,321,l),
(299,321,l)
);
}
);
width = 904;
},
{
anchors = (
{
name = bottom;
pos = (446,0);
},
{
name = ogonek;
pos = (855,0);
},
{
name = top;
pos = (446,660);
}
);
layerId = "1C7CD022-87C7-4E11-B656-E47B18819458";
shapes = (
{
closed = 1;
nodes = (
(454,328,l),
(762,328,l),
(762,342,l),
(454,342,l),
(454,646,l),
(839,646,l),
(839,660,l),
(412,660,l),
(-8,0,l),
(15,0,l),
(174,254,l),
(438,254,l),
(438,0,l),
(855,0,l),
(855,14,l),
(454,14,l)
);
},
{
closed = 1;
nodes = (
(420,646,l),
(438,646,l),
(438,268,l),
(183,268,l)
);
}
);
width = 885;
},
{
anchors = (
{
name = bottom;
pos = (446,0);
},
{
name = ogonek;
pos = (855,0);
},
{
name = top;
pos = (446,660);
}
);
layerId = "A593077A-0A46-47E3-817B-5940F86DDEB8";
shapes = (
{
closed = 1;
nodes = (
(454,328,l),
(762,328,l),
(762,342,l),
(454,342,l),
(454,646,l),
(839,646,l),
(839,660,l),
(412,660,l),
(-8,0,l),
(15,0,l),
(174,254,l),
(438,254,l),
(438,0,l),
(855,0,l),
(855,14,l),
(454,14,l)
);
},
{
closed = 1;
nodes = (
(420,646,l),
(438,646,l),
(438,268,l),
(183,268,l)
);
}
);
width = 885;
},
{
anchors = (
{
name = bottom;
pos = (491,0);
},
{
name = ogonek;
pos = (902,0);
},
{
name = top;
pos = (491,660);
}
);
layerId = "2D95750D-BD9C-4F78-991A-09E4A80A9CCF";
shapes = (
{
closed = 1;
nodes = (
(531,297,l),
(802,297,l),
(802,372,l),
(531,372,l),
(531,585,l),
(887,585,l),
(887,660,l),
(392,660,l),
(6,0,l),
(92,0,l),
(215,213,l),
(451,213,l),
(451,0,l),
(902,0,l),
(902,75,l),
(531,75,l)
);
},
{
closed = 1;
nodes = (
(431,585,l),
(451,585,l),
(451,288,l),
(259,288,l)
);
}
);
width = 954;
},
{
anchors = (
{
name = bottom;
pos = (508,0);
},
{
name = ogonek;
pos = (888,0);
},
{
name = top;
pos = (508,660);
}
);
layerId = "C6BF4D98-2DC0-4313-8217-C5861B72DC4C";
metricLeft = "=A";
shapes = (
{
closed = 1;
nodes = (
(615,254,l),
(815,254,l),
(815,403,l),
(615,403,l),
(615,499,l),
(876,499,l),
(876,660,l),
(204,660,l),
(-10,0,l),
(220,0,l),
(266,185,l),
(401,185,l),
(401,0,l),
(888,0,l),
(888,161,l),
(615,161,l)
);
},
{
closed = 1;
nodes = (
(345,507,l),
(401,507,l),
(401,321,l),
(299,321,l)
);
}
);
width = 904;
}
);
metricRight = E;
unicode = 198;
},
{
glyphname = B;
kernLeft = I;
layers = (
{
anchors = (
{
name = bottom;
pos = (307,0);
},
{
name = ogonek;
pos = (342,0);
},
{
name = top;
pos = (307,660);
}
);
layerId = "4A17B37A-CBFD-40E5-9E02-2080A0E1F76C";
shapes = (
{
closed = 1;
nodes = (
(342,0,ls),
(498,0,o),
(585,73,o),
(585,185,cs),
(585,257,o),
(535,320,o),
(457,335,c),
(457,336,l),
(528,350,o),
(568,411,o),
(568,478,cs),
(568,590,o),
(499,660,o),
(343,660,cs),
(108,660,l),
(108,0,l)
);
},
{
closed = 1;
nodes = (
(188,295,l),
(361,295,ls),
(455,295,o),
(501,255,o),
(501,185,cs),
(501,115,o),
(455,75,o),
(361,75,cs),
(188,75,l)
);
},
{
closed = 1;
nodes = (
(188,585,l),
(344,585,ls),
(438,585,o),
(484,550,o),
(484,478,cs),
(484,405,o),
(438,370,o),
(344,370,cs),
(188,370,l)
);
}
);
width = 653;
},
{
anchors = (
{
name = bottom;
pos = (327,0);
},
{
name = ogonek;
pos = (422,0);
},
{
name = top;
pos = (327,660);
}
);
layerId = "99EB5860-B45A-4B60-BB0B-F826C8F71D42";
shapes = (
{
closed = 1;
nodes = (
(454,0,ls),
(615,0,o),
(692,58,o),
(692,174,cs),
(692,259,o),
(641,319,o),
(526,331,c),
(526,332,l),
(628,346,o),
(675,405,o),
(675,484,cs),
(675,601,o),
(595,659,o),
(428,660,cs),
(50,660,l),
(50,0,l)
);
},
{
closed = 1;
nodes = (
(273,248,l),
(392,248,ls),
(433,248,o),
(454,231,o),
(454,201,cs),
(454,169,o),
(433,152,o),
(392,152,cs),
(273,152,l)
);
},
{
closed = 1;
nodes = (
(273,500,l),
(377,500,ls),
(417,500,o),
(437,483,o),
(437,452,cs),
(437,421,o),
(417,404,o),
(377,404,cs),
(273,404,l)
);
}
);
width = 704;
},
{
anchors = (
{
name = bottom;
pos = (297,0);
},
{
name = ogonek;
pos = (331,0);
},
{
name = top;
pos = (297,660);
}
);
hints = (
{
horizontal = 1;
origin = (0,15);
target = (1,8);
type = Stem;
},
{
horizontal = 1;
origin = (0,14);
target = (2,0);
type = Stem;
},
{
origin = (0,15);
target = (1,8);
type = Stem;
},
{
horizontal = 1;
origin = (1,1);
target = (2,7);
type = Stem;
}
);
layerId = "1C7CD022-87C7-4E11-B656-E47B18819458";
shapes = (
{
closed = 1;
nodes = (
(331,0,ls),
(476,0,o),
(552,58,o),
(552,169,cs),
(552,263,o),
(496,320,o),
(401,333,c),
(401,334,l),
(490,353,o),
(533,407,o),
(533,493,cs),
(533,603,o),
(464,660,o),
(331,660,cs),
(99,660,l),
(99,0,l)
);
},
{
closed = 1;
nodes = (
(115,326,l),
(331,326,ls),
(466,326,o),
(536,274,o),
(536,170,cs),
(536,67,o),
(466,14,o),
(331,14,cs),
(115,14,l)
);
},
{
closed = 1;
nodes = (
(115,646,l),
(331,646,ls),
(453,646,o),
(517,593,o),
(517,492,cs),
(517,391,o),
(453,340,o),
(331,340,cs),
(115,340,l)
);
}
);
width = 609;
},
{
anchors = (
{
name = bottom;
pos = (297,0);
},
{
name = ogonek;
pos = (331,0);
},
{
name = top;
pos = (297,660);
}
);
hints = (
{
horizontal = 1;
origin = (0,15);
target = (1,8);
type = Stem;
},
{
horizontal = 1;
origin = (0,14);
target = (2,0);
type = Stem;
},
{
origin = (0,15);
target = (1,8);
type = Stem;
},
{
horizontal = 1;
origin = (1,1);
target = (2,7);
type = Stem;
}
);
layerId = "A593077A-0A46-47E3-817B-5940F86DDEB8";
shapes = (
{
closed = 1;
nodes = (
(331,0,ls),
(476,0,o),
(552,58,o),
(552,169,cs),
(552,263,o),
(496,320,o),
(401,333,c),
(401,334,l),
(490,353,o),
(533,407,o),
(533,493,cs),
(533,603,o),
(464,660,o),
(331,660,cs),
(99,660,l),
(99,0,l)
);
},
{
closed = 1;
nodes = (
(115,326,l),
(331,326,ls),
(466,326,o),
(536,274,o),
(536,170,cs),
(536,67,o),
(466,14,o),
(331,14,cs),
(115,14,l)
);
},
{
closed = 1;
nodes = (
(115,646,l),
(331,646,ls),
(453,646,o),
(517,593,o),
(517,492,cs),
(517,391,o),
(453,340,o),
(331,340,cs),
(115,340,l)
);
}
);
width = 609;
},
{
anchors = (
{
name = bottom;
pos = (307,0);
},
{
name = ogonek;
pos = (342,0);
},
{
name = top;
pos = (307,660);
}
);
layerId = "2D95750D-BD9C-4F78-991A-09E4A80A9CCF";
shapes = (
{
closed = 1;
nodes = (
(342,0,ls),
(498,0,o),
(585,73,o),
(585,185,cs),
(585,257,o),
(535,320,o),
(457,335,c),
(457,336,l),
(528,350,o),
(568,411,o),
(568,478,cs),
(568,590,o),
(499,660,o),
(343,660,cs),
(108,660,l),
(108,0,l)
);
},
{
closed = 1;
nodes = (
(188,295,l),
(361,295,ls),
(455,295,o),
(501,255,o),
(501,185,cs),
(501,115,o),
(455,75,o),
(361,75,cs),
(188,75,l)
);
},
{
closed = 1;
nodes = (
(188,585,l),
(344,585,ls),
(438,585,o),
(484,550,o),
(484,478,cs),
(484,405,o),
(438,370,o),
(344,370,cs),
(188,370,l)
);
}
);
width = 653;
},
{
anchors = (
{
name = bottom;
pos = (327,0);
},
{
name = ogonek;
pos = (422,0);
},
{
name = top;
pos = (327,660);
}
);
layerId = "C6BF4D98-2DC0-4313-8217-C5861B72DC4C";
shapes = (
{
closed = 1;
nodes = (
(454,0,ls),
(615,0,o),
(692,58,o),
(692,174,cs),
(692,259,o),
(641,319,o),
(526,331,c),
(526,332,l),
(628,346,o),
(675,405,o),
(675,484,cs),
(675,601,o),
(595,659,o),
(428,660,cs),
(50,660,l),
(50,0,l)
);
},
{
closed = 1;
nodes = (
(273,248,l),
(392,248,ls),
(433,248,o),
(454,231,o),
(454,201,cs),
(454,169,o),
(433,152,o),
(392,152,cs),
(273,152,l)
);
},
{
closed = 1;
nodes = (
(273,500,l),
(377,500,ls),
(417,500,o),
(437,483,o),
(437,452,cs),
(437,421,o),
(417,404,o),
(377,404,cs),
(273,404,l)
);
}
);
width = 704;
}
);
metricLeft = H;
unicode = 66;
},
{
glyphname = C;
kernLeft = O;
kernRight = C;
layers = (
{
anchors = (
{
name = bottom;
pos = (372,0);
},
{
name = ogonek;
pos = (454,0);
},
{
name = top;
pos = (372,660);
}
);
layerId = "4A17B37A-CBFD-40E5-9E02-2080A0E1F76C";
shapes = (
{
closed = 1;
nodes = (
(560,199,l),
(531,110,o),
(462,65,o),
(374,65,cs),
(237,65,o),
(152,164,o),
(152,330,cs),
(152,497,o),
(243,595,o),
(378,595,cs),
(466,595,o),
(520,555,o),
(549,479,c),
(628,516,l),
(586,616,o),
(500,670,o),
(372,670,cs),
(188,670,o),
(68,539,o),
(68,330,cs),
(68,121,o),
(186,-10,o),
(374,-10,cs),
(498,-10,o),
(598,56,o),
(640,169,c)
);
}
);
width = 686;
},
{
anchors = (
{
name = bottom;
pos = (348,0);
},
{
name = ogonek;
pos = (465,0);
},
{
name = top;
pos = (356,660);
}
);
layerId = "99EB5860-B45A-4B60-BB0B-F826C8F71D42";
shapes = (
{
closed = 1;
nodes = (
(464,255,l),
(456,192,o),
(424,165,o),
(376,165,cs),
(296,165,o),
(267,217,o),
(267,330,cs),
(267,444,o),
(302,495,o),
(371,495,cs),
(420,495,o),
(454,478,o),
(465,392,c),
(665,470,l),
(637,611,o),
(510,670,o),
(365,670,cs),
(156,670,o),
(29,546,o),
(29,330,cs),
(29,114,o),
(156,-10,o),
(365,-10,cs),
(516,-10,o),
(633,47,o),
(670,202,c)
);
}
);
width = 677;
},
{
anchors = (
{
name = bottom;
pos = (339,0);
},
{
name = ogonek;
pos = (434,0);
},
{
name = top;
pos = (339,660);
}
);
layerId = "1C7CD022-87C7-4E11-B656-E47B18819458";
shapes = (
{
closed = 1;
nodes = (
(595,171,l),
(564,65,o),
(475,4,o),
(349,4,cs),
(184,4,o),
(72,130,o),
(72,330,cs),
(72,530,o),
(183,656,o),
(349,656,cs),
(478,656,o),
(557,601,o),
(590,489,c),
(605,496,l),
(572,612,o),
(488,670,o),
(349,670,cs),
(173,670,o),
(56,539,o),
(56,330,cs),
(56,121,o),
(174,-10,o),
(349,-10,cs),
(482,-10,o),
(577,54,o),
(610,165,c)
);
}
);
width = 649;
},
{
anchors = (
{
name = bottom;
pos = (339,0);
},
{
name = ogonek;
pos = (434,0);
},
{
name = top;
pos = (339,660);
}
);
layerId = "A593077A-0A46-47E3-817B-5940F86DDEB8";
shapes = (
{
closed = 1;
nodes = (
(595,171,l),
(564,65,o),
(475,4,o),
(349,4,cs),
(184,4,o),
(72,130,o),
(72,330,cs),
(72,530,o),
(183,656,o),
(349,656,cs),
(478,656,o),
(557,601,o),
(590,489,c),
(605,496,l),
(572,612,o),
(488,670,o),
(349,670,cs),
(173,670,o),
(56,539,o),
(56,330,cs),
(56,121,o),
(174,-10,o),
(349,-10,cs),
(482,-10,o),
(577,54,o),
(610,165,c)
);
}
);
width = 649;
},
{
anchors = (
{
name = bottom;
pos = (372,0);
},
{
name = ogonek;
pos = (454,0);
},
{
name = top;
pos = (372,660);
}
);
layerId = "2D95750D-BD9C-4F78-991A-09E4A80A9CCF";
shapes = (
{
closed = 1;
nodes = (
(560,199,l),
(531,110,o),
(462,65,o),
(374,65,cs),
(237,65,o),
(152,164,o),
(152,330,cs),
(152,497,o),
(243,595,o),
(378,595,cs),
(466,595,o),
(520,555,o),
(549,479,c),
(628,516,l),
(586,616,o),
(500,670,o),
(372,670,cs),
(188,670,o),
(68,539,o),
(68,330,cs),
(68,121,o),
(186,-10,o),
(374,-10,cs),
(498,-10,o),
(598,56,o),
(640,169,c)
);
}
);
width = 686;
},
{
anchors = (
{
name = bottom;
pos = (348,0);
},
{
name = ogonek;
pos = (465,0);
},
{
name = top;
pos = (356,660);
}
);
layerId = "C6BF4D98-2DC0-4313-8217-C5861B72DC4C";
shapes = (
{
closed = 1;
nodes = (
(464,255,l),
(456,192,o),
(424,165,o),
(376,165,cs),
(296,165,o),
(267,217,o),
(267,330,cs),
(267,444,o),
(302,495,o),
(371,495,cs),
(420,495,o),
(454,478,o),
(465,392,c),
(665,470,l),
(637,611,o),
(510,670,o),
(365,670,cs),
(156,670,o),
(29,546,o),
(29,330,cs),
(29,114,o),
(156,-10,o),
(365,-10,cs),
(516,-10,o),
(633,47,o),
(670,202,c)
);
}
);
width = 677;
}
);
metricLeft = O;
unicode = 67;
},
{
glyphname = D;
kernLeft = I;
kernRight = O;
layers = (
{
anchors = (
{
name = bottom;
pos = (346,0);
},
{
name = center;
pos = (366,330);
},
{
name = ogonek;
pos = (331,0);
},
{
name = top;
pos = (365,660);
}
);
layerId = "4A17B37A-CBFD-40E5-9E02-2080A0E1F76C";
shapes = (
{
closed = 1;
nodes = (
(108,660,l),
(108,0,l),
(321,0,ls),
(528,0,o),
(653,118,o),
(653,330,cs),
(653,542,o),
(528,660,o),
(321,660,cs)
);
},
{
closed = 1;
nodes = (
(188,75,l),
(188,585,l),
(329,585,ls),
(480,585,o),
(569,490,o),
(569,330,cs),
(569,170,o),
(480,75,o),
(329,75,cs)
);
}
);
width = 721;
},
{
anchors = (
{
name = bottom;
pos = (331,0);
},
{
name = center;
pos = (15,14);
},
{
name = ogonek;
pos = (374,0);
},
{
name = top;
pos = (331,660);
}
);
layerId = "99EB5860-B45A-4B60-BB0B-F826C8F71D42";
shapes = (
{
closed = 1;
nodes = (
(50,660,l),
(50,0,l),
(374,0,ls),
(581,0,o),
(687,120,o),
(687,330,cs),
(687,540,o),
(581,660,o),
(374,660,cs)
);
},
{
closed = 1;
nodes = (
(283,166,l),
(283,494,l),
(341,494,ls),
(427,494,o),
(449,443,o),
(449,330,cs),
(449,217,o),
(427,166,o),
(341,166,cs)
);
}
);
width = 716;
},
{
anchors = (
{
name = bottom;
pos = (309,0);
},
{
name = center;
pos = (355,330);
},
{
name = ogonek;
pos = (302,0);
},
{
name = top;
pos = (309,660);
}
);
layerId = "1C7CD022-87C7-4E11-B656-E47B18819458";
shapes = (
{
closed = 1;
nodes = (
(99,660,l),
(99,0,l),
(302,0,ls),
(516,0,o),
(627,117,o),
(627,340,cs),
(627,550,o),
(516,660,o),
(302,660,cs)
);
},
{
closed = 1;
nodes = (
(115,14,l),
(115,646,l),
(302,646,ls),
(505,646,o),
(611,541,o),
(611,340,cs),
(611,126,o),
(505,14,o),
(302,14,cs)
);
}
);
width = 683;
},
{
anchors = (
{
name = bottom;
pos = (309,0);
},
{
name = center;
pos = (355,330);
},
{
name = ogonek;
pos = (302,0);
},
{
name = top;
pos = (309,660);
}
);
layerId = "A593077A-0A46-47E3-817B-5940F86DDEB8";
shapes = (
{
closed = 1;
nodes = (
(99,660,l),
(99,0,l),
(302,0,ls),
(516,0,o),
(627,117,o),
(627,340,cs),
(627,550,o),
(516,660,o),
(302,660,cs)
);
},
{
closed = 1;
nodes = (
(115,14,l),
(115,646,l),
(302,646,ls),
(505,646,o),
(611,541,o),
(611,340,cs),
(611,126,o),
(505,14,o),
(302,14,cs)
);
}
);
width = 683;
},
{
anchors = (
{
name = bottom;
pos = (346,0);
},
{
name = center;
pos = (366,330);
},
{
name = ogonek;
pos = (331,0);
},
{
name = top;
pos = (365,660);
}
);
layerId = "2D95750D-BD9C-4F78-991A-09E4A80A9CCF";
shapes = (
{
closed = 1;
nodes = (
(108,660,l),
(108,0,l),
(321,0,ls),
(528,0,o),
(653,118,o),
(653,330,cs),
(653,542,o),
(528,660,o),
(321,660,cs)
);
},
{
closed = 1;
nodes = (
(188,75,l),
(188,585,l),
(329,585,ls),
(480,585,o),
(569,490,o),
(569,330,cs),
(569,170,o),
(480,75,o),
(329,75,cs)
);
}
);
width = 721;
},
{
anchors = (
{
name = bottom;
pos = (331,0);
},
{
name = center;
pos = (15,14);
},
{
name = ogonek;
pos = (374,0);
},
{
name = top;
pos = (331,660);
}
);
layerId = "C6BF4D98-2DC0-4313-8217-C5861B72DC4C";
shapes = (
{
closed = 1;
nodes = (
(50,660,l),
(50,0,l),
(374,0,ls),
(581,0,o),
(687,120,o),
(687,330,cs),
(687,540,o),
(581,660,o),
(374,660,cs)
);
},
{
closed = 1;
nodes = (
(283,166,l),
(283,494,l),
(341,494,ls),
(427,494,o),
(449,443,o),
(449,330,cs),
(449,217,o),
(427,166,o),
(341,166,cs)
);
}
);
width = 716;
}
);
metricRight = O;
unicode = 68;
},
{
glyphname = Dcroat;
kernLeft = I;
kernRight = O;
layers = (
{
layerId = "4A17B37A-CBFD-40E5-9E02-2080A0E1F76C";
shapes = (
{
closed = 1;
nodes = (
(401,296,l),
(401,371,l),
(26,371,l),
(26,296,l)
);
},
{
pos = (16,0);
ref = D;
}
);
width = 737;
},
{
layerId = "99EB5860-B45A-4B60-BB0B-F826C8F71D42";
shapes = (
{
closed = 1;
nodes = (
(397,253,l),
(397,403,l),
(4,403,l),
(4,253,l)
);
},
{
pos = (28,0);
ref = D;
}
);
width = 744;
},
{
layerId = "1C7CD022-87C7-4E11-B656-E47B18819458";
shapes = (
{
closed = 1;
nodes = (
(330,327,l),
(330,341,l),
(5,341,l),
(5,327,l)
);
},
{
alignment = -1;
pos = (8,0);
ref = D;
}
);
width = 691;
},
{
layerId = "A593077A-0A46-47E3-817B-5940F86DDEB8";
shapes = (
{
closed = 1;
nodes = (
(330,327,l),
(330,341,l),
(5,341,l),
(5,327,l)
);
},
{
alignment = -1;
pos = (8,0);
ref = D;
}
);
width = 691;
},
{
layerId = "2D95750D-BD9C-4F78-991A-09E4A80A9CCF";
shapes = (
{
closed = 1;
nodes = (
(401,296,l),
(401,371,l),
(26,371,l),
(26,296,l)
);
},
{
pos = (16,0);
ref = D;
}
);
width = 737;
},
{
layerId = "C6BF4D98-2DC0-4313-8217-C5861B72DC4C";
shapes = (
{
closed = 1;
nodes = (
(397,253,l),
(397,403,l),
(4,403,l),
(4,253,l)
);
},
{
pos = (28,0);
ref = D;
}
);
width = 744;
}
);
metricRight = D;
unicode = 272;
},
{
glyphname = E;
kernLeft = I;
kernRight = E;
layers = (
{
anchors = (
{
name = bottom;
pos = (350,0);
},
{
name = ogonek;
pos = (586,0);
},
{
name = top;
pos = (340,660);
}
);
layerId = "4A17B37A-CBFD-40E5-9E02-2080A0E1F76C";
shapes = (
{
closed = 1;
nodes = (
(586,0,l),
(586,75,l),
(188,75,l),
(188,297,l),
(486,297,l),
(486,372,l),
(188,372,l),
(188,585,l),
(571,585,l),
(571,660,l),
(108,660,l),
(108,0,l)
);
}
);
width = 638;
},
{
anchors = (
{
name = bottom;
pos = (338,0);
},
{
name = ogonek;
pos = (611,0);
},
{
name = top;
pos = (324,660);
}
);
layerId = "99EB5860-B45A-4B60-BB0B-F826C8F71D42";
metricLeft = "=I";
shapes = (
{
closed = 1;
nodes = (
(610,0,l),
(610,171,l),
(283,171,l),
(283,249,l),
(537,249,l),
(537,407,l),
(283,407,l),
(283,489,l),
(598,489,l),
(598,660,l),
(50,660,l),
(50,0,l)
);
}
);
width = 626;
},
{
anchors = (
{
name = bottom;
pos = (333,0);
},
{
name = ogonek;
pos = (553,0);
},
{
name = top;
pos = (318,660);
}
);
layerId = "1C7CD022-87C7-4E11-B656-E47B18819458";
shapes = (
{
closed = 1;
nodes = (
(553,0,l),
(553,14,l),
(115,14,l),
(115,330,l),
(453,330,l),
(453,344,l),
(115,344,l),
(115,646,l),
(536,646,l),
(536,660,l),
(99,660,l),
(99,0,l)
);
}
);
width = 583;
},
{
anchors = (
{
name = bottom;
pos = (333,0);
},
{
name = ogonek;
pos = (553,0);
},
{
name = top;
pos = (318,660);
}
);
layerId = "A593077A-0A46-47E3-817B-5940F86DDEB8";
shapes = (
{
closed = 1;
nodes = (
(553,0,l),
(553,14,l),
(115,14,l),
(115,330,l),
(453,330,l),
(453,344,l),
(115,344,l),
(115,646,l),
(536,646,l),
(536,660,l),
(99,660,l),
(99,0,l)
);
}
);
width = 583;
},
{
anchors = (
{
name = bottom;
pos = (350,0);
},
{
name = ogonek;
pos = (586,0);
},
{
name = top;
pos = (340,660);
}
);
layerId = "2D95750D-BD9C-4F78-991A-09E4A80A9CCF";
shapes = (
{
closed = 1;
nodes = (
(586,0,l),
(586,75,l),
(188,75,l),
(188,297,l),
(486,297,l),
(486,372,l),
(188,372,l),
(188,585,l),
(571,585,l),
(571,660,l),
(108,660,l),
(108,0,l)
);
}
);
width = 638;
},
{
anchors = (
{
name = bottom;
pos = (338,0);
},
{
name = ogonek;
pos = (611,0);
},
{
name = top;
pos = (324,660);
}
);
layerId = "C6BF4D98-2DC0-4313-8217-C5861B72DC4C";
metricLeft = "=I";
shapes = (
{
closed = 1;
nodes = (
(610,0,l),
(610,171,l),
(283,171,l),
(283,249,l),
(537,249,l),
(537,407,l),
(283,407,l),
(283,489,l),
(598,489,l),
(598,660,l),
(50,660,l),
(50,0,l)
);
}
);
width = 626;
}
);
unicode = 69;
},
{
glyphname = Ereversed;
kernRight = I;
layers = (
{
anchors = (
{
name = bottom;
pos = (250,0);
},
{
name = top;
pos = (265,660);
}
);
layerId = "1C7CD022-87C7-4E11-B656-E47B18819458";
shapes = (
{
closed = 1;
nodes = (
(484,660,l),
(47,660,l),
(47,646,l),
(468,646,l),
(468,344,l),
(130,344,l),
(130,330,l),
(468,330,l),
(468,14,l),
(30,14,l),
(30,0,l),
(484,0,l)
);
}
);
width = 583;
},
{
anchors = (
{
name = bottom;
pos = (288,0);
},
{
name = top;
pos = (298,660);
}
);
layerId = "4A17B37A-CBFD-40E5-9E02-2080A0E1F76C";
shapes = (
{
closed = 1;
nodes = (
(530,660,l),
(67,660,l),
(67,585,l),
(450,585,l),
(450,372,l),
(152,372,l),
(152,297,l),
(450,297,l),
(450,75,l),
(52,75,l),
(52,0,l),
(530,0,l)
);
}
);
width = 638;
},
{
anchors = (
{
name = bottom;
pos = (288,0);
},
{
name = top;
pos = (302,660);
}
);
layerId = "99EB5860-B45A-4B60-BB0B-F826C8F71D42";
shapes = (
{
closed = 1;
nodes = (
(576,660,l),
(28,660,l),
(28,489,l),
(343,489,l),
(343,407,l),
(89,407,l),
(89,249,l),
(343,249,l),
(343,171,l),
(16,171,l),
(16,0,l),
(576,0,l)
);
}
);
width = 626;
},
{
anchors = (
{
name = bottom;
pos = (250,0);
},
{
name = top;
pos = (265,660);
}
);
layerId = "A593077A-0A46-47E3-817B-5940F86DDEB8";
shapes = (
{
closed = 1;
nodes = (
(484,660,l),
(47,660,l),
(47,646,l),
(468,646,l),
(468,344,l),
(130,344,l),
(130,330,l),
(468,330,l),
(468,14,l),
(30,14,l),
(30,0,l),
(484,0,l)
);
}
);
width = 583;
},
{
anchors = (
{
name = bottom;
pos = (288,0);
},
{
name = top;
pos = (298,660);
}
);
layerId = "2D95750D-BD9C-4F78-991A-09E4A80A9CCF";
shapes = (
{
closed = 1;
nodes = (
(530,660,l),
(67,660,l),
(67,585,l),
(450,585,l),
(450,372,l),
(152,372,l),
(152,297,l),
(450,297,l),
(450,75,l),
(52,75,l),
(52,0,l),
(530,0,l)
);
}
);
width = 638;
},
{
anchors = (
{
name = bottom;
pos = (288,0);
},
{
name = top;
pos = (302,660);
}
);
layerId = "C6BF4D98-2DC0-4313-8217-C5861B72DC4C";
shapes = (
{
closed = 1;
nodes = (
(576,660,l),
(28,660,l),
(28,489,l),
(343,489,l),
(343,407,l),
(89,407,l),
(89,249,l),
(343,249,l),
(343,171,l),
(16,171,l),
(16,0,l),
(576,0,l)
);
}
);
width = 626;
}
);
unicode = 398;
},
{
glyphname = Schwa;
kernLeft = O;
kernRight = O;
layers = (
{
anchors = (
{
name = bottom;
pos = (337,0);
},
{
name = top;
pos = (337,660);
}
);
layerId = "1C7CD022-87C7-4E11-B656-E47B18819458";
shapes = (
{
closed = 1;
nodes = (
(507,-10,o),
(617,122,o),
(617,330,cs),
(617,538,o),
(508,670,o),
(334,670,cs),
(201,670,o),
(103,602,o),
(58,477,c),
(72,471,l),
(115,589,o),
(206,656,o),
(334,656,cs),
(498,656,o),
(601,531,o),
(601,330,cs),
(601,130,o),
(498,4,o),
(334,4,cs),
(173,4,o),
(67,122,o),
(67,319,cs),
(67,321,o),
(67,323,o),
(67,325,c),
(59,318,l),
(601,318,l),
(601,332,l),
(51,332,l),
(51,327,o),
(51,323,o),
(51,318,cs),
(51,117,o),
(160,-10,o),
(334,-10,cs)
);
}
);
width = 673;
},
{
anchors = (
{
name = bottom;
pos = (357,0);
},
{
name = top;
pos = (357,660);
}
);
layerId = "4A17B37A-CBFD-40E5-9E02-2080A0E1F76C";
shapes = (
{
closed = 1;
nodes = (
(525,-10,o),
(645,121,o),
(645,330,cs),
(645,539,o),
(529,670,o),
(341,670,cs),
(212,670,o),
(111,601,o),
(67,488,c),
(151,458,l),
(182,547,o),
(248,595,o),
(341,595,cs),
(478,595,o),
(561,496,o),
(561,330,cs),
(561,153,o),
(481,65,o),
(348,65,cs),
(236,65,o),
(144,142,o),
(144,274,cs),
(144,286,o),
(144,298,o),
(146,311,c),
(102,279,l),
(596,279,l),
(596,359,l),
(58,359,l),
(56,339,o),
(55,321,o),
(55,302,cs),
(55,106,o),
(174,-10,o),
(341,-10,cs)
);
}
);
width = 713;
},
{
anchors = (
{
name = bottom;
pos = (352,0);
},
{
name = top;
pos = (352,660);
}
);
layerId = "99EB5860-B45A-4B60-BB0B-F826C8F71D42";
shapes = (
{
closed = 1;
nodes = (
(548,-10,o),
(675,114,o),
(675,330,cs),
(675,546,o),
(553,670,o),
(344,670,cs),
(193,670,o),
(68,605,o),
(31,450,c),
(243,411,l),
(254,464,o),
(278,495,o),
(342,495,cs),
(409,495,o),
(442,448,o),
(442,346,cs),
(442,222,o),
(417,165,o),
(345,165,cs),
(288,165,o),
(252,197,o),
(252,281,cs),
(252,291,o),
(253,303,o),
(254,315,c),
(137,244,l),
(544,244,l),
(544,359,l),
(30,359,l),
(28,339,o),
(26,320,o),
(26,301,cs),
(26,127,o),
(130,-10,o),
(339,-10,cs)
);
}
);
width = 704;
},
{
associatedMasterId = "1C7CD022-87C7-4E11-B656-E47B18819458";
layerId = "AD926F97-325C-4AD5-8064-06AA5BB2A53C";
name = "Aug 15 18, 20:38";
shapes = (
{
closed = 1;
nodes = (
(627,535,o),
(514,663,o),
(334,663,cs),
(154,663,o),
(41,535,o),
(41,330,cs),
(41,126,o),
(154,-3,o),
(334,-3,cs),
(514,-3,o),
(627,126,o),
(627,330,cs)
);
}
);
width = 668;
},
{
associatedMasterId = "1C7CD022-87C7-4E11-B656-E47B18819458";
layerId = "C9C73742-9E4D-43D5-90DC-FB1A83A91828";
name = "Aug 15 18, 20:40";
shapes = (
{
closed = 1;
nodes = (
(512,-10,o),
(617,121,o),
(617,330,cs),
(617,539,o),
(508,670,o),
(335,670,cs),
(198,670,o),
(93,599,o),
(59,475,c),
(73,470,l),
(106,588,o),
(205,656,o),
(335,656,cs),
(498,656,o),
(601,530,o),
(601,330,cs),
(601,130,o),
(502,4,o),
(332,4,cs),
(202,4,o),
(67,97,o),
(67,296,cs),
(67,304,o),
(67,309,o),
(68,318,c),
(60,310,l),
(605,310,l),
(605,324,l),
(52,324,l),
(51,314,o),
(51,304,o),
(51,294,cs),
(51,122,o),
(158,-10,o),
(332,-10,cs)
);
}
);
width = 673;
},
{
anchors = (
{
name = bottom;
pos = (337,0);
},
{
name = top;
pos = (337,660);
}
);
layerId = "A593077A-0A46-47E3-817B-5940F86DDEB8";
shapes = (
{
closed = 1;
nodes = (
(507,-10,o),
(617,122,o),
(617,330,cs),
(617,538,o),
(508,670,o),
(334,670,cs),
(201,670,o),
(103,602,o),
(58,477,c),
(72,471,l),
(115,589,o),
(206,656,o),
(334,656,cs),
(498,656,o),
(601,531,o),
(601,330,cs),
(601,130,o),
(498,4,o),
(334,4,cs),
(173,4,o),
(67,122,o),
(67,319,cs),
(67,321,o),
(67,323,o),
(67,325,c),
(59,318,l),
(601,318,l),
(601,332,l),
(51,332,l),
(51,327,o),
(51,323,o),
(51,318,cs),
(51,117,o),
(160,-10,o),
(334,-10,cs)
);
}
);
width = 673;
},
{
associatedMasterId = "A593077A-0A46-47E3-817B-5940F86DDEB8";
layerId = "2B887FD7-7BE0-499F-A468-00301A5D0B72";
name = "Aug 15 18, 20:38";
shapes = (
{
closed = 1;
nodes = (
(627,535,o),
(514,663,o),
(334,663,cs),
(154,663,o),
(41,535,o),
(41,330,cs),
(41,126,o),
(154,-3,o),
(334,-3,cs),
(514,-3,o),
(627,126,o),
(627,330,cs)
);
}
);
width = 668;
},
{
associatedMasterId = "A593077A-0A46-47E3-817B-5940F86DDEB8";
layerId = "27F6E052-F322-44F6-9CFA-669397A10CEC";
name = "Aug 15 18, 20:40";
shapes = (
{
closed = 1;
nodes = (
(512,-10,o),
(617,121,o),
(617,330,cs),
(617,539,o),
(508,670,o),
(335,670,cs),
(198,670,o),
(93,599,o),
(59,475,c),
(73,470,l),
(106,588,o),
(205,656,o),
(335,656,cs),
(498,656,o),
(601,530,o),
(601,330,cs),
(601,130,o),
(502,4,o),
(332,4,cs),
(202,4,o),
(67,97,o),
(67,296,cs),
(67,304,o),
(67,309,o),
(68,318,c),
(60,310,l),
(605,310,l),
(605,324,l),
(52,324,l),
(51,314,o),
(51,304,o),
(51,294,cs),
(51,122,o),
(158,-10,o),
(332,-10,cs)
);
}
);
width = 673;
},
{
anchors = (
{
name = bottom;
pos = (357,0);
},
{
name = top;
pos = (357,660);
}
);
layerId = "2D95750D-BD9C-4F78-991A-09E4A80A9CCF";
shapes = (
{
closed = 1;
nodes = (
(525,-10,o),
(645,121,o),
(645,330,cs),
(645,539,o),
(529,670,o),
(341,670,cs),
(212,670,o),
(111,601,o),
(67,488,c),
(151,458,l),
(182,547,o),
(248,595,o),
(341,595,cs),
(478,595,o),
(561,496,o),
(561,330,cs),
(561,153,o),
(481,65,o),
(348,65,cs),
(236,65,o),
(144,142,o),
(144,274,cs),
(144,286,o),
(144,298,o),
(146,311,c),
(102,279,l),
(596,279,l),
(596,359,l),
(58,359,l),
(56,339,o),
(55,321,o),
(55,302,cs),
(55,106,o),
(174,-10,o),
(341,-10,cs)
);
}
);
width = 713;
},
{
anchors = (
{
name = bottom;
pos = (352,0);
},
{
name = top;
pos = (352,660);
}
);
layerId = "C6BF4D98-2DC0-4313-8217-C5861B72DC4C";
shapes = (
{
closed = 1;
nodes = (
(548,-10,o),
(675,114,o),
(675,330,cs),
(675,546,o),
(553,670,o),
(344,670,cs),
(193,670,o),
(68,605,o),
(31,450,c),
(243,411,l),
(254,464,o),
(278,495,o),
(342,495,cs),
(409,495,o),
(442,448,o),
(442,346,cs),
(442,222,o),
(417,165,o),
(345,165,cs),
(288,165,o),
(252,197,o),
(252,281,cs),
(252,291,o),
(253,303,o),
(254,315,c),
(137,244,l),
(544,244,l),
(544,359,l),
(30,359,l),
(28,339,o),
(26,320,o),
(26,301,cs),
(26,127,o),
(130,-10,o),
(339,-10,cs)
);
}
);
width = 704;
}
);
metricRight = O;
unicode = 399;
},
{
glyphname = F;
kernLeft = I;
layers = (
{
anchors = (
{
name = bottom;
pos = (148,0);
},
{
name = ogonek;
pos = (188,0);
},
{
name = top;
pos = (335,660);
}
);
layerId = "4A17B37A-CBFD-40E5-9E02-2080A0E1F76C";
shapes = (
{
closed = 1;
nodes = (
(570,660,l),
(108,660,l),
(108,0,l),
(188,0,l),
(188,297,l),
(486,297,l),
(486,372,l),
(188,372,l),
(188,585,l),
(570,585,l)
);
}
);
width = 610;
},
{
anchors = (
{
name = bottom;
pos = (167,0);
},
{
name = ogonek;
pos = (283,0);
},
{
name = top;
pos = (307,660);
}
);
layerId = "99EB5860-B45A-4B60-BB0B-F826C8F71D42";
metricLeft = "=I";
shapes = (
{
closed = 1;
nodes = (
(597,660,l),
(50,660,l),
(50,0,l),
(283,0,l),
(283,226,l),
(537,226,l),
(537,397,l),
(283,397,l),
(283,489,l),
(597,489,l)
);
}
);
width = 614;
},
{
anchors = (
{
name = bottom;
pos = (107,0);
},
{
name = ogonek;
pos = (115,0);
},
{
name = top;
pos = (314,660);
}
);
layerId = "1C7CD022-87C7-4E11-B656-E47B18819458";
shapes = (
{
closed = 1;
nodes = (
(535,660,l),
(99,660,l),
(99,0,l),
(115,0,l),
(115,330,l),
(453,330,l),
(453,344,l),
(115,344,l),
(115,646,l),
(535,646,l)
);
}
);
width = 554;
},
{
anchors = (
{
name = bottom;
pos = (107,0);
},
{
name = ogonek;
pos = (115,0);
},
{
name = top;
pos = (314,660);
}
);
layerId = "A593077A-0A46-47E3-817B-5940F86DDEB8";
shapes = (
{
closed = 1;
nodes = (
(535,660,l),
(99,660,l),
(99,0,l),
(115,0,l),
(115,330,l),
(453,330,l),
(453,344,l),
(115,344,l),
(115,646,l),
(535,646,l)
);
}
);
width = 554;
},
{
anchors = (
{
name = bottom;
pos = (148,0);
},
{
name = ogonek;
pos = (188,0);
},
{
name = top;
pos = (335,660);
}
);
layerId = "2D95750D-BD9C-4F78-991A-09E4A80A9CCF";
shapes = (
{
closed = 1;
nodes = (
(570,660,l),
(108,660,l),
(108,0,l),
(188,0,l),
(188,297,l),
(486,297,l),
(486,372,l),
(188,372,l),
(188,585,l),
(570,585,l)
);
}
);
width = 610;
},
{
anchors = (
{
name = bottom;
pos = (167,0);
},
{
name = ogonek;
pos = (283,0);
},
{
name = top;
pos = (307,660);
}
);
layerId = "C6BF4D98-2DC0-4313-8217-C5861B72DC4C";
metricLeft = "=I";
shapes = (
{
closed = 1;
nodes = (
(597,660,l),
(50,660,l),
(50,0,l),
(283,0,l),
(283,226,l),
(537,226,l),
(537,397,l),
(283,397,l),
(283,489,l),
(597,489,l)
);
}
);
width = 614;
}
);
metricLeft = H;
unicode = 70;
},
{
glyphname = G;
kernLeft = O;
kernRight = G;
layers = (
{
anchors = (
{
name = bottom;
pos = (405,0);
},
{
name = ogonek;
pos = (454,0);
},
{
name = top;
pos = (373,660);
}
);
layerId = "4A17B37A-CBFD-40E5-9E02-2080A0E1F76C";
shapes = (
{
closed = 1;
nodes = (
(485,-10,o),
(560,37,o),
(595,120,c),
(578,123,l),
(582,0,l),
(645,0,l),
(645,333,l),
(362,333,l),
(362,258,l),
(572,258,l),
(572,235,ls),
(572,121,o),
(487,65,o),
(377,65,cs),
(230,65,o),
(152,164,o),
(152,330,cs),
(152,496,o),
(247,595,o),
(381,595,cs),
(473,595,o),
(538,555,o),
(567,479,c),
(640,519,l),
(589,621,o),
(512,670,o),
(381,670,cs),
(196,670,o),
(68,539,o),
(68,330,cs),
(68,121,o),
(186,-10,o),
(374,-10,cs)
);
}
);
width = 724;
},
{
anchors = (
{
name = bottom;
pos = (379,0);
},
{
name = ogonek;
pos = (401,0);
},
{
name = top;
pos = (364,660);
}
);
layerId = "99EB5860-B45A-4B60-BB0B-F826C8F71D42";
shapes = (
{
closed = 1;
nodes = (
(445,-10,o),
(517,43,o),
(540,138,c),
(504,177,l),
(523,0,l),
(677,0,l),
(677,372,l),
(371,372,l),
(371,229,l),
(482,229,l),
(482,228,ls),
(482,181,o),
(444,159,o),
(391,159,cs),
(306,159,o),
(267,205,o),
(267,330,cs),
(267,442,o),
(297,495,o),
(373,495,cs),
(420,495,o),
(453,474,o),
(462,411,c),
(679,489,l),
(627,616,o),
(534,670,o),
(371,670,cs),
(156,670,o),
(29,544,o),
(29,328,cs),
(29,103,o),
(157,-10,o),
(328,-10,cs)
);
}
);
width = 722;
},
{
anchors = (
{
name = bottom;
pos = (351,0);
},
{
name = ogonek;
pos = (430,0);
},
{
name = top;
pos = (343,660);
}
);
layerId = "1C7CD022-87C7-4E11-B656-E47B18819458";
shapes = (
{
closed = 1;
nodes = (
(482,-10,o),
(567,59,o),
(595,164,c),
(594,166,l),
(594,0,l),
(610,0,l),
(610,311,l),
(353,311,l),
(353,297,l),
(594,297,l),
(594,244,ls),
(594,157,o),
(545,4,o),
(355,4,cs),
(180,4,o),
(72,130,o),
(72,330,cs),
(72,530,o),
(183,656,o),
(349,656,cs),
(479,656,o),
(558,601,o),
(591,489,c),
(605,496,l),
(572,612,o),
(488,670,o),
(349,670,cs),
(173,670,o),
(56,539,o),
(56,330,cs),
(56,121,o),
(170,-10,o),
(355,-10,cs)
);
}
);
width = 676;
},
{
anchors = (
{
name = bottom;
pos = (351,0);
},
{
name = ogonek;
pos = (430,0);
},
{
name = top;
pos = (343,660);
}
);
layerId = "A593077A-0A46-47E3-817B-5940F86DDEB8";
shapes = (
{
closed = 1;
nodes = (
(482,-10,o),
(567,59,o),
(595,164,c),
(594,166,l),
(594,0,l),
(610,0,l),
(610,311,l),
(353,311,l),
(353,297,l),
(594,297,l),
(594,244,ls),
(594,157,o),
(545,4,o),
(355,4,cs),
(180,4,o),
(72,130,o),
(72,330,cs),
(72,530,o),
(183,656,o),
(349,656,cs),
(479,656,o),
(558,601,o),
(591,489,c),
(605,496,l),
(572,612,o),
(488,670,o),
(349,670,cs),
(173,670,o),
(56,539,o),
(56,330,cs),
(56,121,o),
(170,-10,o),
(355,-10,cs)
);
}
);
width = 676;
},
{
anchors = (
{
name = bottom;
pos = (405,0);
},
{
name = ogonek;
pos = (454,0);
},
{
name = top;
pos = (373,660);
}
);
layerId = "2D95750D-BD9C-4F78-991A-09E4A80A9CCF";
shapes = (
{
closed = 1;
nodes = (
(485,-10,o),
(560,37,o),
(595,120,c),
(578,123,l),
(582,0,l),
(645,0,l),
(645,333,l),
(362,333,l),
(362,258,l),
(572,258,l),
(572,235,ls),
(572,121,o),
(487,65,o),
(377,65,cs),
(230,65,o),
(152,164,o),
(152,330,cs),
(152,496,o),
(247,595,o),
(381,595,cs),
(473,595,o),
(538,555,o),
(567,479,c),
(640,519,l),
(589,621,o),
(512,670,o),
(381,670,cs),
(196,670,o),
(68,539,o),
(68,330,cs),
(68,121,o),
(186,-10,o),
(374,-10,cs)
);
}
);
width = 724;
},
{
anchors = (
{
name = bottom;
pos = (379,0);
},
{
name = ogonek;
pos = (401,0);
},
{
name = top;
pos = (364,660);
}
);
layerId = "C6BF4D98-2DC0-4313-8217-C5861B72DC4C";
shapes = (
{
closed = 1;
nodes = (
(445,-10,o),
(517,43,o),
(540,138,c),
(504,177,l),
(523,0,l),
(677,0,l),
(677,372,l),
(371,372,l),
(371,229,l),
(482,229,l),
(482,228,ls),
(482,181,o),
(444,159,o),
(391,159,cs),
(306,159,o),
(267,205,o),
(267,330,cs),
(267,442,o),
(297,495,o),
(373,495,cs),
(420,495,o),
(453,474,o),
(462,411,c),
(679,489,l),
(627,616,o),
(534,670,o),
(371,670,cs),
(156,670,o),
(29,544,o),
(29,328,cs),
(29,103,o),
(157,-10,o),
(328,-10,cs)
);
}
);
width = 722;
}
);
metricLeft = O;
unicode = 71;
},
{
glyphname = Glottalstop;
layers = (
{
anchors = (
{
name = _center;
pos = (214,17);
}
);
hints = (
{
horizontal = 1;
origin = (0,21);
target = (0,6);
type = Stem;
},
{
horizontal = 1;
place = (-5, 44);
place = (-5, 44);
type = Stem;
}
);
layerId = "1C7CD022-87C7-4E11-B656-E47B18819458";
shapes = (
{
closed = 1;
nodes = (
(117,670,o),
(48,607,o),
(30,501,c),
(44,495,l),
(59,596,o),
(123,656,o),
(246,656,cs),
(363,656,o),
(436,579,o),
(436,482,cs),
(436,371,o),
(387,313,o),
(228,280,c),
(228,0,l),
(244,0,l),
(244,271,l),
(392,298,o),
(452,369,o),
(452,482,cs),
(452,588,o),
(373,670,o),
(246,670,cs)
);
}
);
width = 493;
},
{
anchors = (
{
name = _center;
pos = (206,55);
}
);
hints = (
{
horizontal = 1;
origin = (0,21);
target = (0,6);
type = Stem;
}
);
layerId = "4A17B37A-CBFD-40E5-9E02-2080A0E1F76C";
shapes = (
{
closed = 1;
nodes = (
(146,670,o),
(53,598,o),
(29,490,c),
(100,449,l),
(111,539,o),
(178,595,o),
(277,595,cs),
(368,595,o),
(433,538,o),
(433,462,cs),
(433,360,o),
(386,307,o),
(233,283,c),
(233,0,l),
(313,0,l),
(313,233,l),
(422,257,o),
(517,309,o),
(517,465,cs),
(517,578,o),
(422,670,o),
(283,670,cs)
);
}
);
width = 548;
},
{
anchors = (
{
name = _center;
pos = (207,89);
}
);
hints = (
{
horizontal = 1;
origin = (0,21);
target = (0,2);
type = Stem;
}
);
layerId = "99EB5860-B45A-4B60-BB0B-F826C8F71D42";
shapes = (
{
closed = 1;
nodes = (
(124,670,o),
(43,572,o),
(16,449,c),
(242,382,l),
(251,456,o),
(276,490,o),
(326,490,cs),
(357,490,o),
(379,473,o),
(379,435,cs),
(379,366,o),
(336,315,o),
(212,312,c),
(211,0,l),
(434,0,l),
(434,188,l),
(547,212,o),
(634,284,o),
(634,436,cs),
(634,591,o),
(510,670,o),
(344,670,cs)
);
}
);
width = 651;
},
{
anchors = (
{
name = _center;
pos = (214,17);
}
);
hints = (
{
horizontal = 1;
origin = (0,21);
target = (0,6);
type = Stem;
},
{
horizontal = 1;
place = (-5, 44);
place = (-5, 44);
type = Stem;
}
);
layerId = "A593077A-0A46-47E3-817B-5940F86DDEB8";
shapes = (
{
closed = 1;
nodes = (
(117,670,o),
(48,607,o),
(30,501,c),
(44,495,l),
(59,596,o),
(123,656,o),
(246,656,cs),
(363,656,o),
(436,579,o),
(436,482,cs),
(436,371,o),
(387,313,o),
(228,280,c),
(228,0,l),
(244,0,l),
(244,271,l),
(392,298,o),
(452,369,o),
(452,482,cs),
(452,588,o),
(373,670,o),
(246,670,cs)
);
}
);
width = 493;
},
{
anchors = (
{
name = _center;
pos = (206,55);
}
);
hints = (
{
horizontal = 1;
origin = (0,21);
target = (0,6);
type = Stem;
}
);
layerId = "2D95750D-BD9C-4F78-991A-09E4A80A9CCF";
shapes = (
{
closed = 1;
nodes = (
(146,670,o),
(53,598,o),
(29,490,c),
(100,449,l),
(111,539,o),
(178,595,o),
(277,595,cs),
(368,595,o),
(433,538,o),
(433,462,cs),
(433,360,o),
(386,307,o),
(233,283,c),
(233,0,l),
(313,0,l),
(313,233,l),
(422,257,o),
(517,309,o),
(517,465,cs),
(517,578,o),
(422,670,o),
(283,670,cs)
);
}
);
width = 548;
},
{
anchors = (
{
name = _center;
pos = (207,89);
}
);
hints = (
{
horizontal = 1;
origin = (0,21);
target = (0,2);
type = Stem;
}
);
layerId = "C6BF4D98-2DC0-4313-8217-C5861B72DC4C";
shapes = (
{
closed = 1;
nodes = (
(124,670,o),
(43,572,o),
(16,449,c),
(242,382,l),
(251,456,o),
(276,490,o),
(326,490,cs),
(357,490,o),
(379,473,o),
(379,435,cs),
(379,366,o),
(336,315,o),
(212,312,c),
(211,0,l),
(434,0,l),
(434,188,l),
(547,212,o),
(634,284,o),
(634,436,cs),
(634,591,o),
(510,670,o),
(344,670,cs)
);
}
);
width = 651;
}
);
unicode = 577;
},
{
glyphname = H;
kernLeft = I;
kernRight = I;
layers = (
{
anchors = (
{
name = bottom;
pos = (367,0);
},
{
name = ogonek;
pos = (626,0);
},
{
name = top;
pos = (367,660);
}
);
layerId = "4A17B37A-CBFD-40E5-9E02-2080A0E1F76C";
shapes = (
{
closed = 1;
nodes = (
(546,660,l),
(546,0,l),
(626,0,l),
(626,660,l)
);
},
{
closed = 1;
nodes = (
(108,660,l),
(108,0,l),
(188,0,l),
(188,660,l)
);
},
{
closed = 1;
nodes = (
(150,372,l),
(150,297,l),
(583,297,l),
(583,372,l)
);
}
);
width = 734;
},
{
anchors = (
{
name = bottom;
pos = (374,0);
},
{
name = ogonek;
pos = (708,0);
},
{
name = top;
pos = (374,660);
}
);
layerId = "99EB5860-B45A-4B60-BB0B-F826C8F71D42";
shapes = (
{
closed = 1;
nodes = (
(464,660,l),
(464,0,l),
(697,0,l),
(697,660,l)
);
},
{
closed = 1;
nodes = (
(50,660,l),
(50,0,l),
(283,0,l),
(283,660,l)
);
},
{
closed = 1;
nodes = (
(162,417,l),
(162,246,l),
(593,246,l),
(593,417,l)
);
}
);
width = 747;
},
{
anchors = (
{
name = bottom;
pos = (348,0);
},
{
name = ogonek;
pos = (597,0);
},
{
name = top;
pos = (348,660);
}
);
layerId = "1C7CD022-87C7-4E11-B656-E47B18819458";
shapes = (
{
closed = 1;
nodes = (
(581,660,l),
(581,0,l),
(597,0,l),
(597,660,l)
);
},
{
closed = 1;
nodes = (
(99,660,l),
(99,0,l),
(115,0,l),
(115,660,l)
);
},
{
closed = 1;
nodes = (
(107,344,l),
(107,330,l),
(590,330,l),
(590,344,l)
);
}
);
width = 696;
},
{
anchors = (
{
name = bottom;
pos = (348,0);
},
{
name = ogonek;
pos = (597,0);
},
{
name = top;
pos = (348,660);
}
);
layerId = "A593077A-0A46-47E3-817B-5940F86DDEB8";
shapes = (
{
closed = 1;
nodes = (
(581,660,l),
(581,0,l),
(597,0,l),
(597,660,l)
);
},
{
closed = 1;
nodes = (
(99,660,l),
(99,0,l),
(115,0,l),
(115,660,l)
);
},
{
closed = 1;
nodes = (
(107,344,l),
(107,330,l),
(590,330,l),
(590,344,l)
);
}
);
width = 696;
},
{
anchors = (
{
name = bottom;
pos = (367,0);
},
{
name = ogonek;
pos = (626,0);
},
{
name = top;
pos = (367,660);
}
);
layerId = "2D95750D-BD9C-4F78-991A-09E4A80A9CCF";
shapes = (
{
closed = 1;
nodes = (
(546,660,l),
(546,0,l),
(626,0,l),
(626,660,l)
);
},
{
closed = 1;
nodes = (
(108,660,l),
(108,0,l),
(188,0,l),
(188,660,l)
);
},
{
closed = 1;
nodes = (
(150,372,l),
(150,297,l),
(583,297,l),
(583,372,l)
);
}
);
width = 734;
},
{
anchors = (
{
name = bottom;
pos = (374,0);
},
{
name = ogonek;
pos = (708,0);
},
{
name = top;
pos = (374,660);
}
);
layerId = "C6BF4D98-2DC0-4313-8217-C5861B72DC4C";
shapes = (
{
closed = 1;
nodes = (
(464,660,l),
(464,0,l),
(697,0,l),
(697,660,l)
);
},
{
closed = 1;
nodes = (
(50,660,l),
(50,0,l),
(283,0,l),
(283,660,l)
);
},
{
closed = 1;
nodes = (
(162,417,l),
(162,246,l),
(593,246,l),
(593,417,l)
);
}
);
width = 747;
}
);
unicode = 72;
},
{
glyphname = I;
kernLeft = I;
kernRight = I;
layers = (
{
anchors = (
{
name = bottom;
pos = (148,0);
},
{
name = ogonek;
pos = (188,0);
},
{
name = top;
pos = (148,660);
}
);
layerId = "4A17B37A-CBFD-40E5-9E02-2080A0E1F76C";
shapes = (
{
closed = 1;
nodes = (
(108,660,l),
(108,0,l),
(188,0,l),
(188,660,l)
);
}
);
width = 296;
},
{
anchors = (
{
name = bottom;
pos = (167,0);
},
{
name = ogonek;
pos = (283,0);
},
{
name = top;
pos = (166,660);
}
);
layerId = "99EB5860-B45A-4B60-BB0B-F826C8F71D42";
shapes = (
{
closed = 1;
nodes = (
(50,660,l),
(50,0,l),
(283,0,l),
(283,660,l)
);
}
);
width = 333;
},
{
anchors = (
{
name = bottom;
pos = (107,0);
},
{
name = ogonek;
pos = (115,0);
},
{
name = top;
pos = (107,660);
}
);
layerId = "1C7CD022-87C7-4E11-B656-E47B18819458";
shapes = (
{
closed = 1;
nodes = (
(99,660,l),
(99,0,l),
(115,0,l),
(115,660,l)
);
}
);
width = 214;
},
{
anchors = (
{
name = bottom;
pos = (107,0);
},
{
name = ogonek;
pos = (115,0);
},
{
name = top;
pos = (107,660);
}
);
layerId = "A593077A-0A46-47E3-817B-5940F86DDEB8";
shapes = (
{
closed = 1;
nodes = (
(99,660,l),
(99,0,l),
(115,0,l),
(115,660,l)
);
}
);
width = 214;
},
{
anchors = (
{
name = bottom;
pos = (148,0);
},
{
name = ogonek;
pos = (188,0);
},
{
name = top;
pos = (148,660);
}
);
layerId = "2D95750D-BD9C-4F78-991A-09E4A80A9CCF";
shapes = (
{
closed = 1;
nodes = (
(108,660,l),
(108,0,l),
(188,0,l),
(188,660,l)
);
}
);
width = 296;
},
{
anchors = (
{
name = bottom;
pos = (167,0);
},
{
name = ogonek;
pos = (283,0);
},
{
name = top;
pos = (166,660);
}
);
layerId = "C6BF4D98-2DC0-4313-8217-C5861B72DC4C";
shapes = (
{
closed = 1;
nodes = (
(50,660,l),
(50,0,l),
(283,0,l),
(283,660,l)
);
}
);
width = 333;
}
);
metricLeft = H;
metricRight = H;
unicode = 73;
},
{
glyphname = Idieresis;
kernLeft = I;
kernRight = I;
layers = (
{
hints = (
{
horizontal = 1;
origin = (0,5);
target = (0,11);
type = Stem;
}
);
layerId = "4A17B37A-CBFD-40E5-9E02-2080A0E1F76C";
shapes = (
{
closed = 1;
nodes = (
(28,856,o),
(5,833,o),
(5,799,cs),
(5,765,o),
(28,742,o),
(62,742,cs),
(96,742,o),
(119,765,o),
(119,799,cs),
(119,833,o),
(96,856,o),
(62,856,cs)
);
},
{
closed = 1;
nodes = (
(200,856,o),
(177,833,o),
(177,799,cs),
(177,765,o),
(200,742,o),
(234,742,cs),
(268,742,o),
(291,765,o),
(291,799,cs),
(291,833,o),
(268,856,o),
(234,856,cs)
);
},
{
ref = I;
}
);
width = 296;
},
{
layerId = "99EB5860-B45A-4B60-BB0B-F826C8F71D42";
shapes = (
{
closed = 1;
nodes = (
(-10,880,o),
(-46,847,o),
(-46,789,cs),
(-46,731,o),
(-10,698,o),
(52,698,cs),
(116,698,o),
(154,731,o),
(154,789,cs),
(154,847,o),
(116,880,o),
(52,880,cs)
);
},
{
closed = 1;
nodes = (
(215,880,o),
(179,847,o),
(179,789,cs),
(179,731,o),
(215,698,o),
(277,698,cs),
(341,698,o),
(379,731,o),
(379,789,cs),
(379,847,o),
(341,880,o),
(277,880,cs)
);
},
{
ref = I;
}
);
width = 333;
},
{
layerId = "1C7CD022-87C7-4E11-B656-E47B18819458";
shapes = (
{
closed = 1;
nodes = (
(35,802,o),
(26,793,o),
(26,780,cs),
(26,767,o),
(35,758,o),
(48,758,cs),
(61,758,o),
(70,767,o),
(70,780,cs),
(70,793,o),
(61,802,o),
(48,802,cs)
);
},
{
closed = 1;
nodes = (
(153,802,o),
(144,793,o),
(144,780,cs),
(144,767,o),
(153,758,o),
(166,758,cs),
(179,758,o),
(188,767,o),
(188,780,cs),
(188,793,o),
(179,802,o),
(166,802,cs)
);
},
{
alignment = -1;
ref = I;
}
);
width = 214;
},
{
layerId = "A593077A-0A46-47E3-817B-5940F86DDEB8";
shapes = (
{
closed = 1;
nodes = (
(35,802,o),
(26,793,o),
(26,780,cs),
(26,767,o),
(35,758,o),
(48,758,cs),
(61,758,o),
(70,767,o),
(70,780,cs),
(70,793,o),
(61,802,o),
(48,802,cs)
);
},
{
closed = 1;
nodes = (
(153,802,o),
(144,793,o),
(144,780,cs),
(144,767,o),
(153,758,o),
(166,758,cs),
(179,758,o),
(188,767,o),
(188,780,cs),
(188,793,o),
(179,802,o),
(166,802,cs)
);
},
{
alignment = -1;
ref = I;
}
);
width = 214;
},
{
hints = (
{
horizontal = 1;
origin = (0,5);
target = (0,11);
type = Stem;
}
);
layerId = "2D95750D-BD9C-4F78-991A-09E4A80A9CCF";
shapes = (
{
closed = 1;
nodes = (
(28,856,o),
(5,833,o),
(5,799,cs),
(5,765,o),
(28,742,o),
(62,742,cs),
(96,742,o),
(119,765,o),
(119,799,cs),
(119,833,o),
(96,856,o),
(62,856,cs)
);
},
{
closed = 1;
nodes = (
(200,856,o),
(177,833,o),
(177,799,cs),
(177,765,o),
(200,742,o),
(234,742,cs),
(268,742,o),
(291,765,o),
(291,799,cs),
(291,833,o),
(268,856,o),
(234,856,cs)
);
},
{
ref = I;
}
);
width = 296;
},
{
layerId = "C6BF4D98-2DC0-4313-8217-C5861B72DC4C";
shapes = (
{
closed = 1;
nodes = (
(-10,880,o),
(-46,847,o),
(-46,789,cs),
(-46,731,o),
(-10,698,o),
(52,698,cs),
(116,698,o),
(154,731,o),
(154,789,cs),
(154,847,o),
(116,880,o),
(52,880,cs)
);
},
{
closed = 1;
nodes = (
(215,880,o),
(179,847,o),
(179,789,cs),
(179,731,o),
(215,698,o),
(277,698,cs),
(341,698,o),
(379,731,o),
(379,789,cs),
(379,847,o),
(341,880,o),
(277,880,cs)
);
},
{
ref = I;
}
);
width = 333;
}
);
unicode = 207;
},
{
glyphname = Imacron;
kernLeft = I;
kernRight = I;
layers = (
{
layerId = "4A17B37A-CBFD-40E5-9E02-2080A0E1F76C";
shapes = (
{
closed = 1;
nodes = (
(40,823,l),
(40,756,l),
(256,756,l),
(256,823,l)
);
},
{
ref = I;
}
);
width = 296;
},
{
layerId = "99EB5860-B45A-4B60-BB0B-F826C8F71D42";
shapes = (
{
closed = 1;
nodes = (
(1,841,l),
(1,711,l),
(330,711,l),
(330,841,l)
);
},
{
ref = I;
}
);
width = 333;
},
{
hints = (
{
horizontal = 1;
origin = (0,1);
target = (0,0);
type = Stem;
}
);
layerId = "1C7CD022-87C7-4E11-B656-E47B18819458";
shapes = (
{
closed = 1;
nodes = (
(-2,779,l),
(-2,765,l),
(216,765,l),
(216,779,l)
);
},
{
ref = I;
}
);
width = 214;
},
{
hints = (
{
horizontal = 1;
origin = (0,1);
target = (0,0);
type = Stem;
}
);
layerId = "A593077A-0A46-47E3-817B-5940F86DDEB8";
shapes = (
{
closed = 1;
nodes = (
(-2,779,l),
(-2,765,l),
(216,765,l),
(216,779,l)
);
},
{
ref = I;
}
);
width = 214;
},
{
layerId = "2D95750D-BD9C-4F78-991A-09E4A80A9CCF";
shapes = (
{
closed = 1;
nodes = (
(40,823,l),
(40,756,l),
(256,756,l),
(256,823,l)
);
},
{
ref = I;
}
);
width = 296;
},
{
layerId = "C6BF4D98-2DC0-4313-8217-C5861B72DC4C";
shapes = (
{
closed = 1;
nodes = (
(1,841,l),
(1,711,l),
(330,711,l),
(330,841,l)
);
},
{
ref = I;
}
);
width = 333;
}
);
unicode = 298;
},
{
glyphname = J;
kernLeft = J;
kernRight = U;
layers = (
{
anchors = (
{
name = bottom;
pos = (256,0);
},
{
name = ogonek;
pos = (310,0);
},
{
name = top;
pos = (425,660);
}
);
layerId = "4A17B37A-CBFD-40E5-9E02-2080A0E1F76C";
shapes = (
{
closed = 1;
nodes = (
(385,660,l),
(385,246,ls),
(385,128,o),
(351,65,o),
(238,65,cs),
(138,65,o),
(106,120,o),
(121,233,c),
(47,218,l),
(21,79,o),
(93,-10,o),
(241,-10,cs),
(381,-10,o),
(465,78,o),
(465,226,cs),
(465,660,l)
);
}
);
width = 566;
},
{
anchors = (
{
name = bottom;
pos = (322,0);
},
{
name = ogonek;
pos = (402,0);
},
{
name = top;
pos = (502,660);
}
);
layerId = "99EB5860-B45A-4B60-BB0B-F826C8F71D42";
shapes = (
{
closed = 1;
nodes = (
(385,660,l),
(385,289,ls),
(385,201,o),
(364,165,o),
(319,165,cs),
(264,165,o),
(241,204,o),
(258,329,c),
(27,290,l),
(1,118,o),
(84,-10,o),
(307,-10,cs),
(508,-10,o),
(618,93,o),
(618,272,cs),
(618,660,l)
);
}
);
width = 653;
},
{
anchors = (
{
name = bottom;
pos = (219,0);
},
{
name = ogonek;
pos = (274,0);
},
{
name = top;
pos = (398,660);
}
);
layerId = "1C7CD022-87C7-4E11-B656-E47B18819458";
shapes = (
{
closed = 1;
nodes = (
(390,660,l),
(390,209,ls),
(390,84,o),
(330,4,o),
(212,4,cs),
(92,4,o),
(30,76,o),
(48,208,c),
(32,200,l),
(14,74,o),
(80,-10,o),
(212,-10,cs),
(340,-10,o),
(406,75,o),
(406,209,cs),
(406,660,l)
);
}
);
width = 498;
},
{
anchors = (
{
name = bottom;
pos = (219,0);
},
{
name = ogonek;
pos = (274,0);
},
{
name = top;
pos = (398,660);
}
);
layerId = "A593077A-0A46-47E3-817B-5940F86DDEB8";
shapes = (
{
closed = 1;
nodes = (
(390,660,l),
(390,209,ls),
(390,84,o),
(330,4,o),
(212,4,cs),
(92,4,o),
(30,76,o),
(48,208,c),
(32,200,l),
(14,74,o),
(80,-10,o),
(212,-10,cs),
(340,-10,o),
(406,75,o),
(406,209,cs),
(406,660,l)
);
}
);
width = 498;
},
{
anchors = (
{
name = bottom;
pos = (256,0);
},
{
name = ogonek;
pos = (310,0);
},
{
name = top;
pos = (425,660);
}
);
layerId = "2D95750D-BD9C-4F78-991A-09E4A80A9CCF";
shapes = (
{
closed = 1;
nodes = (
(385,660,l),
(385,246,ls),
(385,128,o),
(351,65,o),
(238,65,cs),
(138,65,o),
(106,120,o),
(121,233,c),
(47,218,l),
(21,79,o),
(93,-10,o),
(241,-10,cs),
(381,-10,o),
(465,78,o),
(465,226,cs),
(465,660,l)
);
}
);
width = 566;
},
{
anchors = (
{
name = bottom;
pos = (322,0);
},
{
name = ogonek;
pos = (402,0);
},
{
name = top;
pos = (502,660);
}
);
layerId = "C6BF4D98-2DC0-4313-8217-C5861B72DC4C";
shapes = (
{
closed = 1;
nodes = (
(385,660,l),
(385,289,ls),
(385,201,o),
(364,165,o),
(319,165,cs),
(264,165,o),
(241,204,o),
(258,329,c),
(27,290,l),
(1,118,o),
(84,-10,o),
(307,-10,cs),
(508,-10,o),
(618,93,o),
(618,272,cs),
(618,660,l)
);
}
);
width = 653;
}
);
unicode = 74;
},
{
glyphname = K;
kernLeft = I;
kernRight = K;
layers = (
{
anchors = (
{
name = bottom;
pos = (373,0);
},
{
name = ogonek;
pos = (628,0);
},
{
name = top;
pos = (353,660);
}
);
layerId = "4A17B37A-CBFD-40E5-9E02-2080A0E1F76C";
shapes = (
{
closed = 1;
nodes = (
(520,660,l),
(148,279,l),
(148,171,l),
(325,352,l),
(337,365,l),
(625,660,l)
);
},
{
closed = 1;
nodes = (
(108,660,l),
(108,0,l),
(188,0,l),
(188,660,l)
);
},
{
closed = 1;
nodes = (
(279,371,l),
(532,0,l),
(628,0,l),
(345,416,l)
);
}
);
width = 656;
},
{
anchors = (
{
name = bottom;
pos = (356,0);
},
{
name = ogonek;
pos = (721,0);
},
{
name = top;
pos = (359,660);
}
);
layerId = "99EB5860-B45A-4B60-BB0B-F826C8F71D42";
shapes = (
{
closed = 1;
nodes = (
(455,660,l),
(170,253,l),
(224,92,l),
(369,290,l),
(379,239,l),
(703,660,l)
);
},
{
closed = 1;
nodes = (
(50,660,l),
(50,0,l),
(283,0,l),
(283,660,l)
);
},
{
closed = 1;
nodes = (
(296,330,l),
(460,0,l),
(721,0,l),
(467,459,l)
);
}
);
width = 717;
},
{
anchors = (
{
name = bottom;
pos = (319,0);
},
{
name = ogonek;
pos = (544,0);
},
{
name = top;
pos = (319,660);
}
);
layerId = "1C7CD022-87C7-4E11-B656-E47B18819458";
shapes = (
{
closed = 1;
nodes = (
(511,660,l),
(106,248,l),
(106,225,l),
(268,389,l),
(270,391,l),
(534,660,l)
);
},
{
closed = 1;
nodes = (
(99,660,l),
(99,0,l),
(115,0,l),
(115,660,l)
);
},
{
closed = 1;
nodes = (
(259,390,l),
(523,0,l),
(544,0,l),
(270,404,l)
);
}
);
width = 557;
},
{
anchors = (
{
name = bottom;
pos = (319,0);
},
{
name = ogonek;
pos = (544,0);
},
{
name = top;
pos = (319,660);
}
);
layerId = "A593077A-0A46-47E3-817B-5940F86DDEB8";
shapes = (
{
closed = 1;
nodes = (
(511,660,l),
(106,248,l),
(106,225,l),
(268,389,l),
(270,391,l),
(534,660,l)
);
},
{
closed = 1;
nodes = (
(99,660,l),
(99,0,l),
(115,0,l),
(115,660,l)
);
},
{
closed = 1;
nodes = (
(259,390,l),
(523,0,l),
(544,0,l),
(270,404,l)
);
}
);
width = 557;
},
{
anchors = (
{
name = bottom;
pos = (373,0);
},
{
name = ogonek;
pos = (628,0);
},
{
name = top;
pos = (353,660);
}
);
layerId = "2D95750D-BD9C-4F78-991A-09E4A80A9CCF";
shapes = (
{
closed = 1;
nodes = (
(520,660,l),
(148,279,l),
(148,171,l),
(325,352,l),
(337,365,l),
(625,660,l)
);
},
{
closed = 1;
nodes = (
(108,660,l),
(108,0,l),
(188,0,l),
(188,660,l)
);
},
{
closed = 1;
nodes = (
(279,371,l),
(532,0,l),
(628,0,l),
(345,416,l)
);
}
);
width = 656;
},
{
anchors = (
{
name = bottom;
pos = (356,0);
},
{
name = ogonek;
pos = (721,0);
},
{
name = top;
pos = (359,660);
}
);
layerId = "C6BF4D98-2DC0-4313-8217-C5861B72DC4C";
shapes = (
{
closed = 1;
nodes = (
(455,660,l),
(170,253,l),
(224,92,l),
(369,290,l),
(379,239,l),
(703,660,l)
);
},
{
closed = 1;
nodes = (
(50,660,l),
(50,0,l),
(283,0,l),
(283,660,l)
);
},
{
closed = 1;
nodes = (
(296,330,l),
(460,0,l),
(721,0,l),
(467,459,l)
);
}
);
width = 717;
}
);
metricLeft = H;
unicode = 75;
},
{
glyphname = L;
kernLeft = I;
kernRight = L;
layers = (
{
anchors = (
{
name = bottom;
pos = (362,0);
},
{
name = center;
pos = (399,354);
},
{
name = ogonek;
pos = (566,0);
},
{
name = top;
pos = (148,660);
},
{
name = topright;
pos = (330,660);
}
);
layerId = "4A17B37A-CBFD-40E5-9E02-2080A0E1F76C";
shapes = (
{
closed = 1;
nodes = (
(188,660,l),
(108,660,l),
(108,0,l),
(566,0,l),
(566,75,l),
(188,75,l)
);
}
);
width = 598;
},
{
anchors = (
{
name = bottom;
pos = (318,0);
},
{
name = center;
pos = (377,391);
},
{
name = ogonek;
pos = (582,0);
},
{
name = top;
pos = (166,660);
},
{
name = topright;
pos = (421,660);
}
);
layerId = "99EB5860-B45A-4B60-BB0B-F826C8F71D42";
shapes = (
{
closed = 1;
nodes = (
(283,660,l),
(50,660,l),
(50,0,l),
(582,0,l),
(582,171,l),
(283,171,l)
);
}
);
width = 605;
},
{
anchors = (
{
name = bottom;
pos = (331,0);
},
{
name = center;
pos = (358,344);
},
{
name = ogonek;
pos = (531,0);
},
{
name = top;
pos = (107,660);
},
{
name = topright;
pos = (321,660);
}
);
layerId = "1C7CD022-87C7-4E11-B656-E47B18819458";
shapes = (
{
closed = 1;
nodes = (
(115,660,l),
(99,660,l),
(99,0,l),
(531,0,l),
(531,14,l),
(115,14,l)
);
}
);
width = 543;
},
{
anchors = (
{
name = bottom;
pos = (331,0);
},
{
name = center;
pos = (358,344);
},
{
name = ogonek;
pos = (531,0);
},
{
name = top;
pos = (107,660);
},
{
name = topright;
pos = (321,660);
}
);
layerId = "A593077A-0A46-47E3-817B-5940F86DDEB8";
shapes = (
{
closed = 1;
nodes = (
(115,660,l),
(99,660,l),
(99,0,l),
(531,0,l),
(531,14,l),
(115,14,l)
);
}
);
width = 543;
},
{
anchors = (
{
name = bottom;
pos = (362,0);
},
{
name = center;
pos = (399,354);
},
{
name = ogonek;
pos = (566,0);
},
{
name = top;
pos = (148,660);
},
{
name = topright;
pos = (330,660);
}
);
layerId = "2D95750D-BD9C-4F78-991A-09E4A80A9CCF";
shapes = (
{
closed = 1;
nodes = (
(188,660,l),
(108,660,l),
(108,0,l),
(566,0,l),
(566,75,l),
(188,75,l)
);
}
);
width = 598;
},
{
anchors = (
{
name = bottom;
pos = (318,0);
},
{
name = center;
pos = (377,391);
},
{
name = ogonek;
pos = (582,0);
},
{
name = top;
pos = (166,660);
},
{
name = topright;
pos = (421,660);
}
);
layerId = "C6BF4D98-2DC0-4313-8217-C5861B72DC4C";
shapes = (
{
closed = 1;
nodes = (
(283,660,l),
(50,660,l),
(50,0,l),
(582,0,l),
(582,171,l),
(283,171,l)
);
}
);
width = 605;
}
);
metricLeft = H;
unicode = 76;
},
{
glyphname = Lslash;
kernLeft = I;
kernRight = L;
layers = (
{
layerId = "4A17B37A-CBFD-40E5-9E02-2080A0E1F76C";
shapes = (
{
closed = 1;
nodes = (
(33,279,l),
(33,196,l),
(395,398,l),
(395,481,l)
);
},
{
pos = (30,0);
ref = L;
}
);
width = 628;
},
{
layerId = "99EB5860-B45A-4B60-BB0B-F826C8F71D42";
shapes = (
{
closed = 1;
nodes = (
(26,299,l),
(26,146,l),
(539,372,l),
(539,525,l)
);
},
{
pos = (90,0);
ref = L;
}
);
width = 695;
},
{
layerId = "1C7CD022-87C7-4E11-B656-E47B18819458";
shapes = (
{
closed = 1;
nodes = (
(9,232,l),
(9,212,l),
(334,419,l),
(334,439,l)
);
},
{
alignment = -1;
pos = (11,0);
ref = L;
}
);
width = 554;
},
{
layerId = "A593077A-0A46-47E3-817B-5940F86DDEB8";
shapes = (
{
closed = 1;
nodes = (
(9,232,l),
(9,212,l),
(334,419,l),
(334,439,l)
);
},
{
alignment = -1;
pos = (11,0);
ref = L;
}
);
width = 554;
},
{
layerId = "2D95750D-BD9C-4F78-991A-09E4A80A9CCF";
shapes = (
{
closed = 1;
nodes = (
(33,279,l),
(33,196,l),
(395,398,l),
(395,481,l)
);
},
{
pos = (30,0);
ref = L;
}
);
width = 628;
},
{
layerId = "C6BF4D98-2DC0-4313-8217-C5861B72DC4C";
shapes = (
{
closed = 1;
nodes = (
(26,299,l),
(26,146,l),
(539,372,l),
(539,525,l)
);
},
{
pos = (90,0);
ref = L;
}
);
width = 695;
}
);
metricRight = L;
unicode = 321;
},
{
glyphname = M;
kernLeft = I;
kernRight = I;
layers = (
{
anchors = (
{
name = bottom;
pos = (427,0);
},
{
name = ogonek;
pos = (746,0);
},
{
name = top;
pos = (427,660);
}
);
layerId = "4A17B37A-CBFD-40E5-9E02-2080A0E1F76C";
shapes = (
{
closed = 1;
nodes = (
(623,660,l),
(479,258,l),
(428,94,l),
(426,94,l),
(376,259,l),
(231,660,l),
(108,660,l),
(108,0,l),
(184,0,l),
(184,415,l),
(175,589,l),
(176,589,l),
(393,0,l),
(461,0,l),
(678,589,l),
(679,589,l),
(670,415,l),
(670,0,l),
(746,0,l),
(746,660,l)
);
}
);
width = 854;
},
{
anchors = (
{
name = bottom;
pos = (474,0);
},
{
name = ogonek;
pos = (898,0);
},
{
name = top;
pos = (474,660);
}
);
layerId = "99EB5860-B45A-4B60-BB0B-F826C8F71D42";
metricLeft = "=I";
metricRight = "=I";
shapes = (
{
closed = 1;
nodes = (
(588,660,l),
(512,367,l),
(483,244,l),
(481,244,l),
(452,367,l),
(376,660,l),
(50,660,l),
(50,0,l),
(254,0,l),
(254,229,l),
(251,451,l),
(255,451,l),
(381,0,l),
(567,0,l),
(695,451,l),
(698,451,l),
(695,229,l),
(695,0,l),
(898,0,l),
(898,660,l)
);
}
);
width = 948;
},
{
anchors = (
{
name = bottom;
pos = (393,0);
},
{
name = ogonek;
pos = (687,0);
},
{
name = top;
pos = (393,660);
}
);
layerId = "1C7CD022-87C7-4E11-B656-E47B18819458";
shapes = (
{
closed = 1;
nodes = (
(666,660,l),
(405,47,l),
(393,19,l),
(393,19,l),
(381,48,l),
(120,660,l),
(99,660,l),
(99,0,l),
(115,0,l),
(115,580,l),
(114,637,l),
(114,637,l),
(383,0,l),
(403,0,l),
(672,637,l),
(672,637,l),
(671,580,l),
(671,0,l),
(687,0,l),
(687,660,l)
);
}
);
width = 786;
},
{
anchors = (
{
name = bottom;
pos = (393,0);
},
{
name = ogonek;
pos = (687,0);
},
{
name = top;
pos = (393,660);
}
);
layerId = "A593077A-0A46-47E3-817B-5940F86DDEB8";
shapes = (
{
closed = 1;
nodes = (
(666,660,l),
(405,47,l),
(393,19,l),
(393,19,l),
(381,48,l),
(120,660,l),
(99,660,l),
(99,0,l),
(115,0,l),
(115,580,l),
(114,637,l),
(114,637,l),
(383,0,l),
(403,0,l),
(672,637,l),
(672,637,l),
(671,580,l),
(671,0,l),
(687,0,l),
(687,660,l)
);
}
);
width = 786;
},
{
anchors = (
{
name = bottom;
pos = (427,0);
},
{
name = ogonek;
pos = (746,0);
},
{
name = top;
pos = (427,660);
}
);
layerId = "2D95750D-BD9C-4F78-991A-09E4A80A9CCF";
shapes = (
{
closed = 1;
nodes = (
(623,660,l),
(479,258,l),
(428,94,l),
(426,94,l),
(376,259,l),
(231,660,l),
(108,660,l),
(108,0,l),
(184,0,l),
(184,415,l),
(175,589,l),
(176,589,l),
(393,0,l),
(461,0,l),
(678,589,l),
(679,589,l),
(670,415,l),
(670,0,l),
(746,0,l),
(746,660,l)
);
}
);
width = 854;
},
{
anchors = (
{
name = bottom;
pos = (474,0);
},
{
name = ogonek;
pos = (898,0);
},
{
name = top;
pos = (474,660);
}
);
layerId = "C6BF4D98-2DC0-4313-8217-C5861B72DC4C";
metricLeft = "=I";
metricRight = "=I";
shapes = (
{
closed = 1;
nodes = (
(588,660,l),
(512,367,l),
(483,244,l),
(481,244,l),
(452,367,l),
(376,660,l),
(50,660,l),
(50,0,l),
(254,0,l),
(254,229,l),
(251,451,l),
(255,451,l),
(381,0,l),
(567,0,l),
(695,451,l),
(698,451,l),
(695,229,l),
(695,0,l),
(898,0,l),
(898,660,l)
);
}
);
width = 948;
}
);
metricLeft = H;
metricRight = H;
unicode = 77;
},
{
glyphname = N;
kernLeft = I;
kernRight = I;
layers = (
{
anchors = (
{
name = bottom;
pos = (397,0);
},
{
name = ogonek;
pos = (626,0);
},
{
name = top;
pos = (371,660);
}
);
layerId = "4A17B37A-CBFD-40E5-9E02-2080A0E1F76C";
shapes = (
{
closed = 1;
nodes = (
(550,660,l),
(550,194,l),
(554,93,l),
(553,93,l),
(482,220,l),
(207,660,l),
(108,660,l),
(108,0,l),
(184,0,l),
(184,466,l),
(180,566,l),
(181,566,l),
(251,442,l),
(527,0,l),
(626,0,l),
(626,660,l)
);
}
);
width = 734;
},
{
anchors = (
{
name = bottom;
pos = (374,0);
},
{
name = ogonek;
pos = (696,0);
},
{
name = top;
pos = (373,660);
}
);
layerId = "99EB5860-B45A-4B60-BB0B-F826C8F71D42";
shapes = (
{
closed = 1;
nodes = (
(494,660,l),
(494,415,l),
(498,279,l),
(496,279,l),
(460,359,l),
(302,660,l),
(50,660,l),
(50,0,l),
(252,0,l),
(252,245,l),
(248,381,l),
(250,381,l),
(286,300,l),
(444,0,l),
(696,0,l),
(696,660,l)
);
}
);
width = 746;
},
{
anchors = (
{
name = bottom;
pos = (347,0);
},
{
name = ogonek;
pos = (595,0);
},
{
name = top;
pos = (353,660);
}
);
layerId = "1C7CD022-87C7-4E11-B656-E47B18819458";
shapes = (
{
closed = 1;
nodes = (
(579,660,l),
(579,73,l),
(580,16,l),
(580,16,l),
(554,55,l),
(121,660,l),
(99,660,l),
(99,0,l),
(115,0,l),
(115,587,l),
(114,644,l),
(114,644,l),
(140,605,l),
(573,0,l),
(595,0,l),
(595,660,l)
);
}
);
width = 694;
},
{
anchors = (
{
name = bottom;
pos = (347,0);
},
{
name = ogonek;
pos = (595,0);
},
{
name = top;
pos = (353,660);
}
);
layerId = "A593077A-0A46-47E3-817B-5940F86DDEB8";
shapes = (
{
closed = 1;
nodes = (
(579,660,l),
(579,73,l),
(580,16,l),
(580,16,l),
(554,55,l),
(121,660,l),
(99,660,l),
(99,0,l),
(115,0,l),
(115,587,l),
(114,644,l),
(114,644,l),
(140,605,l),
(573,0,l),
(595,0,l),
(595,660,l)
);
}
);
width = 694;
},
{
anchors = (
{
name = bottom;
pos = (397,0);
},
{
name = ogonek;
pos = (626,0);
},
{
name = top;
pos = (371,660);
}
);
layerId = "2D95750D-BD9C-4F78-991A-09E4A80A9CCF";
shapes = (
{
closed = 1;
nodes = (
(550,660,l),
(550,194,l),
(554,93,l),
(553,93,l),
(482,220,l),
(207,660,l),
(108,660,l),
(108,0,l),
(184,0,l),
(184,466,l),
(180,566,l),
(181,566,l),
(251,442,l),
(527,0,l),
(626,0,l),
(626,660,l)
);
}
);
width = 734;
},
{
anchors = (
{
name = bottom;
pos = (374,0);
},
{
name = ogonek;
pos = (696,0);
},
{
name = top;
pos = (373,660);
}
);
layerId = "C6BF4D98-2DC0-4313-8217-C5861B72DC4C";
shapes = (
{
closed = 1;
nodes = (
(494,660,l),
(494,415,l),
(498,279,l),
(496,279,l),
(460,359,l),
(302,660,l),
(50,660,l),
(50,0,l),
(252,0,l),
(252,245,l),
(248,381,l),
(250,381,l),
(286,300,l),
(444,0,l),
(696,0,l),
(696,660,l)
);
}
);
width = 746;
}
);
metricLeft = H;
metricRight = H;
unicode = 78;
},
{
glyphname = Eng;
kernLeft = I;
kernRight = I;
layers = (
{
hints = (
{
horizontal = 1;
place = (-215, 14);
place = (-215, 14);
type = Stem;
},
{
horizontal = 1;
place = (500, -20);
target = down;
type = TopGhost;
},
{
horizontal = 1;
place = (598, 44);
place = (598, 44);
type = Stem;
},
{
place = (779, 16);
place = (779, 16);
type = Stem;
}
);
layerId = "1C7CD022-87C7-4E11-B656-E47B18819458";
shapes = (
{
closed = 1;
nodes = (
(543,-215,o),
(595,-156,o),
(595,-64,cs),
(595,660,l),
(579,660,l),
(579,27,l),
(579,27,l),
(560,55,l),
(121,660,l),
(99,660,l),
(99,0,l),
(115,0,l),
(115,587,l),
(114,644,l),
(114,644,l),
(140,605,l),
(579,0,l),
(579,-64,ls),
(579,-147,o),
(533,-201,o),
(463,-201,cs),
(439,-201,o),
(413,-194,o),
(397,-179,c),
(392,-193,l),
(408,-207,o),
(435,-215,o),
(463,-215,cs)
);
}
);
width = 694;
},
{
layerId = "4A17B37A-CBFD-40E5-9E02-2080A0E1F76C";
shapes = (
{
closed = 1;
nodes = (
(542,-215,o),
(626,-176,o),
(626,-51,cs),
(626,660,l),
(550,660,l),
(551,140,l),
(550,140,l),
(507,220,l),
(207,660,l),
(108,660,l),
(108,0,l),
(184,0,l),
(184,466,l),
(180,572,l),
(181,572,l),
(251,442,l),
(550,3,l),
(550,-43,ls),
(550,-113,o),
(516,-137,o),
(473,-137,cs),
(438,-137,o),
(410,-123,o),
(391,-106,c),
(374,-182,l),
(397,-201,o),
(433,-215,o),
(474,-215,cs)
);
}
);
width = 734;
},
{
layerId = "99EB5860-B45A-4B60-BB0B-F826C8F71D42";
shapes = (
{
closed = 1;
nodes = (
(633,-215,o),
(696,-155,o),
(696,-13,cs),
(696,660,l),
(494,660,l),
(494,337,l),
(493,337,l),
(444,428,l),
(302,660,l),
(50,660,l),
(50,0,l),
(252,0,l),
(252,245,l),
(248,381,l),
(250,381,l),
(290,312,l),
(494,7,l),
(494,7,l),
(494,-41,o),
(476,-59,o),
(443,-59,cs),
(416,-59,o),
(397,-53,o),
(383,-45,c),
(359,-192,l),
(397,-209,o),
(439,-215,o),
(498,-215,cs)
);
}
);
width = 746;
},
{
hints = (
{
horizontal = 1;
place = (-215, 14);
place = (-215, 14);
type = Stem;
},
{
horizontal = 1;
place = (500, -20);
target = down;
type = TopGhost;
},
{
horizontal = 1;
place = (598, 44);
place = (598, 44);
type = Stem;
},
{
place = (779, 16);
place = (779, 16);
type = Stem;
}
);
layerId = "A593077A-0A46-47E3-817B-5940F86DDEB8";
shapes = (
{
closed = 1;
nodes = (
(543,-215,o),
(595,-156,o),
(595,-64,cs),
(595,660,l),
(579,660,l),
(579,27,l),
(579,27,l),
(560,55,l),
(121,660,l),
(99,660,l),
(99,0,l),
(115,0,l),
(115,587,l),
(114,644,l),
(114,644,l),
(140,605,l),
(579,0,l),
(579,-64,ls),
(579,-147,o),
(533,-201,o),
(463,-201,cs),
(439,-201,o),
(413,-194,o),
(397,-179,c),
(392,-193,l),
(408,-207,o),
(435,-215,o),
(463,-215,cs)
);
}
);
width = 694;
},
{
layerId = "2D95750D-BD9C-4F78-991A-09E4A80A9CCF";
shapes = (
{
closed = 1;
nodes = (
(542,-215,o),
(626,-176,o),
(626,-51,cs),
(626,660,l),
(550,660,l),
(551,140,l),
(550,140,l),
(507,220,l),
(207,660,l),
(108,660,l),
(108,0,l),
(184,0,l),
(184,466,l),
(180,572,l),
(181,572,l),
(251,442,l),
(550,3,l),
(550,-43,ls),
(550,-113,o),
(516,-137,o),
(473,-137,cs),
(438,-137,o),
(410,-123,o),
(391,-106,c),
(374,-182,l),
(397,-201,o),
(433,-215,o),
(474,-215,cs)
);
}
);
width = 734;
},
{
layerId = "C6BF4D98-2DC0-4313-8217-C5861B72DC4C";
shapes = (
{
closed = 1;
nodes = (
(633,-215,o),
(696,-155,o),
(696,-13,cs),
(696,660,l),
(494,660,l),
(494,337,l),
(493,337,l),
(444,428,l),
(302,660,l),
(50,660,l),
(50,0,l),
(252,0,l),
(252,245,l),
(248,381,l),
(250,381,l),
(290,312,l),
(494,7,l),
(494,7,l),
(494,-41,o),
(476,-59,o),
(443,-59,cs),
(416,-59,o),
(397,-53,o),
(383,-45,c),
(359,-192,l),
(397,-209,o),
(439,-215,o),
(498,-215,cs)
);
}
);
width = 746;
}
);
metricLeft = I;
metricRight = I;
unicode = 330;
},
{
glyphname = O;
kernLeft = O;
kernRight = O;
layers = (
{
anchors = (
{
name = bottom;
pos = (374,0);
},
{
name = center;
pos = (374,330);
},
{
name = ogonek;
pos = (479,6);
},
{
name = top;
pos = (374,660);
},
{
name = topleft;
pos = (20,660);
},
{
name = topright;
pos = (548,660);
}
);
layerId = "4A17B37A-CBFD-40E5-9E02-2080A0E1F76C";
shapes = (
{
closed = 1;
nodes = (
(186,670,o),
(68,539,o),
(68,330,cs),
(68,121,o),
(186,-10,o),
(374,-10,cs),
(562,-10,o),
(680,121,o),
(680,330,cs),
(680,539,o),
(562,670,o),
(374,670,cs)
);
},
{
closed = 1;
nodes = (
(511,595,o),
(596,496,o),
(596,330,cs),
(596,164,o),
(511,65,o),
(374,65,cs),
(237,65,o),
(152,164,o),
(152,330,cs),
(152,496,o),
(237,595,o),
(374,595,cs)
);
}
);
width = 748;
},
{
anchors = (
{
name = bottom;
pos = (365,0);
},
{
name = center;
pos = (365,330);
},
{
name = ogonek;
pos = (494,9);
},
{
name = top;
pos = (365,660);
},
{
name = topleft;
pos = (20,660);
},
{
name = topright;
pos = (569,660);
}
);
layerId = "99EB5860-B45A-4B60-BB0B-F826C8F71D42";
shapes = (
{
closed = 1;
nodes = (
(156,670,o),
(29,546,o),
(29,330,cs),
(29,114,o),
(156,-10,o),
(365,-10,cs),
(575,-10,o),
(700,114,o),
(700,330,cs),
(700,546,o),
(575,670,o),
(365,670,cs)
);
},
{
closed = 1;
nodes = (
(433,495,o),
(462,445,o),
(462,330,cs),
(462,215,o),
(433,165,o),
(365,165,cs),
(297,165,o),
(267,215,o),
(267,330,cs),
(267,445,o),
(297,495,o),
(365,495,cs)
);
}
);
width = 729;
},
{
anchors = (
{
name = bottom;
pos = (357,0);
},
{
name = center;
pos = (357,330);
},
{
name = ogonek;
pos = (433,0);
},
{
name = top;
pos = (357,660);
},
{
name = topleft;
pos = (20,660);
},
{
name = topright;
pos = (528,660);
}
);
layerId = "1C7CD022-87C7-4E11-B656-E47B18819458";
shapes = (
{
closed = 1;
nodes = (
(172,670,o),
(56,539,o),
(56,330,cs),
(56,121,o),
(172,-10,o),
(357,-10,cs),
(542,-10,o),
(658,121,o),
(658,330,cs),
(658,539,o),
(542,670,o),
(357,670,cs)
);
},
{
closed = 1;
nodes = (
(532,656,o),
(642,530,o),
(642,330,cs),
(642,130,o),
(532,4,o),
(357,4,cs),
(182,4,o),
(72,130,o),
(72,330,cs),
(72,530,o),
(182,656,o),
(357,656,cs)
);
}
);
width = 714;
},
{
anchors = (
{
name = bottom;
pos = (357,0);
},
{
name = center;
pos = (357,330);
},
{
name = ogonek;
pos = (433,0);
},
{
name = top;
pos = (357,660);
},
{
name = topleft;
pos = (20,660);
},
{
name = topright;
pos = (528,660);
}
);
layerId = "A593077A-0A46-47E3-817B-5940F86DDEB8";
shapes = (
{
closed = 1;
nodes = (
(172,670,o),
(56,539,o),
(56,330,cs),
(56,121,o),
(172,-10,o),
(357,-10,cs),
(542,-10,o),
(658,121,o),
(658,330,cs),
(658,539,o),
(542,670,o),
(357,670,cs)
);
},
{
closed = 1;
nodes = (
(532,656,o),
(642,530,o),
(642,330,cs),
(642,130,o),
(532,330,o),
(357,330,cs),
(182,330,o),
(72,130,o),
(72,330,cs),
(72,530,o),
(182,656,o),
(357,656,cs)
);
}
);
width = 714;
},
{
anchors = (
{
name = bottom;
pos = (374,0);
},
{
name = center;
pos = (374,330);
},
{
name = ogonek;
pos = (479,6);
},
{
name = top;
pos = (374,660);
},
{
name = topleft;
pos = (20,660);
},
{
name = topright;
pos = (548,660);
}
);
layerId = "2D95750D-BD9C-4F78-991A-09E4A80A9CCF";
shapes = (
{
closed = 1;
nodes = (
(186,670,o),
(68,539,o),
(68,330,cs),
(68,121,o),
(186,-10,o),
(374,-10,cs),
(562,-10,o),
(680,121,o),
(680,330,cs),
(680,539,o),
(562,670,o),
(374,670,cs)
);
},
{
closed = 1;
nodes = (
(511,595,o),
(596,496,o),
(596,330,cs),
(596,164,o),
(511,330,o),
(374,330,cs),
(237,330,o),
(152,164,o),
(152,330,cs),
(152,496,o),
(237,595,o),
(374,595,cs)
);
}
);
width = 748;
},
{
anchors = (
{
name = bottom;
pos = (365,0);
},
{
name = center;
pos = (365,330);
},
{
name = ogonek;
pos = (494,9);
},
{
name = top;
pos = (365,660);
},
{
name = topleft;
pos = (20,660);
},
{
name = topright;
pos = (569,660);
}
);
layerId = "C6BF4D98-2DC0-4313-8217-C5861B72DC4C";
shapes = (
{
closed = 1;
nodes = (
(156,670,o),
(29,546,o),
(29,330,cs),
(29,114,o),
(156,-10,o),
(365,-10,cs),
(575,-10,o),
(700,114,o),
(700,330,cs),
(700,546,o),
(575,670,o),
(365,670,cs)
);
},
{
closed = 1;
nodes = (
(433,495,o),
(462,445,o),
(462,330,cs),
(462,215,o),
(433,330,o),
(365,330,cs),
(297,330,o),
(267,215,o),
(267,330,cs),
(267,445,o),
(297,495,o),
(365,495,cs)
);
}
);
width = 729;
}
);
unicode = 79;
},
{
glyphname = Oslash;
kernLeft = O;
kernRight = O;
layers = (
{
layerId = "1C7CD022-87C7-4E11-B656-E47B18819458";
shapes = (
{
closed = 1;
nodes = (
(555,590,l),
(542,599,l),
(160,71,l),
(170,59,l)
);
},
{
closed = 1;
nodes = (
(106,-30,l),
(170,59,l),
(160,71,l),
(86,-30,l)
);
},
{
closed = 1;
nodes = (
(628,690,l),
(608,690,l),
(542,599,l),
(555,590,l)
);
},
{
alignment = -1;
ref = O;
}
);
width = 714;
},
{
layerId = "4A17B37A-CBFD-40E5-9E02-2080A0E1F76C";
shapes = (
{
closed = 1;
nodes = (
(564,544,l),
(518,580,l),
(183,100,l),
(229,63,l)
);
},
{
closed = 1;
nodes = (
(159,-37,l),
(229,63,l),
(183,100,l),
(88,-37,l)
);
},
{
closed = 1;
nodes = (
(661,683,l),
(590,683,l),
(518,580,l),
(564,544,l)
);
},
{
ref = O;
}
);
width = 748;
},
{
layerId = "99EB5860-B45A-4B60-BB0B-F826C8F71D42";
shapes = (
{
closed = 1;
nodes = (
(495,447,l),
(441,486,l),
(217,190,l),
(268,147,l)
);
},
{
closed = 1;
nodes = (
(130,-21,l),
(245,116,l),
(188,159,l),
(45,-21,l)
);
},
{
closed = 1;
nodes = (
(684,680,l),
(599,680,l),
(480,538,l),
(537,495,l)
);
},
{
ref = O;
}
);
width = 729;
},
{
layerId = "A593077A-0A46-47E3-817B-5940F86DDEB8";
shapes = (
{
closed = 1;
nodes = (
(555,590,l),
(542,599,l),
(160,71,l),
(170,59,l)
);
},
{
closed = 1;
nodes = (
(106,-30,l),
(170,59,l),
(160,71,l),
(86,-30,l)
);
},
{
closed = 1;
nodes = (
(628,690,l),
(608,690,l),
(542,599,l),
(555,590,l)
);
},
{
alignment = -1;
ref = O;
}
);
width = 714;
},
{
layerId = "2D95750D-BD9C-4F78-991A-09E4A80A9CCF";
shapes = (
{
closed = 1;
nodes = (
(564,544,l),
(518,580,l),
(183,100,l),
(229,63,l)
);
},
{
closed = 1;
nodes = (
(159,-37,l),
(229,63,l),
(183,100,l),
(88,-37,l)
);
},
{
closed = 1;
nodes = (
(661,683,l),
(590,683,l),
(518,580,l),
(564,544,l)
);
},
{
ref = O;
}
);
width = 748;
},
{
layerId = "C6BF4D98-2DC0-4313-8217-C5861B72DC4C";
shapes = (
{
closed = 1;
nodes = (
(495,447,l),
(441,486,l),
(217,190,l),
(268,147,l)
);
},
{
closed = 1;
nodes = (
(130,-21,l),
(245,116,l),
(188,159,l),
(45,-21,l)
);
},
{
closed = 1;
nodes = (
(684,680,l),
(599,680,l),
(480,538,l),
(537,495,l)
);
},
{
ref = O;
}
);
width = 729;
}
);
metricLeft = O;
metricRight = O;
unicode = 216;
},
{
glyphname = OE;
kernLeft = O;
kernRight = E;
layers = (
{
anchors = (
{
name = bottom;
pos = (595,0);
},
{
name = ogonek;
pos = (1028,0);
},
{
name = top;
pos = (595,660);
}
);
layerId = "4A17B37A-CBFD-40E5-9E02-2080A0E1F76C";
shapes = (
{
closed = 1;
nodes = (
(659,297,l),
(928,297,l),
(928,372,l),
(659,372,l),
(659,585,l),
(1013,585,l),
(1013,660,l),
(586,660,l),
(586,563,l),
(538,632,o),
(465,670,o),
(376,670,cs),
(182,670,o),
(68,539,o),
(68,330,cs),
(68,121,o),
(184,-10,o),
(372,-10,cs),
(462,-10,o),
(537,29,o),
(586,99,c),
(586,0,l),
(1028,0,l),
(1028,75,l),
(659,75,l)
);
},
{
closed = 1;
nodes = (
(233,65,o),
(152,164,o),
(152,330,cs),
(152,496,o),
(233,595,o),
(376,595,cs),
(501,595,o),
(586,496,o),
(586,330,cs),
(586,164,o),
(501,65,o),
(376,65,cs)
);
}
);
width = 1080;
},
{
anchors = (
{
name = bottom;
pos = (565,0);
},
{
name = ogonek;
pos = (1011,0);
},
{
name = top;
pos = (565,660);
}
);
layerId = "99EB5860-B45A-4B60-BB0B-F826C8F71D42";
shapes = (
{
closed = 1;
nodes = (
(685,249,l),
(938,249,l),
(938,407,l),
(685,407,l),
(685,489,l),
(999,489,l),
(999,660,l),
(542,660,l),
(542,594,l),
(494,641,o),
(428,670,o),
(342,670,cs),
(152,670,o),
(29,546,o),
(29,330,cs),
(29,114,o),
(152,-10,o),
(342,-10,cs),
(428,-10,o),
(494,19,o),
(542,66,c),
(542,0,l),
(1011,0,l),
(1011,171,l),
(685,171,l)
);
},
{
closed = 1;
nodes = (
(291,165,o),
(262,215,o),
(262,330,cs),
(262,445,o),
(291,495,o),
(355,495,cs),
(423,495,o),
(452,445,o),
(452,330,cs),
(452,215,o),
(423,165,o),
(355,165,cs)
);
}
);
width = 1027;
},
{
anchors = (
{
name = bottom;
pos = (571,0);
},
{
name = ogonek;
pos = (1020,0);
},
{
name = top;
pos = (571,660);
}
);
layerId = "1C7CD022-87C7-4E11-B656-E47B18819458";
shapes = (
{
closed = 1;
nodes = (
(608,330,l),
(931,330,l),
(931,344,l),
(608,344,l),
(608,646,l),
(1003,646,l),
(1003,660,l),
(592,660,l),
(592,473,l),
(562,605,o),
(480,670,o),
(337,670,cs),
(167,670,o),
(56,539,o),
(56,330,cs),
(56,121,o),
(167,-10,o),
(337,-10,cs),
(480,-10,o),
(562,55,o),
(592,187,c),
(592,0,l),
(1020,0,l),
(1020,14,l),
(608,14,l)
);
},
{
closed = 1;
nodes = (
(177,4,o),
(72,130,o),
(72,330,cs),
(72,530,o),
(177,656,o),
(337,656,cs),
(517,656,o),
(592,550,o),
(592,330,cs),
(592,110,o),
(517,4,o),
(337,4,cs)
);
}
);
width = 1050;
},
{
anchors = (
{
name = bottom;
pos = (571,0);
},
{
name = ogonek;
pos = (1020,0);
},
{
name = top;
pos = (571,660);
}
);
layerId = "A593077A-0A46-47E3-817B-5940F86DDEB8";
shapes = (
{
closed = 1;
nodes = (
(608,330,l),
(931,330,l),
(931,344,l),
(608,344,l),
(608,646,l),
(1003,646,l),
(1003,660,l),
(592,660,l),
(592,473,l),
(562,605,o),
(480,670,o),
(337,670,cs),
(167,670,o),
(56,539,o),
(56,330,cs),
(56,121,o),
(167,-10,o),
(337,-10,cs),
(480,-10,o),
(562,55,o),
(592,187,c),
(592,0,l),
(1020,0,l),
(1020,14,l),
(608,14,l)
);
},
{
closed = 1;
nodes = (
(177,330,o),
(72,130,o),
(72,330,cs),
(72,530,o),
(177,656,o),
(337,656,cs),
(517,656,o),
(592,550,o),
(592,330,cs),
(592,110,o),
(517,330,o),
(337,330,cs)
);
}
);
width = 1050;
},
{
anchors = (
{
name = bottom;
pos = (595,0);
},
{
name = ogonek;
pos = (1028,0);
},
{
name = top;
pos = (595,660);
}
);
layerId = "2D95750D-BD9C-4F78-991A-09E4A80A9CCF";
shapes = (
{
closed = 1;
nodes = (
(659,297,l),
(928,297,l),
(928,372,l),
(659,372,l),
(659,585,l),
(1013,585,l),
(1013,660,l),
(586,660,l),
(586,563,l),
(538,632,o),
(465,670,o),
(376,670,cs),
(182,670,o),
(68,539,o),
(68,330,cs),
(68,121,o),
(184,-10,o),
(372,-10,cs),
(462,-10,o),
(537,29,o),
(586,99,c),
(586,0,l),
(1028,0,l),
(1028,75,l),
(659,75,l)
);
},
{
closed = 1;
nodes = (
(233,330,o),
(152,164,o),
(152,330,cs),
(152,496,o),
(233,595,o),
(376,595,cs),
(501,595,o),
(586,496,o),
(586,330,cs),
(586,164,o),
(501,330,o),
(376,330,cs)
);
}
);
width = 1080;
},
{
anchors = (
{
name = bottom;
pos = (565,0);
},
{
name = ogonek;
pos = (1011,0);
},
{
name = top;
pos = (565,660);
}
);
layerId = "C6BF4D98-2DC0-4313-8217-C5861B72DC4C";
shapes = (
{
closed = 1;
nodes = (
(685,249,l),
(938,249,l),
(938,407,l),
(685,407,l),
(685,489,l),
(999,489,l),
(999,660,l),
(542,660,l),
(542,594,l),
(494,641,o),
(428,670,o),
(342,670,cs),
(152,670,o),
(29,546,o),
(29,330,cs),
(29,114,o),
(152,-10,o),
(342,-10,cs),
(428,-10,o),
(494,19,o),
(542,66,c),
(542,0,l),
(1011,0,l),
(1011,171,l),
(685,171,l)
);
},
{
closed = 1;
nodes = (
(291,330,o),
(262,215,o),
(262,330,cs),
(262,445,o),
(291,495,o),
(355,495,cs),
(423,495,o),
(452,445,o),
(452,330,cs),
(452,215,o),
(423,330,o),
(355,330,cs)
);
}
);
width = 1027;
}
);
metricLeft = O;
metricRight = E;
unicode = 338;
},
{
glyphname = P;
kernLeft = I;
layers = (
{
anchors = (
{
name = bottom;
pos = (148,0);
},
{
name = ogonek;
pos = (188,0);
},
{
name = top;
pos = (315,660);
}
);
layerId = "4A17B37A-CBFD-40E5-9E02-2080A0E1F76C";
shapes = (
{
closed = 1;
nodes = (
(108,660,l),
(108,0,l),
(188,0,l),
(188,258,l),
(341,258,ls),
(474,258,o),
(563,335,o),
(563,459,cs),
(563,583,o),
(474,660,o),
(341,660,cs)
);
},
{
closed = 1;
nodes = (
(188,333,l),
(188,585,l),
(329,585,ls),
(433,585,o),
(479,541,o),
(479,459,cs),
(479,377,o),
(433,333,o),
(329,333,cs)
);
}
);
width = 610;
},
{
anchors = (
{
name = bottom;
pos = (167,0);
},
{
name = ogonek;
pos = (283,0);
},
{
name = top;
pos = (337,660);
}
);
layerId = "99EB5860-B45A-4B60-BB0B-F826C8F71D42";
shapes = (
{
closed = 1;
nodes = (
(50,660,l),
(50,0,l),
(283,0,l),
(283,194,l),
(400,194,ls),
(578,194,o),
(677,277,o),
(677,427,cs),
(677,577,o),
(578,660,o),
(400,660,cs)
);
},
{
closed = 1;
nodes = (
(283,359,l),
(283,495,l),
(362,495,ls),
(413,495,o),
(444,474,o),
(444,427,cs),
(444,380,o),
(413,359,o),
(362,359,cs)
);
}
);
width = 706;
},
{
anchors = (
{
name = bottom;
pos = (107,0);
},
{
name = ogonek;
pos = (115,0);
},
{
name = top;
pos = (274,660);
}
);
layerId = "1C7CD022-87C7-4E11-B656-E47B18819458";
shapes = (
{
closed = 1;
nodes = (
(99,660,l),
(99,0,l),
(115,0,l),
(115,291,l),
(303,291,ls),
(444,291,o),
(528,359,o),
(528,475,cs),
(528,591,o),
(444,660,o),
(303,660,cs)
);
},
{
closed = 1;
nodes = (
(115,305,l),
(115,646,l),
(303,646,ls),
(434,646,o),
(512,582,o),
(512,475,cs),
(512,368,o),
(434,305,o),
(303,305,cs)
);
}
);
width = 561;
},
{
anchors = (
{
name = bottom;
pos = (107,0);
},
{
name = ogonek;
pos = (115,0);
},
{
name = top;
pos = (274,660);
}
);
layerId = "A593077A-0A46-47E3-817B-5940F86DDEB8";
shapes = (
{
closed = 1;
nodes = (
(99,660,l),
(99,0,l),
(115,0,l),
(115,291,l),
(303,291,ls),
(444,291,o),
(528,359,o),
(528,475,cs),
(528,591,o),
(444,660,o),
(303,660,cs)
);
},
{
closed = 1;
nodes = (
(115,305,l),
(115,646,l),
(303,646,ls),
(434,646,o),
(512,582,o),
(512,475,cs),
(512,368,o),
(434,305,o),
(303,305,cs)
);
}
);
width = 561;
},
{
anchors = (
{
name = bottom;
pos = (148,0);
},
{
name = ogonek;
pos = (188,0);
},
{
name = top;
pos = (315,660);
}
);
layerId = "2D95750D-BD9C-4F78-991A-09E4A80A9CCF";
shapes = (
{
closed = 1;
nodes = (
(108,660,l),
(108,0,l),
(188,0,l),
(188,258,l),
(341,258,ls),
(474,258,o),
(563,335,o),
(563,459,cs),
(563,583,o),
(474,660,o),
(341,660,cs)
);
},
{
closed = 1;
nodes = (
(188,333,l),
(188,585,l),
(329,585,ls),
(433,585,o),
(479,541,o),
(479,459,cs),
(479,377,o),
(433,333,o),
(329,333,cs)
);
}
);
width = 610;
},
{
anchors = (
{
name = bottom;
pos = (167,0);
},
{
name = ogonek;
pos = (283,0);
},
{
name = top;
pos = (337,660);
}
);
layerId = "C6BF4D98-2DC0-4313-8217-C5861B72DC4C";
shapes = (
{
closed = 1;
nodes = (
(50,660,l),
(50,0,l),
(283,0,l),
(283,194,l),
(400,194,ls),
(578,194,o),
(677,277,o),
(677,427,cs),
(677,577,o),
(578,660,o),
(400,660,cs)
);
},
{
closed = 1;
nodes = (
(283,359,l),
(283,495,l),
(362,495,ls),
(413,495,o),
(444,474,o),
(444,427,cs),
(444,380,o),
(413,359,o),
(362,359,cs)
);
}
);
width = 706;
}
);
metricLeft = H;
unicode = 80;
},
{
glyphname = Thorn;
kernLeft = I;
layers = (
{
anchors = (
{
name = bottom;
pos = (148,0);
},
{
name = ogonek;
pos = (188,0);
},
{
name = top;
pos = (148,660);
}
);
layerId = "4A17B37A-CBFD-40E5-9E02-2080A0E1F76C";
shapes = (
{
closed = 1;
nodes = (
(148,542,l),
(148,467,l),
(335,467,ls),
(439,467,o),
(489,425,o),
(489,337,cs),
(489,249,o),
(439,207,o),
(335,207,cs),
(148,207,l),
(148,132,l),
(327,132,ls),
(491,132,o),
(573,206,o),
(573,337,cs),
(573,469,o),
(491,542,o),
(327,542,cs)
);
},
{
closed = 1;
nodes = (
(108,660,l),
(108,0,l),
(188,0,l),
(188,660,l)
);
}
);
width = 627;
},
{
anchors = (
{
name = bottom;
pos = (167,0);
},
{
name = ogonek;
pos = (283,0);
},
{
name = top;
pos = (167,660);
}
);
layerId = "99EB5860-B45A-4B60-BB0B-F826C8F71D42";
metricLeft = "=I";
shapes = (
{
closed = 1;
nodes = (
(166,571,l),
(166,406,l),
(368,406,ls),
(415,406,o),
(444,386,o),
(444,339,cs),
(444,289,o),
(417,267,o),
(368,267,cs),
(166,267,l),
(166,103,l),
(406,103,ls),
(577,103,o),
(677,182,o),
(677,337,cs),
(677,492,o),
(577,571,o),
(406,571,cs)
);
},
{
closed = 1;
nodes = (
(50,660,l),
(50,0,l),
(283,0,l),
(283,660,l)
);
}
);
width = 706;
},
{
anchors = (
{
name = bottom;
pos = (107,0);
},
{
name = ogonek;
pos = (115,0);
},
{
name = top;
pos = (107,660);
}
);
layerId = "1C7CD022-87C7-4E11-B656-E47B18819458";
shapes = (
{
closed = 1;
nodes = (
(108,525,l),
(108,511,l),
(303,511,ls),
(441,511,o),
(511,453,o),
(511,340,cs),
(511,227,o),
(441,169,o),
(303,169,cs),
(108,169,l),
(108,155,l),
(294,155,ls),
(448,155,o),
(527,218,o),
(527,340,cs),
(527,462,o),
(448,525,o),
(294,525,cs)
);
},
{
closed = 1;
nodes = (
(99,660,l),
(99,0,l),
(115,0,l),
(115,660,l)
);
}
);
width = 567;
},
{
anchors = (
{
name = bottom;
pos = (107,0);
},
{
name = ogonek;
pos = (115,0);
},
{
name = top;
pos = (107,660);
}
);
layerId = "A593077A-0A46-47E3-817B-5940F86DDEB8";
shapes = (
{
closed = 1;
nodes = (
(108,525,l),
(108,511,l),
(303,511,ls),
(441,511,o),
(511,453,o),
(511,340,cs),
(511,227,o),
(441,169,o),
(303,169,cs),
(108,169,l),
(108,155,l),
(294,155,ls),
(448,155,o),
(527,218,o),
(527,340,cs),
(527,462,o),
(448,525,o),
(294,525,cs)
);
},
{
closed = 1;
nodes = (
(99,660,l),
(99,0,l),
(115,0,l),
(115,660,l)
);
}
);
width = 567;
},
{
anchors = (
{
name = bottom;
pos = (148,0);
},
{
name = ogonek;
pos = (188,0);
},
{
name = top;
pos = (148,660);
}
);
layerId = "2D95750D-BD9C-4F78-991A-09E4A80A9CCF";
shapes = (
{
closed = 1;
nodes = (
(148,542,l),
(148,467,l),
(335,467,ls),
(439,467,o),
(489,425,o),
(489,337,cs),
(489,249,o),
(439,207,o),
(335,207,cs),
(148,207,l),
(148,132,l),
(327,132,ls),
(491,132,o),
(573,206,o),
(573,337,cs),
(573,469,o),
(491,542,o),
(327,542,cs)
);
},
{
closed = 1;
nodes = (
(108,660,l),
(108,0,l),
(188,0,l),
(188,660,l)
);
}
);
width = 627;
},
{
anchors = (
{
name = bottom;
pos = (167,0);
},
{
name = ogonek;
pos = (283,0);
},
{
name = top;
pos = (167,660);
}
);
layerId = "C6BF4D98-2DC0-4313-8217-C5861B72DC4C";
metricLeft = "=I";
shapes = (
{
closed = 1;
nodes = (
(166,571,l),
(166,406,l),
(368,406,ls),
(415,406,o),
(444,386,o),
(444,339,cs),
(444,289,o),
(417,267,o),
(368,267,cs),
(166,267,l),
(166,103,l),
(406,103,ls),
(577,103,o),
(677,182,o),
(677,337,cs),
(677,492,o),
(577,571,o),
(406,571,cs)
);
},
{
closed = 1;
nodes = (
(50,660,l),
(50,0,l),
(283,0,l),
(283,660,l)
);
}
);
width = 706;
}
);
metricLeft = H;
unicode = 222;
},
{
glyphname = Q;
kernLeft = O;
kernRight = O;
layers = (
{
anchors = (
{
name = bottom;
pos = (374,-210);
},
{
name = ogonek;
pos = (575,-190);
},
{
name = top;
pos = (374,660);
}
);
hints = (
{
horizontal = 1;
origin = (0,19);
target = (0,6);
type = Stem;
}
);
layerId = "4A17B37A-CBFD-40E5-9E02-2080A0E1F76C";
shapes = (
{
closed = 1;
nodes = (
(583,-195,o),
(648,-179,o),
(680,-151,c),
(654,-77,l),
(629,-100,o),
(585,-114,o),
(536,-114,cs),
(467,-114,o),
(407,-95,o),
(407,18,cs),
(407,29,o),
(408,40,o),
(409,53,c),
(338,55,l),
(337,41,o),
(336,27,o),
(336,15,cs),
(336,-146,o),
(432,-195,o),
(534,-195,cs)
);
},
{
ref = O;
}
);
width = 748;
},
{
anchors = (
{
name = bottom;
pos = (365,-210);
},
{
name = ogonek;
pos = (572,-202);
},
{
name = top;
pos = (365,660);
}
);
guides = (
{
angle = 90;
pos = (692,57);
}
);
hints = (
{
horizontal = 1;
place = (-210, 170);
place = (-210, 170);
type = Stem;
}
);
layerId = "99EB5860-B45A-4B60-BB0B-F826C8F71D42";
metricLeft = "=O";
metricRight = "=O";
shapes = (
{
closed = 1;
nodes = (
(593,-209,o),
(650,-195,o),
(686,-169,c),
(661,-20,l),
(634,-40,o),
(600,-53,o),
(538,-53,cs),
(471,-53,o),
(423,-31,o),
(423,25,cs),
(423,50,o),
(433,83,o),
(456,123,c),
(336,84,l),
(311,45,o),
(299,5,o),
(299,-32,cs),
(299,-130,o),
(384,-209,o),
(537,-209,cs)
);
},
{
ref = O;
}
);
width = 729;
},
{
anchors = (
{
name = bottom;
pos = (357,-210);
},
{
name = ogonek;
pos = (577,-191);
},
{
name = top;
pos = (357,660);
}
);
hints = (
{
horizontal = 1;
origin = (0,19);
target = (0,6);
type = Stem;
}
);
layerId = "1C7CD022-87C7-4E11-B656-E47B18819458";
shapes = (
{
closed = 1;
nodes = (
(585,-195,o),
(622,-182,o),
(648,-157,c),
(640,-144,l),
(614,-171,o),
(575,-181,o),
(536,-181,cs),
(441,-181,o),
(370,-115,o),
(370,-4,cs),
(370,-2,o),
(370,-1,o),
(370,1,c),
(356,1,l),
(356,-1,o),
(356,-2,o),
(356,-4,cs),
(356,-121,o),
(434,-195,o),
(536,-195,cs)
);
},
{
alignment = -1;
ref = O;
}
);
width = 714;
},
{
anchors = (
{
name = bottom;
pos = (357,-210);
},
{
name = ogonek;
pos = (577,-191);
},
{
name = top;
pos = (357,660);
}
);
hints = (
{
horizontal = 1;
origin = (0,19);
target = (0,6);
type = Stem;
}
);
layerId = "A593077A-0A46-47E3-817B-5940F86DDEB8";
shapes = (
{
closed = 1;
nodes = (
(585,-195,o),
(622,-182,o),
(648,-157,c),
(640,-144,l),
(614,-171,o),
(575,-181,o),
(536,-181,cs),
(441,-181,o),
(370,-115,o),
(370,-4,cs),
(370,-2,o),
(370,-1,o),
(370,1,c),
(356,1,l),
(356,-1,o),
(356,-2,o),
(356,-4,cs),
(356,-121,o),
(434,-195,o),
(536,-195,cs)
);
},
{
alignment = -1;
ref = O;
}
);
width = 714;
},
{
anchors = (
{
name = bottom;
pos = (374,-210);
},
{
name = ogonek;
pos = (575,-190);
},
{
name = top;
pos = (374,660);
}
);
hints = (
{
horizontal = 1;
origin = (0,19);
target = (0,6);
type = Stem;
}
);
layerId = "2D95750D-BD9C-4F78-991A-09E4A80A9CCF";
shapes = (
{
closed = 1;
nodes = (
(583,-195,o),
(648,-179,o),
(680,-151,c),
(654,-77,l),
(629,-100,o),
(585,-114,o),
(536,-114,cs),
(467,-114,o),
(407,-95,o),
(407,18,cs),
(407,29,o),
(408,40,o),
(409,53,c),
(338,55,l),
(337,41,o),
(336,27,o),
(336,15,cs),
(336,-146,o),
(432,-195,o),
(534,-195,cs)
);
},
{
ref = O;
}
);
width = 748;
},
{
anchors = (
{
name = bottom;
pos = (365,-210);
},
{
name = ogonek;
pos = (572,-202);
},
{
name = top;
pos = (365,660);
}
);
guides = (
{
angle = 90;
pos = (692,57);
}
);
hints = (
{
horizontal = 1;
place = (-210, 170);
place = (-210, 170);
type = Stem;
}
);
layerId = "C6BF4D98-2DC0-4313-8217-C5861B72DC4C";
metricLeft = "=O";
metricRight = "=O";
shapes = (
{
closed = 1;
nodes = (
(593,-209,o),
(650,-195,o),
(686,-169,c),
(661,-20,l),
(634,-40,o),
(600,-53,o),
(538,-53,cs),
(471,-53,o),
(423,-31,o),
(423,25,cs),
(423,50,o),
(433,83,o),
(456,123,c),
(336,84,l),
(311,45,o),
(299,5,o),
(299,-32,cs),
(299,-130,o),
(384,-209,o),
(537,-209,cs)
);
},
{
ref = O;
}
);
width = 729;
}
);
metricLeft = O;
metricWidth = O;
unicode = 81;
},
{
glyphname = R;
kernLeft = I;
kernRight = R;
layers = (
{
anchors = (
{
name = bottom;
pos = (365,0);
},
{
name = ogonek;
pos = (621,0);
},
{
name = top;
pos = (322,660);
}
);
layerId = "4A17B37A-CBFD-40E5-9E02-2080A0E1F76C";
shapes = (
{
closed = 1;
nodes = (
(108,660,l),
(108,0,l),
(188,0,l),
(188,274,l),
(350,274,l),
(357,279,l),
(491,279,o),
(581,348,o),
(581,467,cs),
(581,586,o),
(492,660,o),
(358,660,cs)
);
},
{
closed = 1;
nodes = (
(188,349,l),
(188,585,l),
(357,585,ls),
(451,585,o),
(497,546,o),
(497,467,cs),
(497,388,o),
(451,349,o),
(357,349,cs)
);
},
{
closed = 1;
nodes = (
(336,289,l),
(526,0,l),
(621,0,l),
(403,333,l)
);
}
);
width = 665;
},
{
anchors = (
{
name = bottom;
pos = (362,0);
},
{
name = ogonek;
pos = (712,0);
},
{
name = top;
pos = (334,660);
}
);
layerId = "99EB5860-B45A-4B60-BB0B-F826C8F71D42";
shapes = (
{
closed = 1;
nodes = (
(50,660,l),
(50,0,l),
(278,0,l),
(278,219,l),
(388,219,l),
(411,231,l),
(583,231,o),
(675,304,o),
(675,450,cs),
(675,577,o),
(580,660,o),
(408,660,cs)
);
},
{
closed = 1;
nodes = (
(278,372,l),
(278,494,l),
(368,494,ls),
(417,494,o),
(442,477,o),
(442,433,cs),
(442,388,o),
(417,372,o),
(368,372,cs)
);
},
{
closed = 1;
nodes = (
(305,289,l),
(459,0,l),
(712,0,l),
(506,323,l)
);
}
);
width = 705;
},
{
anchors = (
{
name = bottom;
pos = (346,0);
},
{
name = ogonek;
pos = (576,0);
},
{
name = top;
pos = (293,660);
}
);
layerId = "1C7CD022-87C7-4E11-B656-E47B18819458";
shapes = (
{
closed = 1;
nodes = (
(99,660,l),
(99,0,l),
(115,0,l),
(115,300,l),
(335,300,l),
(338,300,ls),
(467,300,o),
(547,368,o),
(547,480,cs),
(547,592,o),
(467,660,o),
(338,660,cs)
);
},
{
closed = 1;
nodes = (
(115,314,l),
(115,646,l),
(338,646,ls),
(459,646,o),
(531,584,o),
(531,480,cs),
(531,376,o),
(459,314,o),
(338,314,cs)
);
},
{
closed = 1;
nodes = (
(356,304,l),
(558,0,l),
(576,0,l),
(369,314,l)
);
}
);
width = 611;
},
{
anchors = (
{
name = bottom;
pos = (346,0);
},
{
name = ogonek;
pos = (576,0);
},
{
name = top;
pos = (293,660);
}
);
layerId = "A593077A-0A46-47E3-817B-5940F86DDEB8";
shapes = (
{
closed = 1;
nodes = (
(99,660,l),
(99,0,l),
(115,0,l),
(115,300,l),
(335,300,l),
(338,300,ls),
(467,300,o),
(547,368,o),
(547,480,cs),
(547,592,o),
(467,660,o),
(338,660,cs)
);
},
{
closed = 1;
nodes = (
(115,314,l),
(115,646,l),
(338,646,ls),
(459,646,o),
(531,584,o),
(531,480,cs),
(531,376,o),
(459,314,o),
(338,314,cs)
);
},
{
closed = 1;
nodes = (
(356,304,l),
(558,0,l),
(576,0,l),
(369,314,l)
);
}
);
width = 611;
},
{
anchors = (
{
name = bottom;
pos = (365,0);
},
{
name = ogonek;
pos = (621,0);
},
{
name = top;
pos = (322,660);
}
);
layerId = "2D95750D-BD9C-4F78-991A-09E4A80A9CCF";
shapes = (
{
closed = 1;
nodes = (
(108,660,l),
(108,0,l),
(188,0,l),
(188,274,l),
(350,274,l),
(357,279,l),
(491,279,o),
(581,348,o),
(581,467,cs),
(581,586,o),
(492,660,o),
(358,660,cs)
);
},
{
closed = 1;
nodes = (
(188,349,l),
(188,585,l),
(357,585,ls),
(451,585,o),
(497,546,o),
(497,467,cs),
(497,388,o),
(451,349,o),
(357,349,cs)
);
},
{
closed = 1;
nodes = (
(336,289,l),
(526,0,l),
(621,0,l),
(403,333,l)
);
}
);
width = 665;
},
{
anchors = (
{
name = bottom;
pos = (362,0);
},
{
name = ogonek;
pos = (712,0);
},
{
name = top;
pos = (334,660);
}
);
layerId = "C6BF4D98-2DC0-4313-8217-C5861B72DC4C";
shapes = (
{
closed = 1;
nodes = (
(50,660,l),
(50,0,l),
(278,0,l),
(278,219,l),
(388,219,l),
(411,231,l),
(583,231,o),
(675,304,o),
(675,450,cs),
(675,577,o),
(580,660,o),
(408,660,cs)
);
},
{
closed = 1;
nodes = (
(278,372,l),
(278,494,l),
(368,494,ls),
(417,494,o),
(442,477,o),
(442,433,cs),
(442,388,o),
(417,372,o),
(368,372,cs)
);
},
{
closed = 1;
nodes = (
(305,289,l),
(459,0,l),
(712,0,l),
(506,323,l)
);
}
);
width = 705;
}
);
metricLeft = H;
unicode = 82;
},
{
glyphname = S;
kernLeft = S;
kernRight = S;
layers = (
{
anchors = (
{
name = bottom;
pos = (318,0);
},
{
name = ogonek;
pos = (409,0);
},
{
name = top;
pos = (326,660);
}
);
layerId = "4A17B37A-CBFD-40E5-9E02-2080A0E1F76C";
shapes = (
{
closed = 1;
nodes = (
(167,670,o),
(74,580,o),
(74,474,cs),
(74,395,o),
(120,332,o),
(243,305,cs),
(398,270,ls),
(475,253,o),
(498,216,o),
(498,174,cs),
(498,103,o),
(434,65,o),
(332,65,cs),
(221,65,o),
(151,117,o),
(113,193,c),
(43,136,l),
(92,54,o),
(184,-10,o),
(327,-10,cs),
(481,-10,o),
(581,68,o),
(581,181,cs),
(581,265,o),
(537,322,o),
(411,350,cs),
(268,382,ls),
(180,402,o),
(158,438,o),
(158,485,cs),
(158,546,o),
(205,595,o),
(312,595,cs),
(400,595,o),
(459,563,o),
(508,478,c),
(575,530,l),
(519,622,o),
(436,670,o),
(320,670,cs)
);
}
);
width = 641;
},
{
anchors = (
{
name = bottom;
pos = (330,0);
},
{
name = ogonek;
pos = (421,0);
},
{
name = top;
pos = (331,660);
}
);
layerId = "99EB5860-B45A-4B60-BB0B-F826C8F71D42";
shapes = (
{
closed = 1;
nodes = (
(142,670,o),
(28,578,o),
(28,443,cs),
(28,311,o),
(131,271,o),
(237,248,cs),
(337,226,ls),
(377,217,o),
(390,209,o),
(390,191,cs),
(390,173,o),
(375,161,o),
(327,161,cs),
(251,161,o),
(147,197,o),
(90,243,c),
(-2,90,l),
(75,26,o),
(207,-10,o),
(334,-10,cs),
(501,-10,o),
(629,63,o),
(629,223,cs),
(629,329,o),
(560,385,o),
(425,416,cs),
(334,437,ls),
(296,446,o),
(269,452,o),
(269,468,cs),
(269,486,o),
(287,499,o),
(339,499,cs),
(419,499,o),
(486,470,o),
(549,426,c),
(643,576,l),
(566,638,o),
(465,670,o),
(339,670,cs)
);
}
);
width = 648;
},
{
anchors = (
{
name = bottom;
pos = (308,0);
},
{
name = ogonek;
pos = (393,0);
},
{
name = top;
pos = (290,660);
}
);
layerId = "1C7CD022-87C7-4E11-B656-E47B18819458";
shapes = (
{
closed = 1;
nodes = (
(149,670,o),
(62,586,o),
(62,492,cs),
(62,404,o),
(113,357,o),
(245,329,cs),
(360,305,ls),
(484,279,o),
(532,238,o),
(532,167,cs),
(532,61,o),
(433,4,o),
(309,4,cs),
(179,4,o),
(75,57,o),
(57,174,c),
(42,166,l),
(64,45,o),
(171,-10,o),
(309,-10,cs),
(450,-10,o),
(548,61,o),
(548,167,cs),
(548,248,o),
(497,293,o),
(367,320,cs),
(252,344,ls),
(124,371,o),
(78,414,o),
(78,492,cs),
(78,584,o),
(163,656,o),
(295,656,cs),
(415,656,o),
(496,610,o),
(523,507,c),
(536,517,l),
(505,623,o),
(420,670,o),
(295,670,cs)
);
}
);
width = 594;
},
{
anchors = (
{
name = bottom;
pos = (351,0);
},
{
name = ogonek;
pos = (413,0);
},
{
name = top;
pos = (328,660);
}
);
associatedMasterId = "4A17B37A-CBFD-40E5-9E02-2080A0E1F76C";
layerId = "E6066FFC-F517-4FF7-83CA-D0EDF3B9A130";
name = "Regular 137, 0";
shapes = (
{
closed = 1;
nodes = (
(156,670,o),
(61,579,o),
(61,462,cs),
(61,363,o),
(114,307,o),
(260,274,cs),
(356,252,ls),
(431,235,o),
(458,213,o),
(458,180,cs),
(458,132,o),
(414,103,o),
(334,103,cs),
(246,103,o),
(168,129,o),
(114,209,c),
(32,114,l),
(94,40,o),
(196,-10,o),
(329,-10,cs),
(487,-10,o),
(598,63,o),
(598,194,cs),
(598,284,o),
(548,339,o),
(429,367,cs),
(302,397,ls),
(226,415,o),
(201,439,o),
(201,475,cs),
(201,522,o),
(242,557,o),
(325,557,cs),
(414,557,o),
(471,519,o),
(512,451,c),
(601,543,l),
(536,630,o),
(450,670,o),
(327,670,cs)
);
}
);
width = 643;
},
{
anchors = (
{
name = bottom;
pos = (338,0);
},
{
name = bottomC;
pos = (330,0);
},
{
name = ogonek;
pos = (421,0);
},
{
name = top;
pos = (331,660);
}
);
associatedMasterId = "99EB5860-B45A-4B60-BB0B-F826C8F71D42";
layerId = "B6AB912E-7822-479D-A8BD-F1834DF9E870";
name = "Aug 13 18, 16:38";
shapes = (
{
closed = 1;
nodes = (
(138,670,o),
(28,578,o),
(28,443,cs),
(28,280,o),
(185,251,o),
(292,232,cs),
(348,222,o),
(390,214,o),
(390,191,cs),
(390,174,o),
(373,161,o),
(317,161,cs),
(231,161,o),
(166,186,o),
(110,241,c),
(10,83,l),
(91,24,o),
(167,-10,o),
(334,-10,cs),
(496,-10,o),
(629,63,o),
(629,203,cs),
(629,329,o),
(551,394,o),
(357,429,cs),
(305,438,o),
(267,444,o),
(267,461,cs),
(267,483,o),
(297,499,o),
(344,499,cs),
(419,499,o),
(478,476,o),
(539,420,c),
(641,565,l),
(548,646,o),
(463,670,o),
(337,670,cs)
);
}
);
width = 646;
},
{
anchors = (
{
name = bottom;
pos = (359,0);
},
{
name = bottomC;
pos = (329,0);
},
{
name = ogonek;
pos = (409,0);
},
{
name = top;
pos = (326,660);
}
);
associatedMasterId = "4A17B37A-CBFD-40E5-9E02-2080A0E1F76C";
layerId = "86E24CE1-DADB-46A9-8FC9-C21850B56105";
name = "Sep 2 18, 17:31";
shapes = (
{
closed = 1;
nodes = (
(167,670,o),
(74,580,o),
(74,474,cs),
(74,373,o),
(138,319,o),
(316,288,cs),
(455,264,o),
(498,231,o),
(498,174,cs),
(498,103,o),
(430,65,o),
(328,65,cs),
(220,65,o),
(152,113,o),
(117,189,c),
(48,133,l),
(94,51,o),
(186,-10,o),
(326,-10,cs),
(480,-10,o),
(581,65,o),
(581,178,cs),
(581,280,o),
(518,336,o),
(341,366,cs),
(202,390,o),
(158,421,o),
(158,483,cs),
(158,546,o),
(216,595,o),
(321,595,cs),
(418,595,o),
(466,561,o),
(506,474,c),
(575,530,l),
(524,622,o),
(441,670,o),
(320,670,cs)
);
}
);
width = 641;
},
{
anchors = (
{
name = bottom;
pos = (311,0);
},
{
name = bottomC;
pos = (279,0);
},
{
name = ogonek;
pos = (393,0);
},
{
name = top;
pos = (290,660);
}
);
associatedMasterId = "1C7CD022-87C7-4E11-B656-E47B18819458";
layerId = "C1C72F67-B907-4C3D-90B4-1D9B5B79F945";
name = "Sep 2 18, 17:31";
shapes = (
{
closed = 1;
nodes = (
(147,670,o),
(60,586,o),
(60,492,cs),
(60,395,o),
(121,347,o),
(313,315,cs),
(475,288,o),
(532,242,o),
(532,160,cs),
(532,60,o),
(433,4,o),
(309,4,cs),
(179,4,o),
(75,57,o),
(57,174,c),
(42,166,l),
(64,45,o),
(171,-10,o),
(309,-10,cs),
(450,-10,o),
(548,60,o),
(548,160,cs),
(548,254,o),
(486,302,o),
(316,331,cs),
(131,363,o),
(76,407,o),
(76,492,cs),
(76,584,o),
(161,656,o),
(295,656,cs),
(415,656,o),
(496,610,o),
(523,507,c),
(536,517,l),
(505,623,o),
(420,670,o),
(295,670,cs)
);
}
);
width = 594;
},
{
anchors = (
{
name = bottom;
pos = (338,0);
},
{
name = bottomC;
pos = (330,0);
},
{
name = ogonek;
pos = (421,0);
},
{
name = top;
pos = (331,660);
}
);
associatedMasterId = "99EB5860-B45A-4B60-BB0B-F826C8F71D42";
layerId = "3767A971-E078-4FCF-8ABB-F9AB719ED90D";
name = "Sep 2 18, 17:32";
shapes = (
{
closed = 1;
nodes = (
(138,670,o),
(28,578,o),
(28,443,cs),
(28,287,o),
(169,264,o),
(292,237,cs),
(369,220,o),
(391,214,o),
(390,189,cs),
(389,172,o),
(373,159,o),
(327,159,cs),
(251,159,o),
(158,200,o),
(98,243,c),
(10,83,l),
(91,24,o),
(207,-10,o),
(334,-10,cs),
(498,-10,o),
(629,63,o),
(629,223,cs),
(629,329,o),
(560,387,o),
(402,419,cs),
(304,439,o),
(269,447,o),
(269,468,cs),
(269,486,o),
(287,499,o),
(339,499,cs),
(419,499,o),
(488,470,o),
(549,414,c),
(641,568,l),
(558,639,o),
(451,670,o),
(337,670,cs)
);
}
);
width = 646;
},
{
anchors = (
{
name = bottom;
pos = (338,0);
},
{
name = bottomC;
pos = (330,0);
},
{
name = ogonek;
pos = (421,0);
},
{
name = top;
pos = (331,660);
}
);
associatedMasterId = "99EB5860-B45A-4B60-BB0B-F826C8F71D42";
layerId = "16877038-FD04-4D2A-8CE8-8B7ED05004E7";
name = "Sep 16 18, 16:51";
shapes = (
{
closed = 1;
nodes = (
(138,670,o),
(28,578,o),
(28,443,cs),
(28,311,o),
(131,271,o),
(237,248,cs),
(337,226,ls),
(378,217,o),
(391,208,o),
(390,189,cs),
(389,172,o),
(373,159,o),
(327,159,cs),
(251,159,o),
(158,200,o),
(98,243,c),
(10,83,l),
(91,24,o),
(207,-10,o),
(334,-10,cs),
(498,-10,o),
(629,63,o),
(629,223,cs),
(629,329,o),
(560,381,o),
(425,412,cs),
(334,433,ls),
(296,442,o),
(269,450,o),
(269,468,cs),
(269,486,o),
(287,499,o),
(339,499,cs),
(419,499,o),
(488,470,o),
(549,414,c),
(641,568,l),
(558,639,o),
(451,670,o),
(337,670,cs)
);
}
);
width = 646;
},
{
anchors = (
{
name = bottom;
pos = (308,0);
},
{
name = ogonek;
pos = (393,0);
},
{
name = top;
pos = (290,660);
}
);
layerId = "A593077A-0A46-47E3-817B-5940F86DDEB8";
shapes = (
{
closed = 1;
nodes = (
(149,670,o),
(62,586,o),
(62,492,cs),
(62,404,o),
(113,357,o),
(245,329,cs),
(360,305,ls),
(484,279,o),
(532,238,o),
(532,167,cs),
(532,61,o),
(433,4,o),
(309,4,cs),
(179,4,o),
(75,57,o),
(57,174,c),
(42,166,l),
(64,45,o),
(171,-10,o),
(309,-10,cs),
(450,-10,o),
(548,61,o),
(548,167,cs),
(548,248,o),
(497,293,o),
(367,320,cs),
(252,344,ls),
(124,371,o),
(78,414,o),
(78,492,cs),
(78,584,o),
(163,656,o),
(295,656,cs),
(415,656,o),
(496,610,o),
(523,507,c),
(536,517,l),
(505,623,o),
(420,670,o),
(295,670,cs)
);
}
);
width = 594;
},
{
anchors = (
{
name = bottom;
pos = (311,0);
},
{
name = bottomC;
pos = (279,0);
},
{
name = ogonek;
pos = (393,0);
},
{
name = top;
pos = (290,660);
}
);
associatedMasterId = "A593077A-0A46-47E3-817B-5940F86DDEB8";
layerId = "6939BA41-9393-468E-A8B5-2F7928FF3F71";
name = "Sep 2 18, 17:31";
shapes = (
{
closed = 1;
nodes = (
(147,670,o),
(60,586,o),
(60,492,cs),
(60,395,o),
(121,347,o),
(313,315,cs),
(475,288,o),
(532,242,o),
(532,160,cs),
(532,60,o),
(433,4,o),
(309,4,cs),
(179,4,o),
(75,57,o),
(57,174,c),
(42,166,l),
(64,45,o),
(171,-10,o),
(309,-10,cs),
(450,-10,o),
(548,60,o),
(548,160,cs),
(548,254,o),
(486,302,o),
(316,331,cs),
(131,363,o),
(76,407,o),
(76,492,cs),
(76,584,o),
(161,656,o),
(295,656,cs),
(415,656,o),
(496,610,o),
(523,507,c),
(536,517,l),
(505,623,o),
(420,670,o),
(295,670,cs)
);
}
);
width = 594;
},
{
anchors = (
{
name = bottom;
pos = (318,0);
},
{
name = ogonek;
pos = (409,0);
},
{
name = top;
pos = (326,660);
}
);
layerId = "2D95750D-BD9C-4F78-991A-09E4A80A9CCF";
shapes = (
{
closed = 1;
nodes = (
(167,670,o),
(74,580,o),
(74,474,cs),
(74,395,o),
(120,332,o),
(243,305,cs),
(398,270,ls),
(475,253,o),
(498,216,o),
(498,174,cs),
(498,103,o),
(434,65,o),
(332,65,cs),
(221,65,o),
(151,117,o),
(113,193,c),
(43,136,l),
(92,54,o),
(184,-10,o),
(327,-10,cs),
(481,-10,o),
(581,68,o),
(581,181,cs),
(581,265,o),
(537,322,o),
(411,350,cs),
(268,382,ls),
(180,402,o),
(158,438,o),
(158,485,cs),
(158,546,o),
(205,595,o),
(312,595,cs),
(400,595,o),
(459,563,o),
(508,478,c),
(575,530,l),
(519,622,o),
(436,670,o),
(320,670,cs)
);
}
);
width = 641;
},
{
anchors = (
{
name = bottom;
pos = (351,0);
},
{
name = ogonek;
pos = (413,0);
},
{
name = top;
pos = (328,660);
}
);
associatedMasterId = "2D95750D-BD9C-4F78-991A-09E4A80A9CCF";
layerId = "A517E9A5-A001-42D3-A056-D6AA502614E2";
name = "Regular 137, 0";
shapes = (
{
closed = 1;
nodes = (
(156,670,o),
(61,579,o),
(61,462,cs),
(61,363,o),
(114,307,o),
(260,274,cs),
(356,252,ls),
(431,235,o),
(458,213,o),
(458,180,cs),
(458,132,o),
(414,103,o),
(334,103,cs),
(246,103,o),
(168,129,o),
(114,209,c),
(32,114,l),
(94,40,o),
(196,-10,o),
(329,-10,cs),
(487,-10,o),
(598,63,o),
(598,194,cs),
(598,284,o),
(548,339,o),
(429,367,cs),
(302,397,ls),
(226,415,o),
(201,439,o),
(201,475,cs),
(201,522,o),
(242,557,o),
(325,557,cs),
(414,557,o),
(471,519,o),
(512,451,c),
(601,543,l),
(536,630,o),
(450,670,o),
(327,670,cs)
);
}
);
width = 643;
},
{
anchors = (
{
name = bottom;
pos = (359,0);
},
{
name = bottomC;
pos = (329,0);
},
{
name = ogonek;
pos = (409,0);
},
{
name = top;
pos = (326,660);
}
);
associatedMasterId = "2D95750D-BD9C-4F78-991A-09E4A80A9CCF";
layerId = "36B47FF4-F4A5-4279-8C8E-CA4FDCE7D937";
name = "Sep 2 18, 17:31";
shapes = (
{
closed = 1;
nodes = (
(167,670,o),
(74,580,o),
(74,474,cs),
(74,373,o),
(138,319,o),
(316,288,cs),
(455,264,o),
(498,231,o),
(498,174,cs),
(498,103,o),
(430,65,o),
(328,65,cs),
(220,65,o),
(152,113,o),
(117,189,c),
(48,133,l),
(94,51,o),
(186,-10,o),
(326,-10,cs),
(480,-10,o),
(581,65,o),
(581,178,cs),
(581,280,o),
(518,336,o),
(341,366,cs),
(202,390,o),
(158,421,o),
(158,483,cs),
(158,546,o),
(216,595,o),
(321,595,cs),
(418,595,o),
(466,561,o),
(506,474,c),
(575,530,l),
(524,622,o),
(441,670,o),
(320,670,cs)
);
}
);
width = 641;
},
{
anchors = (
{
name = bottom;
pos = (330,0);
},
{
name = ogonek;
pos = (421,0);
},
{
name = top;
pos = (331,660);
}
);
layerId = "C6BF4D98-2DC0-4313-8217-C5861B72DC4C";
shapes = (
{
closed = 1;
nodes = (
(142,670,o),
(28,578,o),
(28,443,cs),
(28,311,o),
(131,271,o),
(237,248,cs),
(337,226,ls),
(377,217,o),
(390,209,o),
(390,191,cs),
(390,173,o),
(375,161,o),
(327,161,cs),
(251,161,o),
(147,197,o),
(90,243,c),
(-2,90,l),
(75,26,o),
(207,-10,o),
(334,-10,cs),
(501,-10,o),
(629,63,o),
(629,223,cs),
(629,329,o),
(560,385,o),
(425,416,cs),
(334,437,ls),
(296,446,o),
(269,452,o),
(269,468,cs),
(269,486,o),
(287,499,o),
(339,499,cs),
(419,499,o),
(486,470,o),
(549,426,c),
(643,576,l),
(566,638,o),
(465,670,o),
(339,670,cs)
);
}
);
width = 648;
},
{
anchors = (
{
name = bottom;
pos = (338,0);
},
{
name = bottomC;
pos = (330,0);
},
{
name = ogonek;
pos = (421,0);
},
{
name = top;
pos = (331,660);
}
);
associatedMasterId = "C6BF4D98-2DC0-4313-8217-C5861B72DC4C";
layerId = "C3199A21-2764-4795-89FB-C584B90180C6";
name = "Aug 13 18, 16:38";
shapes = (
{
closed = 1;
nodes = (
(138,670,o),
(28,578,o),
(28,443,cs),
(28,280,o),
(185,251,o),
(292,232,cs),
(348,222,o),
(390,214,o),
(390,191,cs),
(390,174,o),
(373,161,o),
(317,161,cs),
(231,161,o),
(166,186,o),
(110,241,c),
(10,83,l),
(91,24,o),
(167,-10,o),
(334,-10,cs),
(496,-10,o),
(629,63,o),
(629,203,cs),
(629,329,o),
(551,394,o),
(357,429,cs),
(305,438,o),
(267,444,o),
(267,461,cs),
(267,483,o),
(297,499,o),
(344,499,cs),
(419,499,o),
(478,476,o),
(539,420,c),
(641,565,l),
(548,646,o),
(463,670,o),
(337,670,cs)
);
}
);
width = 646;
},
{
anchors = (
{
name = bottom;
pos = (338,0);
},
{
name = bottomC;
pos = (330,0);
},
{
name = ogonek;
pos = (421,0);
},
{
name = top;
pos = (331,660);
}
);
associatedMasterId = "C6BF4D98-2DC0-4313-8217-C5861B72DC4C";
layerId = "67C70C19-C621-4621-A213-53846B706839";
name = "Sep 2 18, 17:32";
shapes = (
{
closed = 1;
nodes = (
(138,670,o),
(28,578,o),
(28,443,cs),
(28,287,o),
(169,264,o),
(292,237,cs),
(369,220,o),
(391,214,o),
(390,189,cs),
(389,172,o),
(373,159,o),
(327,159,cs),
(251,159,o),
(158,200,o),
(98,243,c),
(10,83,l),
(91,24,o),
(207,-10,o),
(334,-10,cs),
(498,-10,o),
(629,63,o),
(629,223,cs),
(629,329,o),
(560,387,o),
(402,419,cs),
(304,439,o),
(269,447,o),
(269,468,cs),
(269,486,o),
(287,499,o),
(339,499,cs),
(419,499,o),
(488,470,o),
(549,414,c),
(641,568,l),
(558,639,o),
(451,670,o),
(337,670,cs)
);
}
);
width = 646;
},
{
anchors = (
{
name = bottom;
pos = (338,0);
},
{
name = bottomC;
pos = (330,0);
},
{
name = ogonek;
pos = (421,0);
},
{
name = top;
pos = (331,660);
}
);
associatedMasterId = "C6BF4D98-2DC0-4313-8217-C5861B72DC4C";
layerId = "C4641A52-89EF-4EDB-AA88-512736C275BB";
name = "Sep 16 18, 16:51";
shapes = (
{
closed = 1;
nodes = (
(138,670,o),
(28,578,o),
(28,443,cs),
(28,311,o),
(131,271,o),
(237,248,cs),
(337,226,ls),
(378,217,o),
(391,208,o),
(390,189,cs),
(389,172,o),
(373,159,o),
(327,159,cs),
(251,159,o),
(158,200,o),
(98,243,c),
(10,83,l),
(91,24,o),
(207,-10,o),
(334,-10,cs),
(498,-10,o),
(629,63,o),
(629,223,cs),
(629,329,o),
(560,381,o),
(425,412,cs),
(334,433,ls),
(296,442,o),
(269,450,o),
(269,468,cs),
(269,486,o),
(287,499,o),
(339,499,cs),
(419,499,o),
(488,470,o),
(549,414,c),
(641,568,l),
(558,639,o),
(451,670,o),
(337,670,cs)
);
}
);
width = 646;
}
);
unicode = 83;
},
{
glyphname = Germandbls;
kernLeft = Germandbls;
kernRight = Germandbls;
layers = (
{
anchors = (
{
name = bottom;
pos = (321,0);
},
{
name = ogonek;
pos = (440,0);
},
{
name = top;
pos = (321,655);
}
);
layerId = "1C7CD022-87C7-4E11-B656-E47B18819458";
shapes = (
{
closed = 1;
nodes = (
(515,-5,o),
(583,76,o),
(583,176,cs),
(583,290,o),
(519,344,o),
(391,344,cs),
(300,344,l),
(305,344,l),
(548,645,l),
(548,660,l),
(299,660,ls),
(166,660,o),
(87,573,o),
(87,443,cs),
(87,0,l),
(103,0,l),
(103,442,ls),
(103,563,o),
(177,646,o),
(299,646,cs),
(530,646,l),
(287,344,l),
(287,330,l),
(391,330,ls),
(509,330,o),
(567,281,o),
(567,176,cs),
(567,84,o),
(502,9,o),
(400,9,cs),
(327,9,o),
(279,39,o),
(255,67,c),
(244,55,l),
(267,27,o),
(319,-5,o),
(400,-5,cs)
);
}
);
width = 616;
},
{
anchors = (
{
name = bottom;
pos = (367,0);
},
{
name = ogonek;
pos = (475,0);
},
{
name = top;
pos = (367,660);
}
);
layerId = "4A17B37A-CBFD-40E5-9E02-2080A0E1F76C";
shapes = (
{
closed = 1;
nodes = (
(552,-5,o),
(638,70,o),
(638,193,cs),
(638,303,o),
(558,370,o),
(447,370,cs),
(407,370,l),
(412,370,l),
(595,584,l),
(595,660,l),
(317,660,ls),
(190,660,o),
(95,573,o),
(95,443,cs),
(95,0,l),
(175,0,l),
(175,442,ls),
(175,525,o),
(240,585,o),
(317,585,cs),
(500,585,l),
(326,370,l),
(326,302,l),
(427,302,ls),
(505,302,o),
(556,263,o),
(556,191,cs),
(556,122,o),
(511,68,o),
(428,68,cs),
(376,68,o),
(329,88,o),
(301,118,c),
(265,49,l),
(291,21,o),
(350,-5,o),
(433,-5,cs)
);
}
);
width = 671;
},
{
anchors = (
{
name = bottom;
pos = (362,0);
},
{
name = ogonek;
pos = (548,0);
},
{
name = top;
pos = (362,660);
}
);
layerId = "99EB5860-B45A-4B60-BB0B-F826C8F71D42";
shapes = (
{
closed = 1;
nodes = (
(622,-5,o),
(717,56,o),
(717,189,cs),
(717,311,o),
(625,355,o),
(555,355,cs),
(534,355,l),
(484,280,l),
(682,498,l),
(682,660,l),
(346,660,ls),
(153,660,o),
(41,565,o),
(41,403,cs),
(41,0,l),
(274,0,l),
(274,362,ls),
(274,449,o),
(316,494,o),
(396,494,cs),
(472,494,l),
(343,356,l),
(343,243,l),
(439,243,ls),
(478,243,o),
(504,231,o),
(504,198,cs),
(504,168,o),
(479,151,o),
(443,151,cs),
(402,151,o),
(383,158,o),
(358,177,c),
(304,49,l),
(342,14,o),
(393,-5,o),
(496,-5,cs)
);
}
);
width = 728;
},
{
anchors = (
{
name = bottom;
pos = (321,0);
},
{
name = ogonek;
pos = (440,0);
},
{
name = top;
pos = (321,655);
}
);
layerId = "A593077A-0A46-47E3-817B-5940F86DDEB8";
shapes = (
{
closed = 1;
nodes = (
(515,-5,o),
(583,76,o),
(583,176,cs),
(583,290,o),
(519,344,o),
(391,344,cs),
(300,344,l),
(305,344,l),
(548,645,l),
(548,660,l),
(299,660,ls),
(166,660,o),
(87,573,o),
(87,443,cs),
(87,0,l),
(103,0,l),
(103,442,ls),
(103,563,o),
(177,646,o),
(299,646,cs),
(530,646,l),
(287,344,l),
(287,330,l),
(391,330,ls),
(509,330,o),
(567,281,o),
(567,176,cs),
(567,84,o),
(502,9,o),
(400,9,cs),
(327,9,o),
(279,39,o),
(255,67,c),
(244,55,l),
(267,27,o),
(319,-5,o),
(400,-5,cs)
);
}
);
width = 616;
},
{
anchors = (
{
name = bottom;
pos = (367,0);
},
{
name = ogonek;
pos = (475,0);
},
{
name = top;
pos = (367,660);
}
);
layerId = "2D95750D-BD9C-4F78-991A-09E4A80A9CCF";
shapes = (
{
closed = 1;
nodes = (
(552,-5,o),
(638,70,o),
(638,193,cs),
(638,303,o),
(558,370,o),
(447,370,cs),
(407,370,l),
(412,370,l),
(595,584,l),
(595,660,l),
(317,660,ls),
(190,660,o),
(95,573,o),
(95,443,cs),
(95,0,l),
(175,0,l),
(175,442,ls),
(175,525,o),
(240,585,o),
(317,585,cs),
(500,585,l),
(326,370,l),
(326,302,l),
(427,302,ls),
(505,302,o),
(556,263,o),
(556,191,cs),
(556,122,o),
(511,68,o),
(428,68,cs),
(376,68,o),
(329,88,o),
(301,118,c),
(265,49,l),
(291,21,o),
(350,-5,o),
(433,-5,cs)
);
}
);
width = 671;
},
{
anchors = (
{
name = bottom;
pos = (362,0);
},
{
name = ogonek;
pos = (548,0);
},
{
name = top;
pos = (362,660);
}
);
layerId = "C6BF4D98-2DC0-4313-8217-C5861B72DC4C";
shapes = (
{
closed = 1;
nodes = (
(622,-5,o),
(717,56,o),
(717,189,cs),
(717,311,o),
(625,355,o),
(555,355,cs),
(534,355,l),
(484,280,l),
(682,498,l),
(682,660,l),
(346,660,ls),
(153,660,o),
(41,565,o),
(41,403,cs),
(41,0,l),
(274,0,l),
(274,362,ls),
(274,449,o),
(316,494,o),
(396,494,cs),
(472,494,l),
(343,356,l),
(343,243,l),
(439,243,ls),
(478,243,o),
(504,231,o),
(504,198,cs),
(504,168,o),
(479,151,o),
(443,151,cs),
(402,151,o),
(383,158,o),
(358,177,c),
(304,49,l),
(342,14,o),
(393,-5,o),
(496,-5,cs)
);
}
);
width = 728;
}
);
unicode = 7838;
},
{
glyphname = T;
kernLeft = T;
kernRight = T;
layers = (
{
anchors = (
{
name = bottom;
pos = (302,0);
},
{
name = center;
pos = (302,322);
},
{
name = ogonek;
pos = (342,0);
},
{
name = top;
pos = (302,660);
}
);
layerId = "4A17B37A-CBFD-40E5-9E02-2080A0E1F76C";
shapes = (
{
closed = 1;
nodes = (
(32,660,l),
(32,585,l),
(262,585,l),
(262,0,l),
(342,0,l),
(342,585,l),
(572,585,l),
(572,660,l)
);
}
);
width = 604;
},
{
anchors = (
{
name = bottom;
pos = (343,0);
},
{
name = center;
pos = (343,289);
},
{
name = ogonek;
pos = (460,0);
},
{
name = top;
pos = (343,660);
}
);
layerId = "99EB5860-B45A-4B60-BB0B-F826C8F71D42";
shapes = (
{
closed = 1;
nodes = (
(20,660,l),
(20,489,l),
(227,489,l),
(227,0,l),
(460,0,l),
(460,489,l),
(666,489,l),
(666,660,l)
);
}
);
width = 686;
},
{
anchors = (
{
name = bottom;
pos = (272,0);
},
{
name = center;
pos = (272,341);
},
{
name = ogonek;
pos = (280,0);
},
{
name = top;
pos = (272,660);
}
);
layerId = "1C7CD022-87C7-4E11-B656-E47B18819458";
shapes = (
{
closed = 1;
nodes = (
(11,660,l),
(11,646,l),
(264,646,l),
(264,0,l),
(280,0,l),
(280,646,l),
(533,646,l),
(533,660,l)
);
}
);
width = 544;
},
{
anchors = (
{
name = bottom;
pos = (272,0);
},
{
name = center;
pos = (272,341);
},
{
name = ogonek;
pos = (280,0);
},
{
name = top;
pos = (272,660);
}
);
layerId = "A593077A-0A46-47E3-817B-5940F86DDEB8";
shapes = (
{
closed = 1;
nodes = (
(11,660,l),
(11,646,l),
(264,646,l),
(264,0,l),
(280,0,l),
(280,646,l),
(533,646,l),
(533,660,l)
);
}
);
width = 544;
},
{
anchors = (
{
name = bottom;
pos = (302,0);
},
{
name = center;
pos = (302,322);
},
{
name = ogonek;
pos = (342,0);
},
{
name = top;
pos = (302,660);
}
);
layerId = "2D95750D-BD9C-4F78-991A-09E4A80A9CCF";
shapes = (
{
closed = 1;
nodes = (
(32,660,l),
(32,585,l),
(262,585,l),
(262,0,l),
(342,0,l),
(342,585,l),
(572,585,l),
(572,660,l)
);
}
);
width = 604;
},
{
anchors = (
{
name = bottom;
pos = (343,0);
},
{
name = center;
pos = (343,289);
},
{
name = ogonek;
pos = (460,0);
},
{
name = top;
pos = (343,660);
}
);
layerId = "C6BF4D98-2DC0-4313-8217-C5861B72DC4C";
shapes = (
{
closed = 1;
nodes = (
(20,660,l),
(20,489,l),
(227,489,l),
(227,0,l),
(460,0,l),
(460,489,l),
(666,489,l),
(666,660,l)
);
}
);
width = 686;
}
);
unicode = 84;
},
{
glyphname = Tcedilla;
kernLeft = T;
kernRight = T;
layers = (
{
layerId = "4A17B37A-CBFD-40E5-9E02-2080A0E1F76C";
shapes = (
{
closed = 1;
nodes = (
(310,-24,o),
(332,-46,o),
(332,-81,cs),
(332,-127,o),
(305,-151,o),
(268,-151,cs),
(238,-151,o),
(219,-140,o),
(201,-128,c),
(182,-186,l),
(205,-203,o),
(235,-215,o),
(277,-215,cs),
(347,-215,o),
(398,-163,o),
(398,-99,cs),
(398,-41,o),
(367,4,o),
(289,29,c),
(262,0,l)
);
},
{
ref = T;
}
);
width = 604;
},
{
layerId = "99EB5860-B45A-4B60-BB0B-F826C8F71D42";
metricLeft = "=T";
metricRight = "=T";
shapes = (
{
closed = 1;
nodes = (
(334,-6,o),
(358,-28,o),
(358,-56,cs),
(358,-85,o),
(337,-104,o),
(305,-104,cs),
(279,-104,o),
(263,-98,o),
(249,-89,c),
(216,-186,l),
(240,-201,o),
(266,-215,o),
(323,-215,cs),
(421,-215,o),
(477,-167,o),
(477,-84,cs),
(477,-6,o),
(417,34,o),
(295,42,c),
(255,14,l)
);
},
{
ref = T;
}
);
width = 686;
},
{
layerId = "1C7CD022-87C7-4E11-B656-E47B18819458";
shapes = (
{
closed = 1;
nodes = (
(333,-37,o),
(344,-73,o),
(344,-115,cs),
(344,-161,o),
(314,-189,o),
(271,-189,cs),
(237,-189,o),
(211,-178,o),
(185,-148,c),
(177,-160,l),
(202,-190,o),
(231,-202,o),
(271,-202,cs),
(323,-202,o),
(359,-168,o),
(359,-114,cs),
(359,-67,o),
(345,-31,o),
(277,3,c),
(264,0,l)
);
},
{
ref = T;
}
);
width = 544;
},
{
layerId = "A593077A-0A46-47E3-817B-5940F86DDEB8";
shapes = (
{
closed = 1;
nodes = (
(333,-37,o),
(344,-73,o),
(344,-115,cs),
(344,-161,o),
(314,-189,o),
(271,-189,cs),
(237,-189,o),
(211,-178,o),
(185,-148,c),
(177,-160,l),
(202,-190,o),
(231,-202,o),
(271,-202,cs),
(323,-202,o),
(359,-168,o),
(359,-114,cs),
(359,-67,o),
(345,-31,o),
(277,3,c),
(264,0,l)
);
},
{
ref = T;
}
);
width = 544;
},
{
layerId = "2D95750D-BD9C-4F78-991A-09E4A80A9CCF";
shapes = (
{
closed = 1;
nodes = (
(310,-24,o),
(332,-46,o),
(332,-81,cs),
(332,-127,o),
(305,-151,o),
(268,-151,cs),
(238,-151,o),
(219,-140,o),
(201,-128,c),
(182,-186,l),
(205,-203,o),
(235,-215,o),
(277,-215,cs),
(347,-215,o),
(398,-163,o),
(398,-99,cs),
(398,-41,o),
(367,4,o),
(289,29,c),
(262,0,l)
);
},
{
ref = T;
}
);
width = 604;
},
{
layerId = "C6BF4D98-2DC0-4313-8217-C5861B72DC4C";
metricLeft = "=T";
metricRight = "=T";
shapes = (
{
closed = 1;
nodes = (
(334,-6,o),
(358,-28,o),
(358,-56,cs),
(358,-85,o),
(337,-104,o),
(305,-104,cs),
(279,-104,o),
(263,-98,o),
(249,-89,c),
(216,-186,l),
(240,-201,o),
(266,-215,o),
(323,-215,cs),
(421,-215,o),
(477,-167,o),
(477,-84,cs),
(477,-6,o),
(417,34,o),
(295,42,c),
(255,14,l)
);
},
{
ref = T;
}
);
width = 686;
}
);
metricLeft = T;
metricRight = T;
unicode = 354;
},
{
glyphname = U;
kernLeft = U;
kernRight = U;
layers = (
{
anchors = (
{
name = bottom;
pos = (354,0);
},
{
name = ogonek;
pos = (478,11);
},
{
name = top;
pos = (354,635);
},
{
name = top_ring;
pos = (354,608);
},
{
name = topright;
pos = (626,660);
}
);
layerId = "4A17B37A-CBFD-40E5-9E02-2080A0E1F76C";
shapes = (
{
closed = 1;
nodes = (
(533,660,l),
(533,266,ls),
(533,128,o),
(477,65,o),
(354,65,cs),
(231,65,o),
(175,128,o),
(175,266,cs),
(175,660,l),
(95,660,l),
(95,246,ls),
(95,76,o),
(188,-10,o),
(354,-10,cs),
(521,-10,o),
(613,76,o),
(613,246,cs),
(613,660,l)
);
}
);
width = 708;
},
{
anchors = (
{
name = bottom;
pos = (356,0);
},
{
name = ogonek;
pos = (494,8);
},
{
name = top;
pos = (356,660);
},
{
name = top_ring;
pos = (356,653);
},
{
name = topright;
pos = (675,660);
}
);
layerId = "99EB5860-B45A-4B60-BB0B-F826C8F71D42";
shapes = (
{
closed = 1;
nodes = (
(442,660,l),
(442,266,ls),
(442,199,o),
(412,165,o),
(356,165,cs),
(301,165,o),
(271,199,o),
(271,266,cs),
(271,660,l),
(37,660,l),
(37,284,ls),
(37,87,o),
(143,-10,o),
(356,-10,cs),
(569,-10,o),
(675,87,o),
(675,284,cs),
(675,660,l)
);
}
);
width = 712;
},
{
anchors = (
{
name = bottom;
pos = (332,0);
},
{
name = ogonek;
pos = (428,8);
},
{
name = top;
pos = (332,620);
},
{
name = top_ring;
pos = (332,598);
},
{
name = topright;
pos = (626,660);
}
);
layerId = "1C7CD022-87C7-4E11-B656-E47B18819458";
shapes = (
{
closed = 1;
nodes = (
(565,660,l),
(565,235,ls),
(565,88,o),
(478,4,o),
(332,4,cs),
(186,4,o),
(99,88,o),
(99,235,cs),
(99,660,l),
(83,660,l),
(83,235,ls),
(83,78,o),
(176,-10,o),
(332,-10,cs),
(488,-10,o),
(581,78,o),
(581,235,cs),
(581,660,l)
);
}
);
width = 664;
},
{
anchors = (
{
name = bottom;
pos = (332,0);
},
{
name = ogonek;
pos = (428,8);
},
{
name = top;
pos = (332,620);
},
{
name = top_ring;
pos = (332,598);
},
{
name = topright;
pos = (626,660);
}
);
layerId = "A593077A-0A46-47E3-817B-5940F86DDEB8";
shapes = (
{
closed = 1;
nodes = (
(565,660,l),
(565,235,ls),
(565,88,o),
(478,4,o),
(332,4,cs),
(186,4,o),
(99,88,o),
(99,235,cs),
(99,660,l),
(83,660,l),
(83,235,ls),
(83,78,o),
(176,-10,o),
(332,-10,cs),
(488,-10,o),
(581,78,o),
(581,235,cs),
(581,660,l)
);
}
);
width = 664;
},
{
anchors = (
{
name = bottom;
pos = (354,0);
},
{
name = ogonek;
pos = (478,11);
},
{
name = top;
pos = (354,635);
},
{
name = top_ring;
pos = (354,608);
},
{
name = topright;
pos = (626,660);
}
);
layerId = "2D95750D-BD9C-4F78-991A-09E4A80A9CCF";
shapes = (
{
closed = 1;
nodes = (
(533,660,l),
(533,266,ls),
(533,128,o),
(477,65,o),
(354,65,cs),
(231,65,o),
(175,128,o),
(175,266,cs),
(175,660,l),
(95,660,l),
(95,246,ls),
(95,76,o),
(188,-10,o),
(354,-10,cs),
(521,-10,o),
(613,76,o),
(613,246,cs),
(613,660,l)
);
}
);
width = 708;
},
{
anchors = (
{
name = bottom;
pos = (356,0);
},
{
name = ogonek;
pos = (494,8);
},
{
name = top;
pos = (356,660);
},
{
name = top_ring;
pos = (356,653);
},
{
name = topright;
pos = (675,660);
}
);
layerId = "C6BF4D98-2DC0-4313-8217-C5861B72DC4C";
shapes = (
{
closed = 1;
nodes = (
(442,660,l),
(442,266,ls),
(442,199,o),
(412,165,o),
(356,165,cs),
(301,165,o),
(271,199,o),
(271,266,cs),
(271,660,l),
(37,660,l),
(37,284,ls),
(37,87,o),
(143,-10,o),
(356,-10,cs),
(569,-10,o),
(675,87,o),
(675,284,cs),
(675,660,l)
);
}
);
width = 712;
}
);
metricRight = "=|";
unicode = 85;
},
{
glyphname = V;
layers = (
{
anchors = (
{
name = bottom;
pos = (324,0);
},
{
name = ogonek;
pos = (370,0);
},
{
name = top;
pos = (324,660);
}
);
guides = (
{
angle = 180;
pos = (290,202);
}
);
layerId = "4A17B37A-CBFD-40E5-9E02-2080A0E1F76C";
shapes = (
{
closed = 1;
nodes = (
(534,660,l),
(366,203,l),
(324,73,l),
(282,204,l),
(114,660,l),
(28,660,l),
(279,0,l),
(370,0,l),
(620,660,l)
);
}
);
width = 648;
},
{
anchors = (
{
name = bottom;
pos = (354,0);
},
{
name = ogonek;
pos = (492,0);
},
{
name = top;
pos = (354,660);
}
);
layerId = "99EB5860-B45A-4B60-BB0B-F826C8F71D42";
shapes = (
{
closed = 1;
nodes = (
(481,660,l),
(388,297,l),
(358,170,l),
(326,299,l),
(235,660,l),
(-8,660,l),
(215,0,l),
(492,0,l),
(715,660,l)
);
}
);
width = 707;
},
{
anchors = (
{
name = bottom;
pos = (288,0);
},
{
name = ogonek;
pos = (299,0);
},
{
name = top;
pos = (288,660);
}
);
layerId = "1C7CD022-87C7-4E11-B656-E47B18819458";
shapes = (
{
closed = 1;
nodes = (
(542,660,l),
(315,87,l),
(288,18,l),
(261,87,l),
(34,660,l),
(17,660,l),
(277,0,l),
(299,0,l),
(559,660,l)
);
}
);
width = 576;
},
{
anchors = (
{
name = bottom;
pos = (288,0);
},
{
name = ogonek;
pos = (299,0);
},
{
name = top;
pos = (288,660);
}
);
layerId = "A593077A-0A46-47E3-817B-5940F86DDEB8";
shapes = (
{
closed = 1;
nodes = (
(542,660,l),
(315,87,l),
(288,18,l),
(261,87,l),
(34,660,l),
(17,660,l),
(277,0,l),
(299,0,l),
(559,660,l)
);
}
);
width = 576;
},
{
anchors = (
{
name = bottom;
pos = (324,0);
},
{
name = ogonek;
pos = (370,0);
},
{
name = top;
pos = (324,660);
}
);
guides = (
{
angle = 180;
pos = (290,202);
}
);
layerId = "2D95750D-BD9C-4F78-991A-09E4A80A9CCF";
shapes = (
{
closed = 1;
nodes = (
(534,660,l),
(366,203,l),
(324,73,l),
(282,204,l),
(114,660,l),
(28,660,l),
(279,0,l),
(370,0,l),
(620,660,l)
);
}
);
width = 648;
},
{
anchors = (
{
name = bottom;
pos = (354,0);
},
{
name = ogonek;
pos = (492,0);
},
{
name = top;
pos = (354,660);
}
);
layerId = "C6BF4D98-2DC0-4313-8217-C5861B72DC4C";
shapes = (
{
closed = 1;
nodes = (
(481,660,l),
(388,297,l),
(358,170,l),
(326,299,l),
(235,660,l),
(-8,660,l),
(215,0,l),
(492,0,l),
(715,660,l)
);
}
);
width = 707;
}
);
unicode = 86;
},
{
glyphname = W;
kernLeft = W;
kernRight = W;
layers = (
{
anchors = (
{
name = bottom;
pos = (481,0);
},
{
name = ogonek;
pos = (731,0);
},
{
name = top;
pos = (481,660);
}
);
guides = (
{
angle = 180;
pos = (298,202);
}
);
layerId = "4A17B37A-CBFD-40E5-9E02-2080A0E1F76C";
shapes = (
{
closed = 1;
nodes = (
(330,0,l),
(446,428,l),
(480,577,l),
(481,577,l),
(515,428,l),
(632,0,l),
(731,0,l),
(925,660,l),
(846,660,l),
(683,71,l),
(528,660,l),
(437,660,l),
(282,73,l),
(119,660,l),
(36,660,l),
(231,0,l)
);
}
);
width = 961;
},
{
anchors = (
{
name = bottom;
pos = (510,0);
},
{
name = ogonek;
pos = (840,0);
},
{
name = top;
pos = (510,660);
}
);
layerId = "99EB5860-B45A-4B60-BB0B-F826C8F71D42";
shapes = (
{
closed = 1;
nodes = (
(435,0,l),
(486,248,l),
(512,417,l),
(515,417,l),
(541,248,l),
(593,0,l),
(840,0,l),
(1028,660,l),
(786,660,l),
(711,186,l),
(613,660,l),
(413,660,l),
(320,183,l),
(243,660,l),
(-8,660,l),
(179,0,l)
);
}
);
width = 1021;
},
{
anchors = (
{
name = bottom;
pos = (455,0);
},
{
name = ogonek;
pos = (668,0);
},
{
name = top;
pos = (455,660);
}
);
layerId = "1C7CD022-87C7-4E11-B656-E47B18819458";
shapes = (
{
closed = 1;
nodes = (
(262,0,l),
(414,502,l),
(454,638,l),
(455,638,l),
(496,502,l),
(647,0,l),
(668,0,l),
(886,660,l),
(869,660,l),
(657,16,l),
(465,660,l),
(444,660,l),
(252,16,l),
(40,660,l),
(23,660,l),
(241,0,l)
);
}
);
width = 909;
},
{
anchors = (
{
name = bottom;
pos = (481,0);
},
{
name = bottomC;
pos = (699,0);
},
{
name = ogonek;
pos = (731,0);
},
{
name = top;
pos = (481,660);
}
);
associatedMasterId = "4A17B37A-CBFD-40E5-9E02-2080A0E1F76C";
guides = (
{
angle = 180;
pos = (298,202);
}
);
layerId = "B1D15DF4-D3DB-48C3-B70B-68DED7ED5E28";
name = "Sep 2 18, 17:27";
shapes = (
{
closed = 1;
nodes = (
(480,577,l),
(481,577,l),
(515,428,l),
(632,0,l),
(731,0,l),
(925,660,l),
(844,660,l),
(684,61,l),
(528,660,l),
(437,660,l),
(281,63,l),
(122,660,l),
(36,660,l),
(231,0,l),
(330,0,l),
(446,428,l)
);
}
);
width = 961;
},
{
anchors = (
{
name = bottom;
pos = (455,0);
},
{
name = ogonek;
pos = (668,0);
},
{
name = top;
pos = (455,660);
}
);
layerId = "A593077A-0A46-47E3-817B-5940F86DDEB8";
shapes = (
{
closed = 1;
nodes = (
(262,0,l),
(414,502,l),
(454,638,l),
(455,638,l),
(496,502,l),
(647,0,l),
(668,0,l),
(886,660,l),
(869,660,l),
(657,16,l),
(465,660,l),
(444,660,l),
(252,16,l),
(40,660,l),
(23,660,l),
(241,0,l)
);
}
);
width = 909;
},
{
anchors = (
{
name = bottom;
pos = (481,0);
},
{
name = ogonek;
pos = (731,0);
},
{
name = top;
pos = (481,660);
}
);
guides = (
{
angle = 180;
pos = (298,202);
}
);
layerId = "2D95750D-BD9C-4F78-991A-09E4A80A9CCF";
shapes = (
{
closed = 1;
nodes = (
(330,0,l),
(446,428,l),
(480,577,l),
(481,577,l),
(515,428,l),
(632,0,l),
(731,0,l),
(925,660,l),
(846,660,l),
(683,71,l),
(528,660,l),
(437,660,l),
(282,73,l),
(119,660,l),
(36,660,l),
(231,0,l)
);
}
);
width = 961;
},
{
anchors = (
{
name = bottom;
pos = (481,0);
},
{
name = bottomC;
pos = (699,0);
},
{
name = ogonek;
pos = (731,0);
},
{
name = top;
pos = (481,660);
}
);
associatedMasterId = "2D95750D-BD9C-4F78-991A-09E4A80A9CCF";
guides = (
{
angle = 180;
pos = (298,202);
}
);
layerId = "B3E1466F-DFE6-4E22-BED5-8BAB971ADD3A";
name = "Sep 2 18, 17:27";
shapes = (
{
closed = 1;
nodes = (
(480,577,l),
(481,577,l),
(515,428,l),
(632,0,l),
(731,0,l),
(925,660,l),
(844,660,l),
(684,61,l),
(528,660,l),
(437,660,l),
(281,63,l),
(122,660,l),
(36,660,l),
(231,0,l),
(330,0,l),
(446,428,l)
);
}
);
width = 961;
},
{
anchors = (
{
name = bottom;
pos = (510,0);
},
{
name = ogonek;
pos = (840,0);
},
{
name = top;
pos = (510,660);
}
);
layerId = "C6BF4D98-2DC0-4313-8217-C5861B72DC4C";
shapes = (
{
closed = 1;
nodes = (
(435,0,l),
(486,248,l),
(512,417,l),
(515,417,l),
(541,248,l),
(593,0,l),
(840,0,l),
(1028,660,l),
(786,660,l),
(711,186,l),
(613,660,l),
(413,660,l),
(320,183,l),
(243,660,l),
(-8,660,l),
(179,0,l)
);
}
);
width = 1021;
}
);
unicode = 87;
},
{
glyphname = X;
layers = (
{
anchors = (
{
name = bottom;
pos = (300,0);
},
{
name = ogonek;
pos = (569,0);
},
{
name = top;
pos = (300,660);
}
);
layerId = "4A17B37A-CBFD-40E5-9E02-2080A0E1F76C";
shapes = (
{
closed = 1;
nodes = (
(348,340,l),
(562,660,l),
(475,660,l),
(306,403,l),
(139,660,l),
(45,660,l),
(256,336,l),
(25,0,l),
(118,0,l),
(298,272,l),
(477,0,l),
(569,0,l)
);
}
);
width = 601;
},
{
anchors = (
{
name = bottom;
pos = (347,0);
},
{
name = ogonek;
pos = (713,0);
},
{
name = top;
pos = (347,660);
}
);
guides = (
{
angle = 90;
pos = (694,439);
},
{
angle = 90;
pos = (10,379);
}
);
layerId = "99EB5860-B45A-4B60-BB0B-F826C8F71D42";
shapes = (
{
closed = 1;
nodes = (
(484,335,l),
(694,660,l),
(440,660,l),
(362,495,l),
(285,660,l),
(10,660,l),
(221,329,l),
(2,0,l),
(265,0,l),
(345,171,l),
(432,0,l),
(713,0,l)
);
}
);
width = 704;
},
{
anchors = (
{
name = bottom;
pos = (263,0);
},
{
name = ogonek;
pos = (509,0);
},
{
name = top;
pos = (263,660);
}
);
layerId = "1C7CD022-87C7-4E11-B656-E47B18819458";
shapes = (
{
closed = 1;
nodes = (
(274,340,l),
(500,660,l),
(478,660,l),
(263,356,l),
(53,660,l),
(33,660,l),
(253,342,l),
(12,0,l),
(33,0,l),
(263,326,l),
(489,0,l),
(509,0,l)
);
}
);
width = 526;
},
{
anchors = (
{
name = bottom;
pos = (263,0);
},
{
name = ogonek;
pos = (509,0);
},
{
name = top;
pos = (263,660);
}
);
layerId = "A593077A-0A46-47E3-817B-5940F86DDEB8";
shapes = (
{
closed = 1;
nodes = (
(274,340,l),
(500,660,l),
(478,660,l),
(263,356,l),
(53,660,l),
(33,660,l),
(253,342,l),
(12,0,l),
(33,0,l),
(263,326,l),
(489,0,l),
(509,0,l)
);
}
);
width = 526;
},
{
anchors = (
{
name = bottom;
pos = (300,0);
},
{
name = ogonek;
pos = (569,0);
},
{
name = top;
pos = (300,660);
}
);
layerId = "2D95750D-BD9C-4F78-991A-09E4A80A9CCF";
shapes = (
{
closed = 1;
nodes = (
(348,340,l),
(562,660,l),
(475,660,l),
(306,403,l),
(139,660,l),
(45,660,l),
(256,336,l),
(25,0,l),
(118,0,l),
(298,272,l),
(477,0,l),
(569,0,l)
);
}
);
width = 601;
},
{
anchors = (
{
name = bottom;
pos = (347,0);
},
{
name = ogonek;
pos = (713,0);
},
{
name = top;
pos = (347,660);
}
);
guides = (
{
angle = 90;
pos = (694,439);
},
{
angle = 90;
pos = (10,379);
}
);
layerId = "C6BF4D98-2DC0-4313-8217-C5861B72DC4C";
shapes = (
{
closed = 1;
nodes = (
(484,335,l),
(694,660,l),
(440,660,l),
(362,495,l),
(285,660,l),
(10,660,l),
(221,329,l),
(2,0,l),
(265,0,l),
(345,171,l),
(432,0,l),
(713,0,l)
);
}
);
width = 704;
}
);
unicode = 88;
},
{
glyphname = Y;
kernLeft = Y;
kernRight = Y;
layers = (
{
anchors = (
{
name = bottom;
pos = (286,0);
},
{
name = ogonek;
pos = (326,0);
},
{
name = top;
pos = (286,640);
}
);
layerId = "4A17B37A-CBFD-40E5-9E02-2080A0E1F76C";
shapes = (
{
closed = 1;
nodes = (
(467,660,l),
(339,434,l),
(286,340,l),
(233,434,l),
(105,660,l),
(10,660,l),
(246,258,l),
(246,0,l),
(326,0,l),
(326,258,l),
(562,660,l)
);
}
);
width = 572;
},
{
anchors = (
{
name = bottom;
pos = (356,0);
},
{
name = ogonek;
pos = (473,0);
},
{
name = top;
pos = (356,660);
}
);
layerId = "99EB5860-B45A-4B60-BB0B-F826C8F71D42";
shapes = (
{
closed = 1;
nodes = (
(475,660,l),
(405,509,l),
(358,389,l),
(311,509,l),
(241,660,l),
(9,660,l),
(240,229,l),
(240,0,l),
(473,0,l),
(473,229,l),
(704,660,l)
);
}
);
width = 713;
},
{
anchors = (
{
name = bottom;
pos = (256,0);
},
{
name = ogonek;
pos = (264,0);
},
{
name = top;
pos = (256,620);
}
);
layerId = "1C7CD022-87C7-4E11-B656-E47B18819458";
shapes = (
{
closed = 1;
nodes = (
(477,660,l),
(348,434,l),
(256,273,l),
(164,434,l),
(35,660,l),
(16,660,l),
(248,256,l),
(248,0,l),
(264,0,l),
(264,256,l),
(496,660,l)
);
}
);
width = 512;
},
{
anchors = (
{
name = bottom;
pos = (256,0);
},
{
name = ogonek;
pos = (264,0);
},
{
name = top;
pos = (256,620);
}
);
layerId = "A593077A-0A46-47E3-817B-5940F86DDEB8";
shapes = (
{
closed = 1;
nodes = (
(477,660,l),
(348,434,l),
(256,273,l),
(164,434,l),
(35,660,l),
(16,660,l),
(248,256,l),
(248,0,l),
(264,0,l),
(264,256,l),
(496,660,l)
);
}
);
width = 512;
},
{
anchors = (
{
name = bottom;
pos = (286,0);
},
{
name = ogonek;
pos = (326,0);
},
{
name = top;
pos = (286,640);
}
);
layerId = "2D95750D-BD9C-4F78-991A-09E4A80A9CCF";
shapes = (
{
closed = 1;
nodes = (
(467,660,l),
(339,434,l),
(286,340,l),
(233,434,l),
(105,660,l),
(10,660,l),
(246,258,l),
(246,0,l),
(326,0,l),
(326,258,l),
(562,660,l)
);
}
);
width = 572;
},
{
anchors = (
{
name = bottom;
pos = (356,0);
},
{
name = ogonek;
pos = (473,0);
},
{
name = top;
pos = (356,660);
}
);
layerId = "C6BF4D98-2DC0-4313-8217-C5861B72DC4C";
shapes = (
{
closed = 1;
nodes = (
(475,660,l),
(405,509,l),
(358,389,l),
(311,509,l),
(241,660,l),
(9,660,l),
(240,229,l),
(240,0,l),
(473,0,l),
(473,229,l),
(704,660,l)
);
}
);
width = 713;
}
);
unicode = 89;
},
{
glyphname = Z;
kernLeft = Z;
kernRight = Z;
layers = (
{
anchors = (
{
name = bottom;
pos = (306,0);
},
{
name = ogonek;
pos = (575,0);
},
{
name = top;
pos = (306,660);
}
);
layerId = "4A17B37A-CBFD-40E5-9E02-2080A0E1F76C";
shapes = (
{
closed = 1;
nodes = (
(562,589,l),
(562,660,l),
(66,660,l),
(66,585,l),
(504,585,l),
(490,614,l),
(56,71,l),
(56,0,l),
(575,0,l),
(575,75,l),
(114,75,l),
(128,46,l)
);
}
);
width = 630;
},
{
anchors = (
{
name = bottom;
pos = (306,0);
},
{
name = ogonek;
pos = (622,0);
},
{
name = top;
pos = (329,660);
}
);
layerId = "99EB5860-B45A-4B60-BB0B-F826C8F71D42";
shapes = (
{
closed = 1;
nodes = (
(611,501,l),
(611,660,l),
(29,660,l),
(29,494,l),
(477,494,l),
(437,571,l),
(25,159,l),
(25,0,l),
(622,0,l),
(622,166,l),
(160,166,l),
(201,89,l)
);
}
);
width = 637;
},
{
anchors = (
{
name = bottom;
pos = (277,0);
},
{
name = ogonek;
pos = (528,0);
},
{
name = top;
pos = (277,660);
}
);
layerId = "1C7CD022-87C7-4E11-B656-E47B18819458";
shapes = (
{
closed = 1;
nodes = (
(508,646,l),
(508,660,l),
(36,660,l),
(36,646,l),
(497,646,l),
(494,652,l),
(29,14,l),
(29,0,l),
(528,0,l),
(528,14,l),
(40,14,l),
(43,8,l)
);
}
);
width = 552;
},
{
anchors = (
{
name = bottom;
pos = (277,0);
},
{
name = ogonek;
pos = (528,0);
},
{
name = top;
pos = (277,660);
}
);
layerId = "A593077A-0A46-47E3-817B-5940F86DDEB8";
shapes = (
{
closed = 1;
nodes = (
(508,646,l),
(508,660,l),
(36,660,l),
(36,646,l),
(497,646,l),
(494,652,l),
(29,14,l),
(29,0,l),
(528,0,l),
(528,14,l),
(40,14,l),
(43,8,l)
);
}
);
width = 552;
},
{
anchors = (
{
name = bottom;
pos = (306,0);
},
{
name = ogonek;
pos = (575,0);
},
{
name = top;
pos = (306,660);
}
);
layerId = "2D95750D-BD9C-4F78-991A-09E4A80A9CCF";
shapes = (
{
closed = 1;
nodes = (
(562,589,l),
(562,660,l),
(66,660,l),
(66,585,l),
(504,585,l),
(490,614,l),
(56,71,l),
(56,0,l),
(575,0,l),
(575,75,l),
(114,75,l),
(128,46,l)
);
}
);
width = 630;
},
{
anchors = (
{
name = bottom;
pos = (306,0);
},
{
name = ogonek;
pos = (622,0);
},
{
name = top;
pos = (329,660);
}
);
layerId = "C6BF4D98-2DC0-4313-8217-C5861B72DC4C";
shapes = (
{
closed = 1;
nodes = (
(611,501,l),
(611,660,l),
(29,660,l),
(29,494,l),
(477,494,l),
(437,571,l),
(25,159,l),
(25,0,l),
(622,0,l),
(622,166,l),
(160,166,l),
(201,89,l)
);
}
);
width = 637;
}
);
unicode = 90;
},
{
glyphname = R.ss03;
kernLeft = I;
kernRight = R;
layers = (
{
anchors = (
{
name = bottom;
pos = (346,0);
},
{
name = ogonek;
pos = (557,0);
},
{
name = top;
pos = (293,660);
}
);
layerId = "1C7CD022-87C7-4E11-B656-E47B18819458";
shapes = (
{
closed = 1;
nodes = (
(115,0,l),
(115,300,l),
(351,300,ls),
(459,300,o),
(513,245,o),
(515,157,cs),
(518,36,o),
(531,14,o),
(539,0,c),
(557,0,l),
(557,2,l),
(548,14,o),
(535,22,o),
(531,160,cs),
(529,243,o),
(486,295,o),
(399,308,c),
(399,309,l),
(487,322,o),
(547,384,o),
(547,480,cs),
(547,592,o),
(467,660,o),
(338,660,cs),
(99,660,l),
(99,0,l)
);
},
{
closed = 1;
nodes = (
(115,646,l),
(338,646,ls),
(459,646,o),
(531,584,o),
(531,480,cs),
(531,376,o),
(459,314,o),
(338,314,cs),
(115,314,l)
);
}
);
width = 612;
},
{
anchors = (
{
name = bottom;
pos = (365,0);
},
{
name = ogonek;
pos = (591,0);
},
{
name = top;
pos = (322,660);
}
);
layerId = "4A17B37A-CBFD-40E5-9E02-2080A0E1F76C";
shapes = (
{
closed = 1;
nodes = (
(188,0,l),
(188,274,l),
(328,274,ls),
(431,274,o),
(477,233,o),
(481,156,cs),
(486,63,o),
(495,23,o),
(505,0,c),
(591,0,l),
(591,3,l),
(578,24,o),
(567,45,o),
(560,164,cs),
(557,236,o),
(520,285,o),
(443,298,c),
(443,300,l),
(533,322,o),
(581,381,o),
(581,467,cs),
(581,586,o),
(492,660,o),
(358,660,cs),
(108,660,l),
(108,0,l)
);
},
{
closed = 1;
nodes = (
(188,585,l),
(357,585,ls),
(451,585,o),
(497,546,o),
(497,467,cs),
(497,388,o),
(451,349,o),
(357,349,cs),
(188,349,l)
);
}
);
width = 655;
},
{
anchors = (
{
name = bottom;
pos = (362,0);
},
{
name = ogonek;
pos = (685,0);
},
{
name = top;
pos = (334,660);
}
);
layerId = "99EB5860-B45A-4B60-BB0B-F826C8F71D42";
shapes = (
{
closed = 1;
nodes = (
(278,0,l),
(278,219,l),
(330,219,ls),
(379,219,o),
(404,204,o),
(415,153,cs),
(429,87,o),
(425,43,o),
(442,0,c),
(685,0,l),
(685,5,l),
(661,47,o),
(657,99,o),
(643,175,cs),
(635,218,o),
(616,259,o),
(551,277,c),
(551,279,l),
(619,300,o),
(675,343,o),
(675,449,cs),
(675,586,o),
(584,660,o),
(408,660,cs),
(50,660,l),
(50,0,l)
);
},
{
closed = 1;
nodes = (
(278,494,l),
(361,494,ls),
(420,494,o),
(442,477,o),
(442,433,cs),
(442,388,o),
(420,372,o),
(361,372,cs),
(278,372,l)
);
}
);
width = 705;
},
{
anchors = (
{
name = bottom;
pos = (346,0);
},
{
name = ogonek;
pos = (557,0);
},
{
name = top;
pos = (293,660);
}
);
layerId = "A593077A-0A46-47E3-817B-5940F86DDEB8";
shapes = (
{
closed = 1;
nodes = (
(115,0,l),
(115,300,l),
(351,300,ls),
(459,300,o),
(513,245,o),
(515,157,cs),
(518,36,o),
(531,14,o),
(539,0,c),
(557,0,l),
(557,2,l),
(548,14,o),
(535,22,o),
(531,160,cs),
(529,243,o),
(486,295,o),
(399,308,c),
(399,309,l),
(487,322,o),
(547,384,o),
(547,480,cs),
(547,592,o),
(467,660,o),
(338,660,cs),
(99,660,l),
(99,0,l)
);
},
{
closed = 1;
nodes = (
(115,646,l),
(338,646,ls),
(459,646,o),
(531,584,o),
(531,480,cs),
(531,376,o),
(459,314,o),
(338,314,cs),
(115,314,l)
);
}
);
width = 612;
},
{
anchors = (
{
name = bottom;
pos = (365,0);
},
{
name = ogonek;
pos = (591,0);
},
{
name = top;
pos = (322,660);
}
);
layerId = "2D95750D-BD9C-4F78-991A-09E4A80A9CCF";
shapes = (
{
closed = 1;
nodes = (
(188,0,l),
(188,274,l),
(328,274,ls),
(431,274,o),
(477,233,o),
(481,156,cs),
(486,63,o),
(495,23,o),
(505,0,c),
(591,0,l),
(591,3,l),
(578,24,o),
(567,45,o),
(560,164,cs),
(557,236,o),
(520,285,o),
(443,298,c),
(443,300,l),
(533,322,o),
(581,381,o),
(581,467,cs),
(581,586,o),
(492,660,o),
(358,660,cs),
(108,660,l),
(108,0,l)
);
},
{
closed = 1;
nodes = (
(188,585,l),
(357,585,ls),
(451,585,o),
(497,546,o),
(497,467,cs),
(497,388,o),
(451,349,o),
(357,349,cs),
(188,349,l)
);
}
);
width = 655;
},
{
anchors = (
{
name = bottom;
pos = (362,0);
},
{
name = ogonek;
pos = (685,0);
},
{
name = top;
pos = (334,660);
}
);
layerId = "C6BF4D98-2DC0-4313-8217-C5861B72DC4C";
shapes = (
{
closed = 1;
nodes = (
(278,0,l),
(278,219,l),
(330,219,ls),
(379,219,o),
(404,204,o),
(415,153,cs),
(429,87,o),
(425,43,o),
(442,0,c),
(685,0,l),
(685,5,l),
(661,47,o),
(657,99,o),
(643,175,cs),
(635,218,o),
(616,259,o),
(551,277,c),
(551,279,l),
(619,300,o),
(675,343,o),
(675,449,cs),
(675,586,o),
(584,660,o),
(408,660,cs),
(50,660,l),
(50,0,l)
);
},
{
closed = 1;
nodes = (
(278,494,l),
(361,494,ls),
(420,494,o),
(442,477,o),
(442,433,cs),
(442,388,o),
(420,372,o),
(361,372,cs),
(278,372,l)
);
}
);
width = 705;
}
);
userData = {
com.typemytype.robofont.layerData = {
background = {
anchors = (
);
components = (
{
baseGlyph = R;
transformation = (
1,
0,
0,
1,
"-600",
0
);
}
);
contours = (
{
points = (
{
segmentType = line;
smooth = 0;
x = 114;
y = 300;
},
{
segmentType = line;
smooth = 1;
x = 356;
y = 300;
},
{
smooth = 0;
x = 464;
y = 300;
},
{
smooth = 0;
x = 515;
y = 245;
},
{
segmentType = curve;
smooth = 1;
x = 518;
y = 157;
},
{
smooth = 0;
x = 521;
y = 25;
},
{
smooth = 0;
x = 536;
y = 6;
},
{
segmentType = curve;
smooth = 0;
x = 542;
y = 0;
},
{
segmentType = line;
smooth = 0;
x = 558;
y = 0;
},
{
segmentType = line;
smooth = 0;
x = 558;
y = 2;
},
{
smooth = 0;
x = 550;
y = 10;
},
{
smooth = 0;
x = 535;
y = 22;
},
{
segmentType = curve;
smooth = 1;
x = 531;
y = 160;
},
{
smooth = 0;
x = 529;
y = 243;
},
{
smooth = 0;
x = 483;
y = 294;
},
{
segmentType = curve;
smooth = 0;
x = 401;
y = 308;
},
{
smooth = 0;
x = 495;
y = 325;
},
{
smooth = 0;
x = 545;
y = 391;
},
{
segmentType = curve;
smooth = 1;
x = 545;
y = 484;
},
{
smooth = 0;
x = 545;
y = 598;
},
{
smooth = 0;
x = 457;
y = 660;
},
{
segmentType = curve;
smooth = 1;
x = 336;
y = 660;
},
{
segmentType = line;
smooth = 0;
x = 100;
y = 660;
},
{
segmentType = line;
smooth = 0;
x = 100;
y = 0;
},
{
segmentType = line;
smooth = 0;
x = 114;
y = 0;
}
);
},
{
points = (
{
segmentType = line;
smooth = 0;
x = 114;
y = 647;
},
{
segmentType = line;
smooth = 1;
x = 336;
y = 647;
},
{
smooth = 0;
x = 450;
y = 647;
},
{
smooth = 0;
x = 531;
y = 588;
},
{
segmentType = curve;
smooth = 1;
x = 531;
y = 484;
},
{
smooth = 0;
x = 531;
y = 375;
},
{
smooth = 0;
x = 462;
y = 313;
},
{
segmentType = curve;
smooth = 1;
x = 330;
y = 313;
},
{
segmentType = line;
smooth = 0;
x = 114;
y = 313;
}
);
}
);
lib = {
};
name = R.alt;
unicodes = (
);
width = 612;
};
};
};
},
{
glyphname = G.ss04;
kernLeft = O;
kernRight = G;
layers = (
{
anchors = (
{
name = bottom;
pos = (351,0);
},
{
name = ogonek;
pos = (430,0);
},
{
name = top;
pos = (343,660);
}
);
layerId = "1C7CD022-87C7-4E11-B656-E47B18819458";
shapes = (
{
closed = 1;
nodes = (
(553,-10,o),
(616,141,o),
(616,294,cs),
(616,311,l),
(353,311,l),
(353,297,l),
(608,297,l),
(601,305,l),
(601,300,ls),
(601,174,o),
(561,4,o),
(347,4,cs),
(180,4,o),
(72,130,o),
(72,330,cs),
(72,530,o),
(183,656,o),
(349,656,cs),
(479,656,o),
(558,601,o),
(591,489,c),
(605,496,l),
(572,612,o),
(488,670,o),
(349,670,cs),
(173,670,o),
(56,539,o),
(56,330,cs),
(56,121,o),
(170,-10,o),
(347,-10,cs)
);
}
);
width = 656;
},
{
anchors = (
{
name = bottom;
pos = (405,0);
},
{
name = ogonek;
pos = (454,0);
},
{
name = top;
pos = (373,660);
}
);
layerId = "4A17B37A-CBFD-40E5-9E02-2080A0E1F76C";
shapes = (
{
closed = 1;
nodes = (
(560,-10,o),
(658,103,o),
(658,272,cs),
(658,333,l),
(362,333,l),
(362,258,l),
(624,258,l),
(582,299,l),
(582,252,ls),
(582,168,o),
(529,65,o),
(380,65,cs),
(232,65,o),
(152,164,o),
(152,330,cs),
(152,496,o),
(242,595,o),
(376,595,cs),
(468,595,o),
(538,555,o),
(567,479,c),
(640,519,l),
(589,621,o),
(507,670,o),
(376,670,cs),
(191,670,o),
(68,539,o),
(68,330,cs),
(68,121,o),
(186,-10,o),
(374,-10,cs)
);
}
);
width = 724;
},
{
anchors = (
{
name = bottom;
pos = (379,0);
},
{
name = ogonek;
pos = (401,0);
},
{
name = top;
pos = (364,660);
}
);
layerId = "99EB5860-B45A-4B60-BB0B-F826C8F71D42";
shapes = (
{
closed = 1;
nodes = (
(551,-10,o),
(687,66,o),
(687,280,cs),
(687,374,l),
(371,374,l),
(371,239,l),
(595,239,l),
(492,285,l),
(492,232,ls),
(492,194,o),
(454,165,o),
(392,165,cs),
(303,165,o),
(267,205,o),
(267,330,cs),
(267,445,o),
(307,495,o),
(373,495,cs),
(428,495,o),
(453,470,o),
(462,411,c),
(679,489,l),
(625,619,o),
(534,670,o),
(371,670,cs),
(156,670,o),
(29,544,o),
(29,328,cs),
(29,103,o),
(168,-10,o),
(368,-10,cs)
);
}
);
width = 722;
},
{
anchors = (
{
name = bottom;
pos = (351,0);
},
{
name = ogonek;
pos = (430,0);
},
{
name = top;
pos = (343,660);
}
);
layerId = "A593077A-0A46-47E3-817B-5940F86DDEB8";
shapes = (
{
closed = 1;
nodes = (
(553,-10,o),
(616,141,o),
(616,294,cs),
(616,311,l),
(353,311,l),
(353,297,l),
(608,297,l),
(601,305,l),
(601,300,ls),
(601,174,o),
(561,4,o),
(347,4,cs),
(180,4,o),
(72,130,o),
(72,330,cs),
(72,530,o),
(183,656,o),
(349,656,cs),
(479,656,o),
(558,601,o),
(591,489,c),
(605,496,l),
(572,612,o),
(488,670,o),
(349,670,cs),
(173,670,o),
(56,539,o),
(56,330,cs),
(56,121,o),
(170,-10,o),
(347,-10,cs)
);
}
);
width = 656;
},
{
anchors = (
{
name = bottom;
pos = (405,0);
},
{
name = ogonek;
pos = (454,0);
},
{
name = top;
pos = (373,660);
}
);
layerId = "2D95750D-BD9C-4F78-991A-09E4A80A9CCF";
shapes = (
{
closed = 1;
nodes = (
(560,-10,o),
(658,103,o),
(658,272,cs),
(658,333,l),
(362,333,l),
(362,258,l),
(624,258,l),
(582,299,l),
(582,252,ls),
(582,168,o),
(529,65,o),
(380,65,cs),
(232,65,o),
(152,164,o),
(152,330,cs),
(152,496,o),
(242,595,o),
(376,595,cs),
(468,595,o),
(538,555,o),
(567,479,c),
(640,519,l),
(589,621,o),
(507,670,o),
(376,670,cs),
(191,670,o),
(68,539,o),
(68,330,cs),
(68,121,o),
(186,-10,o),
(374,-10,cs)
);
}
);
width = 724;
},
{
anchors = (
{
name = bottom;
pos = (379,0);
},
{
name = ogonek;
pos = (401,0);
},
{
name = top;
pos = (364,660);
}
);
layerId = "C6BF4D98-2DC0-4313-8217-C5861B72DC4C";
shapes = (
{
closed = 1;
nodes = (
(551,-10,o),
(687,66,o),
(687,280,cs),
(687,374,l),
(371,374,l),
(371,239,l),
(595,239,l),
(492,285,l),
(492,232,ls),
(492,194,o),
(454,165,o),
(392,165,cs),
(303,165,o),
(267,205,o),
(267,330,cs),
(267,445,o),
(307,495,o),
(373,495,cs),
(428,495,o),
(453,470,o),
(462,411,c),
(679,489,l),
(625,619,o),
(534,670,o),
(371,670,cs),
(156,670,o),
(29,544,o),
(29,328,cs),
(29,103,o),
(168,-10,o),
(368,-10,cs)
);
}
);
width = 722;
}
);
metricLeft = O;
userData = {
com.typemytype.robofont.layerData = {
background = {
anchors = (
);
components = (
);
contours = (
{
points = (
{
smooth = 0;
x = 152;
y = 670;
},
{
smooth = 0;
x = 36;
y = 539;
},
{
segmentType = curve;
smooth = 1;
x = 36;
y = 330;
},
{
smooth = 0;
x = 36;
y = 121;
},
{
smooth = 0;
x = 152;
y = "-10";
},
{
segmentType = curve;
smooth = 1;
x = 337;
y = "-10";
},
{
smooth = 0;
x = 522;
y = "-10";
},
{
smooth = 0;
x = 638;
y = 121;
},
{
segmentType = curve;
smooth = 1;
x = 638;
y = 330;
},
{
smooth = 0;
x = 638;
y = 539;
},
{
smooth = 0;
x = 522;
y = 670;
},
{
segmentType = curve;
smooth = 1;
x = 337;
y = 670;
}
);
},
{
points = (
{
smooth = 0;
x = 512;
y = 656;
},
{
smooth = 0;
x = 622;
y = 530;
},
{
segmentType = curve;
smooth = 1;
x = 622;
y = 330;
},
{
smooth = 0;
x = 622;
y = 130;
},
{
smooth = 0;
x = 512;
y = 4;
},
{
segmentType = curve;
smooth = 1;
x = 337;
y = 4;
},
{
smooth = 0;
x = 162;
y = 4;
},
{
smooth = 0;
x = 52;
y = 130;
},
{
segmentType = curve;
smooth = 1;
x = 52;
y = 330;
},
{
smooth = 0;
x = 52;
y = 530;
},
{
smooth = 0;
x = 162;
y = 656;
},
{
segmentType = curve;
smooth = 1;
x = 337;
y = 656;
}
);
}
);
lib = {
};
name = G.alt;
unicodes = (
);
width = 684;
};
};
};
},
{
glyphname = IJ.ss05;
kernLeft = I;
kernRight = I;
layers = (
{
layerId = "1C7CD022-87C7-4E11-B656-E47B18819458";
shapes = (
{
closed = 1;
nodes = (
(410,-10,o),
(478,75,o),
(478,209,cs),
(478,660,l),
(462,660,l),
(462,209,ls),
(462,84,o),
(400,4,o),
(282,4,cs),
(162,4,o),
(111,61,o),
(111,163,c),
(95,163,l),
(95,49,o),
(150,-10,o),
(282,-10,cs)
);
},
{
closed = 1;
nodes = (
(115,262,l),
(115,660,l),
(99,660,l),
(99,262,l)
);
}
);
width = 570;
},
{
layerId = "4A17B37A-CBFD-40E5-9E02-2080A0E1F76C";
shapes = (
{
closed = 1;
nodes = (
(446,-10,o),
(532,78,o),
(532,226,cs),
(532,660,l),
(452,660,l),
(452,245,ls),
(452,127,o),
(413,65,o),
(313,65,cs),
(226,65,o),
(178,106,o),
(189,191,c),
(112,191,l),
(97,63,o),
(170,-10,o),
(313,-10,cs)
);
},
{
closed = 1;
nodes = (
(188,287,l),
(188,660,l),
(108,660,l),
(108,287,l)
);
}
);
width = 633;
},
{
layerId = "99EB5860-B45A-4B60-BB0B-F826C8F71D42";
shapes = (
{
closed = 1;
nodes = (
(531,-10,o),
(647,95,o),
(647,272,cs),
(647,660,l),
(414,660,l),
(414,265,ls),
(414,193,o),
(394,165,o),
(348,165,cs),
(297,165,o),
(278,191,o),
(284,248,c),
(50,248,l),
(29,75,o),
(144,-10,o),
(341,-10,cs)
);
},
{
closed = 1;
nodes = (
(283,292,l),
(283,660,l),
(50,660,l),
(50,292,l)
);
}
);
width = 682;
},
{
layerId = "A593077A-0A46-47E3-817B-5940F86DDEB8";
shapes = (
{
closed = 1;
nodes = (
(410,-10,o),
(478,75,o),
(478,209,cs),
(478,660,l),
(462,660,l),
(462,209,ls),
(462,84,o),
(400,4,o),
(282,4,cs),
(162,4,o),
(111,61,o),
(111,163,c),
(95,163,l),
(95,49,o),
(150,-10,o),
(282,-10,cs)
);
},
{
closed = 1;
nodes = (
(115,262,l),
(115,660,l),
(99,660,l),
(99,262,l)
);
}
);
width = 570;
},
{
layerId = "2D95750D-BD9C-4F78-991A-09E4A80A9CCF";
shapes = (
{
closed = 1;
nodes = (
(446,-10,o),
(532,78,o),
(532,226,cs),
(532,660,l),
(452,660,l),
(452,245,ls),
(452,127,o),
(413,65,o),
(313,65,cs),
(226,65,o),
(178,106,o),
(189,191,c),
(112,191,l),
(97,63,o),
(170,-10,o),
(313,-10,cs)
);
},
{
closed = 1;
nodes = (
(188,287,l),
(188,660,l),
(108,660,l),
(108,287,l)
);
}
);
width = 633;
},
{
layerId = "C6BF4D98-2DC0-4313-8217-C5861B72DC4C";
shapes = (
{
closed = 1;
nodes = (
(531,-10,o),
(647,95,o),
(647,272,cs),
(647,660,l),
(414,660,l),
(414,265,ls),
(414,193,o),
(394,165,o),
(348,165,cs),
(297,165,o),
(278,191,o),
(284,248,c),
(50,248,l),
(29,75,o),
(144,-10,o),
(341,-10,cs)
);
},
{
closed = 1;
nodes = (
(283,292,l),
(283,660,l),
(50,660,l),
(50,292,l)
);
}
);
width = 682;
}
);
metricRight = J;
},
{
glyphname = A.swsh;
kernRight = A;
layers = (
{
anchors = (
{
name = bottom;
pos = (581,0);
},
{
name = ogonek;
pos = (862,0);
},
{
name = top;
pos = (581,660);
}
);
background = {
anchors = (
{
name = bottom;
pos = (581,0);
},
{
name = ogonek;
pos = (862,0);
},
{
name = top;
pos = (581,660);
}
);
shapes = (
{
closed = 1;
nodes = (
(248,-110,o),
(287,-73,o),
(326,20,cs),
(564,597,l),
(581,642,l),
(581,642,l),
(598,596,l),
(845,0,l),
(862,0,l),
(590,660,l),
(572,660,l),
(315,36,ls),
(272,-68,o),
(239,-96,o),
(163,-96,cs),
(79,-96,o),
(24,-62,o),
(24,39,c),
(10,32,l),
(10,-72,o),
(74,-110,o),
(165,-110,cs)
);
},
{
closed = 1;
nodes = (
(755,234,l),
(755,248,l),
(406,248,l),
(406,234,l)
);
},
{
pos = (120,0);
ref = _part.swsh_topleft;
}
);
};
layerId = "1C7CD022-87C7-4E11-B656-E47B18819458";
shapes = (
{
closed = 1;
nodes = (
(748,234,l),
(845,0,l),
(862,0,l),
(590,660,l),
(572,660,l),
(315,36,ls),
(272,-68,o),
(239,-96,o),
(163,-96,cs),
(79,-96,o),
(24,-62,o),
(24,39,c),
(10,32,l),
(10,-72,o),
(74,-110,o),
(165,-110,cs),
(248,-110,o),
(287,-73,o),
(326,20,cs),
(414,234,l)
);
},
{
closed = 1;
nodes = (
(581,642,l),
(742,248,l),
(420,248,l)
);
},
{
pos = (120,0);
ref = _part.swsh_topleft;
}
);
width = 874;
},
{
anchors = (
{
name = bottom;
pos = (575,0);
},
{
name = ogonek;
pos = (879,0);
},
{
name = top;
pos = (575,660);
}
);
layerId = "4A17B37A-CBFD-40E5-9E02-2080A0E1F76C";
shapes = (
{
closed = 1;
nodes = (
(724,183,l),
(794,0,l),
(879,0,l),
(623,660,l),
(528,660,l),
(308,95,ls),
(266,-12,o),
(240,-40,o),
(172,-40,cs),
(107,-40,o),
(70,-21,o),
(58,65,c),
(0,22,l),
(6,-60,o),
(68,-110,o),
(173,-110,cs),
(275,-110,o),
(333,-58,o),
(371,42,cs),
(425,183,l)
);
},
{
closed = 1;
nodes = (
(574,587,l),
(695,258,l),
(453,258,l)
);
},
{
pos = (45,0);
ref = _part.swsh_topleft;
}
);
width = 905;
},
{
anchors = (
{
name = bottom;
pos = (574,0);
},
{
name = ogonek;
pos = (929,0);
},
{
name = top;
pos = (574,660);
}
);
layerId = "99EB5860-B45A-4B60-BB0B-F826C8F71D42";
shapes = (
{
closed = 1;
nodes = (
(661,126,l),
(691,0,l),
(929,0,l),
(714,660,l),
(434,660,l),
(279,181,ls),
(252,96,o),
(217,56,o),
(160,56,cs),
(116,56,o),
(86,69,o),
(54,107,c),
(-1,-47,l),
(29,-93,o),
(96,-110,o),
(176,-110,cs),
(349,-110,o),
(425,-33,o),
(466,103,cs),
(473,126,l)
);
},
{
closed = 1;
nodes = (
(573,494,l),
(627,271,l),
(514,271,l)
);
},
{
pos = (10,0);
ref = _part.swsh_topleft;
}
);
width = 919;
},
{
anchors = (
{
name = bottom;
pos = (581,0);
},
{
name = ogonek;
pos = (862,0);
},
{
name = top;
pos = (581,660);
}
);
background = {
anchors = (
{
name = bottom;
pos = (581,0);
},
{
name = ogonek;
pos = (862,0);
},
{
name = top;
pos = (581,660);
}
);
shapes = (
{
closed = 1;
nodes = (
(248,-110,o),
(287,-73,o),
(326,20,cs),
(564,597,l),
(581,642,l),
(581,642,l),
(598,596,l),
(845,0,l),
(862,0,l),
(590,660,l),
(572,660,l),
(315,36,ls),
(272,-68,o),
(239,-96,o),
(163,-96,cs),
(79,-96,o),
(24,-62,o),
(24,39,c),
(10,32,l),
(10,-72,o),
(74,-110,o),
(165,-110,cs)
);
},
{
closed = 1;
nodes = (
(755,234,l),
(755,248,l),
(406,248,l),
(406,234,l)
);
},
{
pos = (120,0);
ref = _part.swsh_topleft;
}
);
};
layerId = "A593077A-0A46-47E3-817B-5940F86DDEB8";
shapes = (
{
closed = 1;
nodes = (
(748,234,l),
(845,0,l),
(862,0,l),
(590,660,l),
(572,660,l),
(315,36,ls),
(272,-68,o),
(239,-96,o),
(163,-96,cs),
(79,-96,o),
(24,-62,o),
(24,39,c),
(10,32,l),
(10,-72,o),
(74,-110,o),
(165,-110,cs),
(248,-110,o),
(287,-73,o),
(326,20,cs),
(414,234,l)
);
},
{
closed = 1;
nodes = (
(581,642,l),
(742,248,l),
(420,248,l)
);
},
{
pos = (120,0);
ref = _part.swsh_topleft;
}
);
width = 874;
},
{
anchors = (
{
name = bottom;
pos = (575,0);
},
{
name = ogonek;
pos = (879,0);
},
{
name = top;
pos = (575,660);
}
);
layerId = "2D95750D-BD9C-4F78-991A-09E4A80A9CCF";
shapes = (
{
closed = 1;
nodes = (
(724,183,l),
(794,0,l),
(879,0,l),
(623,660,l),
(528,660,l),
(308,95,ls),
(266,-12,o),
(240,-40,o),
(172,-40,cs),
(107,-40,o),
(70,-21,o),
(58,65,c),
(0,22,l),
(6,-60,o),
(68,-110,o),
(173,-110,cs),
(275,-110,o),
(333,-58,o),
(371,42,cs),
(425,183,l)
);
},
{
closed = 1;
nodes = (
(574,587,l),
(695,258,l),
(453,258,l)
);
},
{
pos = (45,0);
ref = _part.swsh_topleft;
}
);
width = 905;
},
{
anchors = (
{
name = bottom;
pos = (574,0);
},
{
name = ogonek;
pos = (929,0);
},
{
name = top;
pos = (574,660);
}
);
layerId = "C6BF4D98-2DC0-4313-8217-C5861B72DC4C";
shapes = (
{
closed = 1;
nodes = (
(661,126,l),
(691,0,l),
(929,0,l),
(714,660,l),
(434,660,l),
(279,181,ls),
(252,96,o),
(217,56,o),
(160,56,cs),
(116,56,o),
(86,69,o),
(54,107,c),
(-1,-47,l),
(29,-93,o),
(96,-110,o),
(176,-110,cs),
(349,-110,o),
(425,-33,o),
(466,103,cs),
(473,126,l)
);
},
{
closed = 1;
nodes = (
(573,494,l),
(627,271,l),
(514,271,l)
);
},
{
pos = (10,0);
ref = _part.swsh_topleft;
}
);
width = 919;
}
);
metricRight = A;
userData = {
com.typemytype.robofont.layerData = {
background = {
anchors = (
);
components = (
{
baseGlyph = A;
transformation = (
1,
0,
0,
1,
0,
0
);
}
);
contours = (
);
lib = {
};
name = A.swsh_i;
unicodes = (
);
width = 586;
};
};
};
},
{
glyphname = L.swsh;
kernLeft = I;
layers = (
{
anchors = (
{
name = bottom;
pos = (327,0);
},
{
name = center;
pos = (465,335);
},
{
name = ogonek;
pos = (400,0);
},
{
name = top;
pos = (107,660);
},
{
name = topright;
pos = (261,700);
}
);
layerId = "1C7CD022-87C7-4E11-B656-E47B18819458";
shapes = (
{
closed = 1;
nodes = (
(400,0,ls),
(512,0,o),
(573,52,o),
(573,158,cs),
(573,244,o),
(524,294,o),
(451,310,c),
(440,299,l),
(512,283,o),
(557,236,o),
(557,158,cs),
(557,58,o),
(500,14,o),
(395,14,cs),
(260,14,l),
(260,0,l)
);
},
{
closed = 1;
nodes = (
(361,0,l),
(361,14,l),
(105,14,l),
(105,0,l)
);
},
{
closed = 1;
nodes = (
(115,0,l),
(115,660,l),
(99,660,l),
(99,0,l)
);
}
);
width = 583;
},
{
anchors = (
{
name = bottom;
pos = (377,0);
},
{
name = center;
pos = (464,342);
},
{
name = ogonek;
pos = (418,0);
},
{
name = top;
pos = (148,660);
},
{
name = topright;
pos = (300,700);
}
);
layerId = "4A17B37A-CBFD-40E5-9E02-2080A0E1F76C";
shapes = (
{
closed = 1;
nodes = (
(418,0,ls),
(545,0,o),
(627,57,o),
(627,179,cs),
(627,288,o),
(553,345,o),
(468,348,c),
(437,284,l),
(501,283,o),
(547,251,o),
(547,180,cs),
(547,99,o),
(489,75,o),
(401,75,cs),
(274,75,l),
(274,0,l)
);
},
{
closed = 1;
nodes = (
(346,0,l),
(346,75,l),
(150,75,l),
(150,0,l)
);
},
{
closed = 1;
nodes = (
(188,0,l),
(188,660,l),
(108,660,l),
(108,0,l)
);
}
);
width = 637;
},
{
anchors = (
{
name = bottom;
pos = (365,0);
},
{
name = center;
pos = (405,364);
},
{
name = ogonek;
pos = (461,0);
},
{
name = top;
pos = (166,660);
},
{
name = topright;
pos = (388,701);
}
);
layerId = "99EB5860-B45A-4B60-BB0B-F826C8F71D42";
shapes = (
{
closed = 1;
nodes = (
(461,0,ls),
(639,0,o),
(728,82,o),
(728,224,cs),
(728,304,o),
(701,433,o),
(521,438,c),
(458,298,l),
(515,295,o),
(534,264,o),
(534,228,cs),
(534,199,o),
(515,171,o),
(461,171,cs),
(331,171,l),
(331,0,l)
);
},
{
closed = 1;
nodes = (
(365,0,l),
(406,171,l),
(162,171,l),
(162,0,l)
);
},
{
closed = 1;
nodes = (
(283,0,l),
(283,660,l),
(50,660,l),
(50,0,l)
);
}
);
width = 738;
},
{
anchors = (
{
name = bottom;
pos = (327,0);
},
{
name = center;
pos = (465,335);
},
{
name = ogonek;
pos = (400,0);
},
{
name = top;
pos = (107,660);
},
{
name = topright;
pos = (261,700);
}
);
layerId = "A593077A-0A46-47E3-817B-5940F86DDEB8";
shapes = (
{
closed = 1;
nodes = (
(400,0,ls),
(512,0,o),
(573,52,o),
(573,158,cs),
(573,244,o),
(524,294,o),
(451,310,c),
(440,299,l),
(512,283,o),
(557,236,o),
(557,158,cs),
(557,58,o),
(500,14,o),
(395,14,cs),
(260,14,l),
(260,0,l)
);
},
{
closed = 1;
nodes = (
(361,0,l),
(361,14,l),
(105,14,l),
(105,0,l)
);
},
{
closed = 1;
nodes = (
(115,0,l),
(115,660,l),
(99,660,l),
(99,0,l)
);
}
);
width = 583;
},
{
anchors = (
{
name = bottom;
pos = (377,0);
},
{
name = center;
pos = (464,342);
},
{
name = ogonek;
pos = (418,0);
},
{
name = top;
pos = (148,660);
},
{
name = topright;
pos = (300,700);
}
);
layerId = "2D95750D-BD9C-4F78-991A-09E4A80A9CCF";
shapes = (
{
closed = 1;
nodes = (
(418,0,ls),
(545,0,o),
(627,57,o),
(627,179,cs),
(627,288,o),
(553,345,o),
(468,348,c),
(437,284,l),
(501,283,o),
(547,251,o),
(547,180,cs),
(547,99,o),
(489,75,o),
(401,75,cs),
(274,75,l),
(274,0,l)
);
},
{
closed = 1;
nodes = (
(346,0,l),
(346,75,l),
(150,75,l),
(150,0,l)
);
},
{
closed = 1;
nodes = (
(188,0,l),
(188,660,l),
(108,660,l),
(108,0,l)
);
}
);
width = 637;
},
{
anchors = (
{
name = bottom;
pos = (365,0);
},
{
name = center;
pos = (405,364);
},
{
name = ogonek;
pos = (461,0);
},
{
name = top;
pos = (166,660);
},
{
name = topright;
pos = (388,701);
}
);
layerId = "C6BF4D98-2DC0-4313-8217-C5861B72DC4C";
shapes = (
{
closed = 1;
nodes = (
(461,0,ls),
(639,0,o),
(728,82,o),
(728,224,cs),
(728,304,o),
(701,433,o),
(521,438,c),
(458,298,l),
(515,295,o),
(534,264,o),
(534,228,cs),
(534,199,o),
(515,171,o),
(461,171,cs),
(331,171,l),
(331,0,l)
);
},
{
closed = 1;
nodes = (
(365,0,l),
(406,171,l),
(162,171,l),
(162,0,l)
);
},
{
closed = 1;
nodes = (
(283,0,l),
(283,660,l),
(50,660,l),
(50,0,l)
);
}
);
width = 738;
}
);
metricLeft = I;
metricRight = "=|F.swsh";
userData = {
com.typemytype.robofont.layerData = {
background = {
anchors = (
);
components = (
{
baseGlyph = L;
transformation = (
1,
0,
0,
1,
0,
0
);
}
);
contours = (
);
lib = {
};
name = L.swsh_f;
unicodes = (
);
width = 543;
};
};
};
},
{
glyphname = Lslash.swsh;
layers = (
{
anchors = (
{
name = bottom;
pos = (338,0);
},
{
name = ogonek;
pos = (411,0);
},
{
name = top;
pos = (118,660);
},
{
name = topright;
pos = (272,700);
}
);
layerId = "1C7CD022-87C7-4E11-B656-E47B18819458";
shapes = (
{
closed = 1;
nodes = (
(9,232,l),
(9,212,l),
(334,419,l),
(334,439,l)
);
},
{
alignment = -1;
pos = (11,0);
ref = L.swsh;
}
);
width = 594;
},
{
anchors = (
{
name = bottom;
pos = (407,0);
},
{
name = ogonek;
pos = (448,0);
},
{
name = top;
pos = (178,660);
},
{
name = topright;
pos = (330,700);
}
);
layerId = "4A17B37A-CBFD-40E5-9E02-2080A0E1F76C";
shapes = (
{
closed = 1;
nodes = (
(33,279,l),
(33,196,l),
(395,398,l),
(395,481,l)
);
},
{
pos = (30,0);
ref = L.swsh;
}
);
width = 667;
},
{
anchors = (
{
name = bottom;
pos = (455,0);
},
{
name = ogonek;
pos = (551,0);
},
{
name = top;
pos = (256,660);
},
{
name = topright;
pos = (478,701);
}
);
layerId = "99EB5860-B45A-4B60-BB0B-F826C8F71D42";
shapes = (
{
closed = 1;
nodes = (
(26,299,l),
(26,146,l),
(539,372,l),
(539,525,l)
);
},
{
pos = (90,0);
ref = L.swsh;
}
);
width = 828;
},
{
anchors = (
{
name = bottom;
pos = (338,0);
},
{
name = ogonek;
pos = (411,0);
},
{
name = top;
pos = (118,660);
},
{
name = topright;
pos = (272,700);
}
);
layerId = "A593077A-0A46-47E3-817B-5940F86DDEB8";
shapes = (
{
closed = 1;
nodes = (
(9,232,l),
(9,212,l),
(334,419,l),
(334,439,l)
);
},
{
alignment = -1;
pos = (11,0);
ref = L.swsh;
}
);
width = 594;
},
{
anchors = (
{
name = bottom;
pos = (407,0);
},
{
name = ogonek;
pos = (448,0);
},
{
name = top;
pos = (178,660);
},
{
name = topright;
pos = (330,700);
}
);
layerId = "2D95750D-BD9C-4F78-991A-09E4A80A9CCF";
shapes = (
{
closed = 1;
nodes = (
(33,279,l),
(33,196,l),
(395,398,l),
(395,481,l)
);
},
{
pos = (30,0);
ref = L.swsh;
}
);
width = 667;
},
{
anchors = (
{
name = bottom;
pos = (455,0);
},
{
name = ogonek;
pos = (551,0);
},
{
name = top;
pos = (256,660);
},
{
name = topright;
pos = (478,701);
}
);
layerId = "C6BF4D98-2DC0-4313-8217-C5861B72DC4C";
shapes = (
{
closed = 1;
nodes = (
(26,299,l),
(26,146,l),
(539,372,l),
(539,525,l)
);
},
{
pos = (90,0);
ref = L.swsh;
}
);
width = 828;
}
);
metricLeft = Lslash;
metricRight = L.swsh;
},
{
glyphname = M.swsh;
kernRight = I;
layers = (
{
anchors = (
{
name = bottom;
pos = (607,0);
},
{
name = ogonek;
pos = (901,0);
},
{
name = top;
pos = (607,660);
}
);
layerId = "1C7CD022-87C7-4E11-B656-E47B18819458";
shapes = (
{
closed = 1;
nodes = (
(617,0,l),
(886,637,l),
(886,637,l),
(885,580,l),
(885,0,l),
(901,0,l),
(901,660,l),
(880,660,l),
(619,47,l),
(607,19,l),
(607,19,l),
(595,48,l),
(334,660,l),
(313,660,l),
(313,80,l),
(329,80,l),
(329,580,l),
(328,637,l),
(328,637,l),
(597,0,l)
);
},
{
closed = 1;
nodes = (
(143,361,l),
(71,377,o),
(26,424,o),
(26,502,cs),
(26,602,o),
(83,646,o),
(188,646,cs),
(322,646,l),
(322,660,l),
(183,660,ls),
(71,660,o),
(10,608,o),
(10,502,cs),
(10,416,o),
(59,366,o),
(132,350,c)
);
},
{
pos = (42,0);
ref = _part.swsh_bttmleft;
}
);
width = 1000;
},
{
anchors = (
{
name = bottom;
pos = (646,0);
},
{
name = ogonek;
pos = (965,0);
},
{
name = top;
pos = (646,660);
}
);
layerId = "4A17B37A-CBFD-40E5-9E02-2080A0E1F76C";
shapes = (
{
closed = 1;
nodes = (
(680,0,l),
(897,589,l),
(898,589,l),
(889,415,l),
(889,0,l),
(965,0,l),
(965,660,l),
(842,660,l),
(698,258,l),
(647,94,l),
(645,94,l),
(595,259,l),
(450,660,l),
(327,660,l),
(327,200,l),
(403,200,l),
(403,415,l),
(394,589,l),
(395,589,l),
(612,0,l)
);
},
{
closed = 1;
nodes = (
(200,366,l),
(136,377,o),
(90,419,o),
(90,480,cs),
(90,558,o),
(148,595,o),
(236,595,cs),
(433,595,l),
(433,660,l),
(219,660,ls),
(92,660,o),
(10,593,o),
(10,481,cs),
(10,382,o),
(84,315,o),
(169,302,c)
);
},
{
pos = (42,0);
ref = _part.swsh_bttmleft;
}
);
width = 1073;
},
{
anchors = (
{
name = bottom;
pos = (741,0);
},
{
name = ogonek;
pos = (1165,0);
},
{
name = top;
pos = (741,660);
}
);
layerId = "99EB5860-B45A-4B60-BB0B-F826C8F71D42";
shapes = (
{
closed = 1;
nodes = (
(834,0,l),
(962,451,l),
(965,451,l),
(962,229,l),
(962,0,l),
(1165,0,l),
(1165,660,l),
(855,660,l),
(779,367,l),
(750,244,l),
(748,244,l),
(719,367,l),
(643,660,l),
(317,660,l),
(317,192,l),
(521,192,l),
(521,229,l),
(518,451,l),
(522,451,l),
(648,0,l)
);
},
{
closed = 1;
nodes = (
(290,362,l),
(240,365,o),
(214,396,o),
(214,432,cs),
(214,464,o),
(230,494,o),
(277,494,cs),
(527,494,l),
(527,660,l),
(277,660,ls),
(99,660,o),
(10,578,o),
(10,436,cs),
(10,299,o),
(97,216,o),
(227,212,c)
);
},
{
pos = (82,0);
ref = _part.swsh_bttmleft;
}
);
width = 1215;
},
{
anchors = (
{
name = bottom;
pos = (607,0);
},
{
name = ogonek;
pos = (901,0);
},
{
name = top;
pos = (607,660);
}
);
layerId = "A593077A-0A46-47E3-817B-5940F86DDEB8";
shapes = (
{
closed = 1;
nodes = (
(617,0,l),
(886,637,l),
(886,637,l),
(885,580,l),
(885,0,l),
(901,0,l),
(901,660,l),
(880,660,l),
(619,47,l),
(607,19,l),
(607,19,l),
(595,48,l),
(334,660,l),
(313,660,l),
(313,80,l),
(329,80,l),
(329,580,l),
(328,637,l),
(328,637,l),
(597,0,l)
);
},
{
closed = 1;
nodes = (
(143,361,l),
(71,377,o),
(26,424,o),
(26,502,cs),
(26,602,o),
(83,646,o),
(188,646,cs),
(322,646,l),
(322,660,l),
(183,660,ls),
(71,660,o),
(10,608,o),
(10,502,cs),
(10,416,o),
(59,366,o),
(132,350,c)
);
},
{
pos = (42,0);
ref = _part.swsh_bttmleft;
}
);
width = 1000;
},
{
anchors = (
{
name = bottom;
pos = (646,0);
},
{
name = ogonek;
pos = (965,0);
},
{
name = top;
pos = (646,660);
}
);
layerId = "2D95750D-BD9C-4F78-991A-09E4A80A9CCF";
shapes = (
{
closed = 1;
nodes = (
(680,0,l),
(897,589,l),
(898,589,l),
(889,415,l),
(889,0,l),
(965,0,l),
(965,660,l),
(842,660,l),
(698,258,l),
(647,94,l),
(645,94,l),
(595,259,l),
(450,660,l),
(327,660,l),
(327,200,l),
(403,200,l),
(403,415,l),
(394,589,l),
(395,589,l),
(612,0,l)
);
},
{
closed = 1;
nodes = (
(200,366,l),
(136,377,o),
(90,419,o),
(90,480,cs),
(90,558,o),
(148,595,o),
(236,595,cs),
(433,595,l),
(433,660,l),
(219,660,ls),
(92,660,o),
(10,593,o),
(10,481,cs),
(10,382,o),
(84,315,o),
(169,302,c)
);
},
{
pos = (42,0);
ref = _part.swsh_bttmleft;
}
);
width = 1073;
},
{
anchors = (
{
name = bottom;
pos = (741,0);
},
{
name = ogonek;
pos = (1165,0);
},
{
name = top;
pos = (741,660);
}
);
layerId = "C6BF4D98-2DC0-4313-8217-C5861B72DC4C";
shapes = (
{
closed = 1;
nodes = (
(834,0,l),
(962,451,l),
(965,451,l),
(962,229,l),
(962,0,l),
(1165,0,l),
(1165,660,l),
(855,660,l),
(779,367,l),
(750,244,l),
(748,244,l),
(719,367,l),
(643,660,l),
(317,660,l),
(317,192,l),
(521,192,l),
(521,229,l),
(518,451,l),
(522,451,l),
(648,0,l)
);
},
{
closed = 1;
nodes = (
(290,362,l),
(240,365,o),
(214,396,o),
(214,432,cs),
(214,464,o),
(230,494,o),
(277,494,cs),
(527,494,l),
(527,660,l),
(277,660,ls),
(99,660,o),
(10,578,o),
(10,436,cs),
(10,299,o),
(97,216,o),
(227,212,c)
);
},
{
pos = (82,0);
ref = _part.swsh_bttmleft;
}
);
width = 1215;
}
);
metricLeft = F.swsh;
metricRight = I;
userData = {
com.typemytype.robofont.layerData = {
background = {
anchors = (
);
components = (
{
baseGlyph = M;
transformation = (
1,
0,
0,
1,
0,
0
);
}
);
contours = (
);
lib = {
};
name = M.swsh_i;
unicodes = (
);
width = 786;
};
};
};
},
{
glyphname = N.swsh;
kernLeft = I;
layers = (
{
anchors = (
{
name = bottom;
pos = (347,0);
},
{
name = ogonek;
pos = (595,0);
},
{
name = top;
pos = (353,660);
}
);
layerId = "1C7CD022-87C7-4E11-B656-E47B18819458";
shapes = (
{
closed = 1;
nodes = (
(115,0,l),
(115,587,l),
(114,644,l),
(114,644,l),
(140,605,l),
(573,0,l),
(595,0,l),
(595,461,l),
(579,461,l),
(579,73,l),
(580,16,l),
(580,16,l),
(554,55,l),
(121,660,l),
(99,660,l),
(99,0,l)
);
},
{
closed = 1;
nodes = (
(595,423,l),
(595,562,ls),
(595,669,o),
(645,721,o),
(729,721,cs),
(805,721,o),
(850,687,o),
(860,612,c),
(873,619,l),
(863,698,o),
(813,735,o),
(729,735,cs),
(635,735,o),
(579,677,o),
(579,559,cs),
(579,423,l)
);
}
);
width = 694;
},
{
anchors = (
{
name = bottom;
pos = (397,0);
},
{
name = ogonek;
pos = (626,0);
},
{
name = top;
pos = (371,660);
}
);
layerId = "4A17B37A-CBFD-40E5-9E02-2080A0E1F76C";
shapes = (
{
closed = 1;
nodes = (
(184,0,l),
(184,466,l),
(180,572,l),
(181,572,l),
(251,442,l),
(527,0,l),
(626,0,l),
(626,492,l),
(550,492,l),
(550,194,l),
(554,88,l),
(553,88,l),
(482,220,l),
(207,660,l),
(108,660,l),
(108,0,l)
);
},
{
closed = 1;
nodes = (
(626,423,l),
(626,535,ls),
(626,612,o),
(669,666,o),
(742,666,cs),
(813,666,o),
(844,635,o),
(856,561,c),
(915,604,l),
(903,683,o),
(849,735,o),
(742,735,cs),
(616,735,o),
(550,651,o),
(550,559,cs),
(550,423,l)
);
}
);
width = 734;
},
{
anchors = (
{
name = bottom;
pos = (374,0);
},
{
name = ogonek;
pos = (696,0);
},
{
name = top;
pos = (373,660);
}
);
layerId = "99EB5860-B45A-4B60-BB0B-F826C8F71D42";
shapes = (
{
closed = 1;
nodes = (
(252,0,l),
(252,245,l),
(248,381,l),
(250,381,l),
(286,300,l),
(444,0,l),
(696,0,l),
(696,400,l),
(494,440,l),
(494,415,l),
(498,279,l),
(496,279,l),
(460,359,l),
(302,660,l),
(50,660,l),
(50,0,l)
);
},
{
closed = 1;
nodes = (
(696,359,l),
(696,455,ls),
(696,521,o),
(729,554,o),
(785,554,cs),
(835,554,o),
(860,539,o),
(887,506,c),
(957,647,l),
(910,696,o),
(851,720,o),
(752,720,cs),
(600,720,o),
(494,656,o),
(494,471,cs),
(494,431,l)
);
}
);
width = 746;
},
{
anchors = (
{
name = bottom;
pos = (347,0);
},
{
name = ogonek;
pos = (595,0);
},
{
name = top;
pos = (353,660);
}
);
layerId = "A593077A-0A46-47E3-817B-5940F86DDEB8";
shapes = (
{
closed = 1;
nodes = (
(115,0,l),
(115,587,l),
(114,644,l),
(114,644,l),
(140,605,l),
(573,0,l),
(595,0,l),
(595,461,l),
(579,461,l),
(579,73,l),
(580,16,l),
(580,16,l),
(554,55,l),
(121,660,l),
(99,660,l),
(99,0,l)
);
},
{
closed = 1;
nodes = (
(595,423,l),
(595,562,ls),
(595,669,o),
(645,721,o),
(729,721,cs),
(805,721,o),
(850,687,o),
(860,612,c),
(873,619,l),
(863,698,o),
(813,735,o),
(729,735,cs),
(635,735,o),
(579,677,o),
(579,559,cs),
(579,423,l)
);
}
);
width = 694;
},
{
anchors = (
{
name = bottom;
pos = (397,0);
},
{
name = ogonek;
pos = (626,0);
},
{
name = top;
pos = (371,660);
}
);
layerId = "2D95750D-BD9C-4F78-991A-09E4A80A9CCF";
shapes = (
{
closed = 1;
nodes = (
(184,0,l),
(184,466,l),
(180,572,l),
(181,572,l),
(251,442,l),
(527,0,l),
(626,0,l),
(626,492,l),
(550,492,l),
(550,194,l),
(554,88,l),
(553,88,l),
(482,220,l),
(207,660,l),
(108,660,l),
(108,0,l)
);
},
{
closed = 1;
nodes = (
(626,423,l),
(626,535,ls),
(626,612,o),
(669,666,o),
(742,666,cs),
(813,666,o),
(844,635,o),
(856,561,c),
(915,604,l),
(903,683,o),
(849,735,o),
(742,735,cs),
(616,735,o),
(550,651,o),
(550,559,cs),
(550,423,l)
);
}
);
width = 734;
},
{
anchors = (
{
name = bottom;
pos = (374,0);
},
{
name = ogonek;
pos = (696,0);
},
{
name = top;
pos = (373,660);
}
);
layerId = "C6BF4D98-2DC0-4313-8217-C5861B72DC4C";
shapes = (
{
closed = 1;
nodes = (
(252,0,l),
(252,245,l),
(248,381,l),
(250,381,l),
(286,300,l),
(444,0,l),
(696,0,l),
(696,400,l),
(494,440,l),
(494,415,l),
(498,279,l),
(496,279,l),
(460,359,l),
(302,660,l),
(50,660,l),
(50,0,l)
);
},
{
closed = 1;
nodes = (
(696,359,l),
(696,455,ls),
(696,521,o),
(729,554,o),
(785,554,cs),
(835,554,o),
(860,539,o),
(887,506,c),
(957,647,l),
(910,696,o),
(851,720,o),
(752,720,cs),
(600,720,o),
(494,656,o),
(494,471,cs),
(494,431,l)
);
}
);
width = 746;
}
);
metricLeft = I;
userData = {
com.typemytype.robofont.layerData = {
background = {
anchors = (
);
components = (
{
baseGlyph = N;
transformation = (
1,
0,
0,
1,
0,
0
);
}
);
contours = (
);
lib = {
};
name = N.swsh_f;
unicodes = (
);
width = 694;
};
};
};
},
{
glyphname = R.swsh;
kernRight = R;
layers = (
{
anchors = (
{
name = bottom;
pos = (560,0);
},
{
name = ogonek;
pos = (790,0);
},
{
name = top;
pos = (507,660);
}
);
layerId = "1C7CD022-87C7-4E11-B656-E47B18819458";
shapes = (
{
closed = 1;
nodes = (
(552,300,ls),
(681,300,o),
(761,368,o),
(761,480,cs),
(761,592,o),
(681,660,o),
(552,660,cs),
(321,660,l),
(321,646,l),
(552,646,ls),
(673,646,o),
(745,584,o),
(745,480,cs),
(745,376,o),
(673,314,o),
(552,314,cs),
(321,314,l),
(321,300,l)
);
},
{
closed = 1;
nodes = (
(273,-110,o),
(329,-52,o),
(329,46,cs),
(329,202,l),
(313,202,l),
(313,43,ls),
(313,-44,o),
(263,-96,o),
(179,-96,cs),
(97,-96,o),
(48,-48,o),
(48,33,c),
(35,26,l),
(35,-59,o),
(89,-110,o),
(179,-110,cs)
);
},
{
closed = 1;
nodes = (
(329,163,l),
(329,660,l),
(313,660,l),
(313,163,l)
);
},
{
closed = 1;
nodes = (
(790,0,l),
(583,314,l),
(570,304,l),
(772,0,l)
);
},
{
pos = (-24,0);
ref = _part.swsh_topleft;
}
);
width = 825;
},
{
anchors = (
{
name = bottom;
pos = (584,0);
},
{
name = ogonek;
pos = (840,0);
},
{
name = top;
pos = (541,660);
}
);
layerId = "4A17B37A-CBFD-40E5-9E02-2080A0E1F76C";
shapes = (
{
closed = 1;
nodes = (
(577,274,ls),
(711,274,o),
(800,348,o),
(800,467,cs),
(800,586,o),
(711,660,o),
(577,660,cs),
(367,660,l),
(367,585,l),
(576,585,ls),
(670,585,o),
(716,546,o),
(716,467,cs),
(716,388,o),
(670,349,o),
(576,349,cs),
(367,349,l),
(367,274,l)
);
},
{
closed = 1;
nodes = (
(340,-110,o),
(407,-26,o),
(407,66,cs),
(407,202,l),
(327,202,l),
(327,90,ls),
(327,13,o),
(284,-41,o),
(211,-41,cs),
(140,-41,o),
(109,-10,o),
(97,64,c),
(38,21,l),
(50,-58,o),
(104,-110,o),
(211,-110,cs)
);
},
{
closed = 1;
nodes = (
(407,188,l),
(407,660,l),
(327,660,l),
(327,188,l)
);
},
{
closed = 1;
nodes = (
(840,0,l),
(622,333,l),
(555,289,l),
(745,0,l)
);
},
{
pos = (-84,0);
ref = _part.swsh_topleft;
}
);
width = 884;
},
{
anchors = (
{
name = bottom;
pos = (629,0);
},
{
name = ogonek;
pos = (979,0);
},
{
name = top;
pos = (601,660);
}
);
layerId = "99EB5860-B45A-4B60-BB0B-F826C8F71D42";
shapes = (
{
closed = 1;
nodes = (
(675,219,ls),
(851,219,o),
(942,293,o),
(942,439,cs),
(942,586,o),
(851,660,o),
(675,660,cs),
(475,660,l),
(475,494,l),
(628,494,ls),
(687,494,o),
(709,477,o),
(709,433,cs),
(709,388,o),
(687,372,o),
(628,372,cs),
(475,372,l),
(475,219,l)
);
},
{
closed = 1;
nodes = (
(433,-110,o),
(545,-48,o),
(545,149,cs),
(545,212,l),
(317,212,l),
(317,135,ls),
(317,87,o),
(287,56,o),
(242,56,cs),
(194,56,o),
(162,74,o),
(134,118,c),
(58,-17,l),
(104,-83,o),
(178,-110,o),
(277,-110,cs)
);
},
{
closed = 1;
nodes = (
(545,203,l),
(545,660,l),
(317,660,l),
(317,203,l)
);
},
{
closed = 1;
nodes = (
(979,0,l),
(773,323,l),
(572,289,l),
(726,0,l)
);
},
{
pos = (10,0);
ref = _part.swsh_topleft;
}
);
width = 972;
},
{
anchors = (
{
name = bottom;
pos = (560,0);
},
{
name = ogonek;
pos = (790,0);
},
{
name = top;
pos = (507,660);
}
);
layerId = "A593077A-0A46-47E3-817B-5940F86DDEB8";
shapes = (
{
closed = 1;
nodes = (
(552,300,ls),
(681,300,o),
(761,368,o),
(761,480,cs),
(761,592,o),
(681,660,o),
(552,660,cs),
(321,660,l),
(321,646,l),
(552,646,ls),
(673,646,o),
(745,584,o),
(745,480,cs),
(745,376,o),
(673,314,o),
(552,314,cs),
(321,314,l),
(321,300,l)
);
},
{
closed = 1;
nodes = (
(273,-110,o),
(329,-52,o),
(329,46,cs),
(329,202,l),
(313,202,l),
(313,43,ls),
(313,-44,o),
(263,-96,o),
(179,-96,cs),
(97,-96,o),
(48,-48,o),
(48,33,c),
(35,26,l),
(35,-59,o),
(89,-110,o),
(179,-110,cs)
);
},
{
closed = 1;
nodes = (
(329,163,l),
(329,660,l),
(313,660,l),
(313,163,l)
);
},
{
closed = 1;
nodes = (
(790,0,l),
(583,314,l),
(570,304,l),
(772,0,l)
);
},
{
pos = (-24,0);
ref = _part.swsh_topleft;
}
);
width = 825;
},
{
anchors = (
{
name = bottom;
pos = (584,0);
},
{
name = ogonek;
pos = (840,0);
},
{
name = top;
pos = (541,660);
}
);
layerId = "2D95750D-BD9C-4F78-991A-09E4A80A9CCF";
shapes = (
{
closed = 1;
nodes = (
(577,274,ls),
(711,274,o),
(800,348,o),
(800,467,cs),
(800,586,o),
(711,660,o),
(577,660,cs),
(367,660,l),
(367,585,l),
(576,585,ls),
(670,585,o),
(716,546,o),
(716,467,cs),
(716,388,o),
(670,349,o),
(576,349,cs),
(367,349,l),
(367,274,l)
);
},
{
closed = 1;
nodes = (
(340,-110,o),
(407,-26,o),
(407,66,cs),
(407,202,l),
(327,202,l),
(327,90,ls),
(327,13,o),
(284,-41,o),
(211,-41,cs),
(140,-41,o),
(109,-10,o),
(97,64,c),
(38,21,l),
(50,-58,o),
(104,-110,o),
(211,-110,cs)
);
},
{
closed = 1;
nodes = (
(407,188,l),
(407,660,l),
(327,660,l),
(327,188,l)
);
},
{
closed = 1;
nodes = (
(840,0,l),
(622,333,l),
(555,289,l),
(745,0,l)
);
},
{
pos = (-84,0);
ref = _part.swsh_topleft;
}
);
width = 884;
},
{
anchors = (
{
name = bottom;
pos = (629,0);
},
{
name = ogonek;
pos = (979,0);
},
{
name = top;
pos = (601,660);
}
);
layerId = "C6BF4D98-2DC0-4313-8217-C5861B72DC4C";
shapes = (
{
closed = 1;
nodes = (
(675,219,ls),
(851,219,o),
(942,293,o),
(942,439,cs),
(942,586,o),
(851,660,o),
(675,660,cs),
(475,660,l),
(475,494,l),
(628,494,ls),
(687,494,o),
(709,477,o),
(709,433,cs),
(709,388,o),
(687,372,o),
(628,372,cs),
(475,372,l),
(475,219,l)
);
},
{
closed = 1;
nodes = (
(433,-110,o),
(545,-48,o),
(545,149,cs),
(545,212,l),
(317,212,l),
(317,135,ls),
(317,87,o),
(287,56,o),
(242,56,cs),
(194,56,o),
(162,74,o),
(134,118,c),
(58,-17,l),
(104,-83,o),
(178,-110,o),
(277,-110,cs)
);
},
{
closed = 1;
nodes = (
(545,203,l),
(545,660,l),
(317,660,l),
(317,203,l)
);
},
{
closed = 1;
nodes = (
(979,0,l),
(773,323,l),
(572,289,l),
(726,0,l)
);
},
{
pos = (10,0);
ref = _part.swsh_topleft;
}
);
width = 972;
}
);
metricLeft = F.swsh;
metricRight = R;
userData = {
com.typemytype.robofont.layerData = {
background = {
anchors = (
);
components = (
{
baseGlyph = R;
transformation = (
1,
0,
0,
1,
0,
0
);
}
);
contours = (
);
lib = {
};
name = R.swsh_i;
unicodes = (
);
width = 611;
};
};
};
},
{
glyphname = S.swsh;
layers = (
{
anchors = (
{
name = bottom;
pos = (321,-100);
},
{
name = ogonek;
pos = (393,-100);
},
{
name = top;
pos = (290,660);
}
);
layerId = "1C7CD022-87C7-4E11-B656-E47B18819458";
shapes = (
{
closed = 1;
nodes = (
(457,-110,o),
(548,-39,o),
(548,76,cs),
(548,170,o),
(492,224,o),
(325,277,cs),
(159,330,o),
(106,382,o),
(106,482,cs),
(106,587,o),
(191,656,o),
(315,656,cs),
(451,656,o),
(511,591,o),
(511,467,c),
(525,474,l),
(524,602,o),
(456,670,o),
(315,670,cs),
(183,670,o),
(90,593,o),
(90,482,cs),
(90,377,o),
(148,317,o),
(318,264,cs),
(477,214,o),
(532,163,o),
(532,76,cs),
(532,-32,o),
(449,-96,o),
(309,-96,cs),
(170,-96,o),
(90,-38,o),
(90,63,cs),
(90,85,o),
(93,107,o),
(99,129,c),
(84,124,l),
(78,100,o),
(75,81,o),
(75,61,cs),
(75,-47,o),
(162,-110,o),
(309,-110,cs)
);
}
);
width = 594;
},
{
anchors = (
{
name = bottom;
pos = (336,-100);
},
{
name = ogonek;
pos = (409,-100);
},
{
name = top;
pos = (326,660);
}
);
layerId = "4A17B37A-CBFD-40E5-9E02-2080A0E1F76C";
shapes = (
{
closed = 1;
nodes = (
(482,-110,o),
(585,-23,o),
(585,108,cs),
(585,213,o),
(526,266,o),
(353,312,cs),
(209,350,o),
(163,389,o),
(163,459,cs),
(163,545,o),
(224,595,o),
(331,595,cs),
(442,595,o),
(489,554,o),
(493,451,c),
(572,482,l),
(558,605,o),
(474,670,o),
(330,670,cs),
(177,670,o),
(79,584,o),
(79,450,cs),
(79,347,o),
(142,286,o),
(318,241,cs),
(459,205,o),
(502,168,o),
(502,104,cs),
(502,14,o),
(442,-35,o),
(329,-35,cs),
(201,-35,o),
(141,7,o),
(141,97,cs),
(141,109,o),
(142,122,o),
(144,136,c),
(69,114,l),
(67,100,o),
(66,87,o),
(66,75,cs),
(66,-44,o),
(159,-110,o),
(326,-110,cs)
);
}
);
width = 641;
},
{
anchors = (
{
name = bottom;
pos = (304,-100);
},
{
name = ogonek;
pos = (409,-100);
},
{
name = top;
pos = (331,660);
}
);
layerId = "99EB5860-B45A-4B60-BB0B-F826C8F71D42";
shapes = (
{
closed = 1;
nodes = (
(496,-110,o),
(629,-31,o),
(629,127,cs),
(629,253,o),
(565,316,o),
(396,350,cs),
(299,370,o),
(267,391,o),
(267,431,cs),
(267,470,o),
(290,495,o),
(331,495,cs),
(392,495,o),
(413,460,o),
(413,386,c),
(619,464,l),
(617,613,o),
(527,670,o),
(337,670,cs),
(138,670,o),
(28,568,o),
(28,433,cs),
(28,292,o),
(101,222,o),
(284,191,cs),
(385,174,o),
(414,153,o),
(414,115,cs),
(414,87,o),
(390,65,o),
(325,65,cs),
(250,65,o),
(221,89,o),
(221,133,cs),
(221,146,o),
(223,157,o),
(227,174,c),
(25,121,l),
(22,109,o),
(19,91,o),
(19,62,cs),
(19,-37,o),
(133,-110,o),
(304,-110,cs)
);
}
);
width = 646;
},
{
anchors = (
{
name = bottom;
pos = (321,-100);
},
{
name = ogonek;
pos = (393,-100);
},
{
name = top;
pos = (290,660);
}
);
layerId = "A593077A-0A46-47E3-817B-5940F86DDEB8";
shapes = (
{
closed = 1;
nodes = (
(457,-110,o),
(548,-39,o),
(548,76,cs),
(548,170,o),
(492,224,o),
(325,277,cs),
(159,330,o),
(106,382,o),
(106,482,cs),
(106,587,o),
(191,656,o),
(315,656,cs),
(451,656,o),
(511,591,o),
(511,467,c),
(525,474,l),
(524,602,o),
(456,670,o),
(315,670,cs),
(183,670,o),
(90,593,o),
(90,482,cs),
(90,377,o),
(148,317,o),
(318,264,cs),
(477,214,o),
(532,163,o),
(532,76,cs),
(532,-32,o),
(449,-96,o),
(309,-96,cs),
(170,-96,o),
(90,-38,o),
(90,63,cs),
(90,85,o),
(93,107,o),
(99,129,c),
(84,124,l),
(78,100,o),
(75,81,o),
(75,61,cs),
(75,-47,o),
(162,-110,o),
(309,-110,cs)
);
}
);
width = 594;
},
{
anchors = (
{
name = bottom;
pos = (336,-100);
},
{
name = ogonek;
pos = (409,-100);
},
{
name = top;
pos = (326,660);
}
);
layerId = "2D95750D-BD9C-4F78-991A-09E4A80A9CCF";
shapes = (
{
closed = 1;
nodes = (
(482,-110,o),
(585,-23,o),
(585,108,cs),
(585,213,o),
(526,266,o),
(353,312,cs),
(209,350,o),
(163,389,o),
(163,459,cs),
(163,545,o),
(224,595,o),
(331,595,cs),
(442,595,o),
(489,554,o),
(493,451,c),
(572,482,l),
(558,605,o),
(474,670,o),
(330,670,cs),
(177,670,o),
(79,584,o),
(79,450,cs),
(79,347,o),
(142,286,o),
(318,241,cs),
(459,205,o),
(502,168,o),
(502,104,cs),
(502,14,o),
(442,-35,o),
(329,-35,cs),
(201,-35,o),
(141,7,o),
(141,97,cs),
(141,109,o),
(142,122,o),
(144,136,c),
(69,114,l),
(67,100,o),
(66,87,o),
(66,75,cs),
(66,-44,o),
(159,-110,o),
(326,-110,cs)
);
}
);
width = 641;
},
{
anchors = (
{
name = bottom;
pos = (304,-100);
},
{
name = ogonek;
pos = (409,-100);
},
{
name = top;
pos = (331,660);
}
);
layerId = "C6BF4D98-2DC0-4313-8217-C5861B72DC4C";
shapes = (
{
closed = 1;
nodes = (
(496,-110,o),
(629,-31,o),
(629,127,cs),
(629,253,o),
(565,316,o),
(396,350,cs),
(299,370,o),
(267,391,o),
(267,431,cs),
(267,470,o),
(290,495,o),
(331,495,cs),
(392,495,o),
(413,460,o),
(413,386,c),
(619,464,l),
(617,613,o),
(527,670,o),
(337,670,cs),
(138,670,o),
(28,568,o),
(28,433,cs),
(28,292,o),
(101,222,o),
(284,191,cs),
(385,174,o),
(414,153,o),
(414,115,cs),
(414,87,o),
(390,65,o),
(325,65,cs),
(250,65,o),
(221,89,o),
(221,133,cs),
(221,146,o),
(223,157,o),
(227,174,c),
(25,121,l),
(22,109,o),
(19,91,o),
(19,62,cs),
(19,-37,o),
(133,-110,o),
(304,-110,cs)
);
}
);
width = 646;
}
);
userData = {
com.typemytype.robofont.layerData = {
background = {
anchors = (
);
components = (
{
baseGlyph = S;
transformation = (
1,
0,
0,
1,
0,
0
);
}
);
contours = (
);
lib = {
};
name = S.swsh_i;
unicodes = (
);
width = 594;
};
};
};
},
{
glyphname = T.swsh;
kernRight = T;
layers = (
{
anchors = (
{
name = bottom;
pos = (352,0);
},
{
name = center;
pos = (348,371);
},
{
name = ogonek;
pos = (356,0);
},
{
name = top;
pos = (348,660);
}
);
layerId = "1C7CD022-87C7-4E11-B656-E47B18819458";
shapes = (
{
closed = 1;
nodes = (
(143,361,l),
(71,377,o),
(26,424,o),
(26,502,cs),
(26,602,o),
(83,646,o),
(188,646,cs),
(333,646,l),
(333,660,l),
(183,660,ls),
(71,660,o),
(10,608,o),
(10,502,cs),
(10,416,o),
(59,366,o),
(132,350,c)
);
},
{
closed = 1;
nodes = (
(356,0,l),
(356,653,l),
(340,653,l),
(340,0,l)
);
},
{
closed = 1;
nodes = (
(609,646,l),
(609,660,l),
(187,660,l),
(187,646,l)
);
}
);
width = 620;
},
{
anchors = (
{
name = bottom;
pos = (423,0);
},
{
name = center;
pos = (407,330);
},
{
name = ogonek;
pos = (447,0);
},
{
name = top;
pos = (407,660);
}
);
layerId = "4A17B37A-CBFD-40E5-9E02-2080A0E1F76C";
shapes = (
{
closed = 1;
nodes = (
(200,366,l),
(136,377,o),
(90,419,o),
(90,480,cs),
(90,557,o),
(148,585,o),
(236,585,cs),
(413,585,l),
(413,660,l),
(219,660,ls),
(92,660,o),
(10,593,o),
(10,481,cs),
(10,382,o),
(84,315,o),
(169,302,c)
);
},
{
closed = 1;
nodes = (
(447,0,l),
(447,660,l),
(367,660,l),
(367,0,l)
);
},
{
closed = 1;
nodes = (
(677,585,l),
(677,660,l),
(279,660,l),
(279,585,l)
);
}
);
width = 709;
},
{
anchors = (
{
name = bottom;
pos = (485,0);
},
{
name = center;
pos = (501,338);
},
{
name = ogonek;
pos = (619,0);
},
{
name = top;
pos = (502,660);
}
);
layerId = "99EB5860-B45A-4B60-BB0B-F826C8F71D42";
shapes = (
{
closed = 1;
nodes = (
(290,362,l),
(233,365,o),
(214,396,o),
(214,432,cs),
(214,461,o),
(233,489,o),
(287,489,cs),
(477,489,l),
(477,660,l),
(277,660,ls),
(99,660,o),
(10,578,o),
(10,436,cs),
(10,305,o),
(97,216,o),
(227,212,c)
);
},
{
closed = 1;
nodes = (
(619,0,l),
(619,660,l),
(386,660,l),
(386,0,l)
);
},
{
closed = 1;
nodes = (
(825,489,l),
(825,660,l),
(354,660,l),
(354,489,l)
);
}
);
width = 845;
},
{
anchors = (
{
name = bottom;
pos = (352,0);
},
{
name = center;
pos = (348,371);
},
{
name = ogonek;
pos = (356,0);
},
{
name = top;
pos = (348,660);
}
);
layerId = "A593077A-0A46-47E3-817B-5940F86DDEB8";
shapes = (
{
closed = 1;
nodes = (
(143,361,l),
(71,377,o),
(26,424,o),
(26,502,cs),
(26,602,o),
(83,646,o),
(188,646,cs),
(333,646,l),
(333,660,l),
(183,660,ls),
(71,660,o),
(10,608,o),
(10,502,cs),
(10,416,o),
(59,366,o),
(132,350,c)
);
},
{
closed = 1;
nodes = (
(356,0,l),
(356,653,l),
(340,653,l),
(340,0,l)
);
},
{
closed = 1;
nodes = (
(609,646,l),
(609,660,l),
(187,660,l),
(187,646,l)
);
}
);
width = 620;
},
{
anchors = (
{
name = bottom;
pos = (423,0);
},
{
name = center;
pos = (407,330);
},
{
name = ogonek;
pos = (447,0);
},
{
name = top;
pos = (407,660);
}
);
layerId = "2D95750D-BD9C-4F78-991A-09E4A80A9CCF";
shapes = (
{
closed = 1;
nodes = (
(200,366,l),
(136,377,o),
(90,419,o),
(90,480,cs),
(90,557,o),
(148,585,o),
(236,585,cs),
(413,585,l),
(413,660,l),
(219,660,ls),
(92,660,o),
(10,593,o),
(10,481,cs),
(10,382,o),
(84,315,o),
(169,302,c)
);
},
{
closed = 1;
nodes = (
(447,0,l),
(447,660,l),
(367,660,l),
(367,0,l)
);
},
{
closed = 1;
nodes = (
(677,585,l),
(677,660,l),
(279,660,l),
(279,585,l)
);
}
);
width = 709;
},
{
anchors = (
{
name = bottom;
pos = (485,0);
},
{
name = center;
pos = (501,338);
},
{
name = ogonek;
pos = (619,0);
},
{
name = top;
pos = (502,660);
}
);
layerId = "C6BF4D98-2DC0-4313-8217-C5861B72DC4C";
shapes = (
{
closed = 1;
nodes = (
(290,362,l),
(233,365,o),
(214,396,o),
(214,432,cs),
(214,461,o),
(233,489,o),
(287,489,cs),
(477,489,l),
(477,660,l),
(277,660,ls),
(99,660,o),
(10,578,o),
(10,436,cs),
(10,305,o),
(97,216,o),
(227,212,c)
);
},
{
closed = 1;
nodes = (
(619,0,l),
(619,660,l),
(386,660,l),
(386,0,l)
);
},
{
closed = 1;
nodes = (
(825,489,l),
(825,660,l),
(354,660,l),
(354,489,l)
);
}
);
width = 845;
}
);
metricLeft = F.swsh;
metricRight = T;
userData = {
com.typemytype.robofont.layerData = {
background = {
anchors = (
);
components = (
{
baseGlyph = T;
transformation = (
1,
0,
0,
1,
0,
0
);
}
);
contours = (
);
lib = {
};
name = T.swsh_i;
unicodes = (
);
width = 544;
};
};
};
},
{
glyphname = Tcedilla.swsh;
layers = (
{
layerId = "1C7CD022-87C7-4E11-B656-E47B18819458";
shapes = (
{
closed = 1;
nodes = (
(397,-36,o),
(424,-68,o),
(424,-117,cs),
(424,-160,o),
(395,-189,o),
(350,-189,cs),
(309,-189,o),
(287,-174,o),
(266,-148,c),
(257,-158,l),
(277,-184,o),
(303,-202,o),
(350,-202,cs),
(404,-202,o),
(439,-168,o),
(439,-117,cs),
(439,-65,o),
(412,-32,o),
(355,3,c),
(340,0,l)
);
},
{
ref = T.swsh;
}
);
width = 620;
},
{
layerId = "4A17B37A-CBFD-40E5-9E02-2080A0E1F76C";
shapes = (
{
closed = 1;
nodes = (
(425,-39,o),
(447,-59,o),
(447,-97,cs),
(447,-132,o),
(422,-155,o),
(390,-155,cs),
(362,-155,o),
(337,-142,o),
(321,-125,c),
(291,-180,l),
(319,-205,o),
(354,-215,o),
(401,-215,cs),
(473,-215,o),
(518,-164,o),
(518,-109,cs),
(518,-65,o),
(497,-23,o),
(440,14,c),
(367,0,l)
);
},
{
ref = T.swsh;
}
);
width = 709;
},
{
layerId = "99EB5860-B45A-4B60-BB0B-F826C8F71D42";
shapes = (
{
closed = 1;
nodes = (
(503,0,o),
(531,-18,o),
(531,-51,cs),
(531,-87,o),
(504,-101,o),
(475,-101,cs),
(440,-101,o),
(424,-89,o),
(409,-70,c),
(353,-170,l),
(377,-193,o),
(419,-215,o),
(492,-215,cs),
(580,-215,o),
(653,-184,o),
(653,-83,cs),
(653,3,o),
(593,46,o),
(467,48,c),
(457,0,l)
);
},
{
ref = T.swsh;
}
);
width = 845;
},
{
layerId = "A593077A-0A46-47E3-817B-5940F86DDEB8";
shapes = (
{
closed = 1;
nodes = (
(397,-36,o),
(424,-68,o),
(424,-117,cs),
(424,-160,o),
(395,-189,o),
(350,-189,cs),
(309,-189,o),
(287,-174,o),
(266,-148,c),
(257,-158,l),
(277,-184,o),
(303,-202,o),
(350,-202,cs),
(404,-202,o),
(439,-168,o),
(439,-117,cs),
(439,-65,o),
(412,-32,o),
(355,3,c),
(340,0,l)
);
},
{
ref = T.swsh;
}
);
width = 620;
},
{
layerId = "2D95750D-BD9C-4F78-991A-09E4A80A9CCF";
shapes = (
{
closed = 1;
nodes = (
(425,-39,o),
(447,-59,o),
(447,-97,cs),
(447,-132,o),
(422,-155,o),
(390,-155,cs),
(362,-155,o),
(337,-142,o),
(321,-125,c),
(291,-180,l),
(319,-205,o),
(354,-215,o),
(401,-215,cs),
(473,-215,o),
(518,-164,o),
(518,-109,cs),
(518,-65,o),
(497,-23,o),
(440,14,c),
(367,0,l)
);
},
{
ref = T.swsh;
}
);
width = 709;
},
{
layerId = "C6BF4D98-2DC0-4313-8217-C5861B72DC4C";
shapes = (
{
closed = 1;
nodes = (
(503,0,o),
(531,-18,o),
(531,-51,cs),
(531,-87,o),
(504,-101,o),
(475,-101,cs),
(440,-101,o),
(424,-89,o),
(409,-70,c),
(353,-170,l),
(377,-193,o),
(419,-215,o),
(492,-215,cs),
(580,-215,o),
(653,-184,o),
(653,-83,cs),
(653,3,o),
(593,46,o),
(467,48,c),
(457,0,l)
);
},
{
ref = T.swsh;
}
);
width = 845;
}
);
},
{
glyphname = W.swsh;
layers = (
{
anchors = (
{
name = bottom;
pos = (655,0);
},
{
name = ogonek;
pos = (868,0);
},
{
name = top;
pos = (655,660);
}
);
layerId = "1C7CD022-87C7-4E11-B656-E47B18819458";
shapes = (
{
closed = 1;
nodes = (
(143,361,l),
(71,377,o),
(26,424,o),
(26,502,cs),
(26,602,o),
(83,646,o),
(188,646,cs),
(233,646,l),
(233,660,l),
(183,660,ls),
(71,660,o),
(10,608,o),
(10,502,cs),
(10,416,o),
(59,366,o),
(132,350,c)
);
},
{
alignment = -1;
pos = (200,0);
ref = W;
}
);
width = 1109;
},
{
anchors = (
{
name = bottom;
pos = (736,0);
},
{
name = ogonek;
pos = (986,0);
},
{
name = top;
pos = (736,660);
}
);
layerId = "4A17B37A-CBFD-40E5-9E02-2080A0E1F76C";
shapes = (
{
closed = 1;
nodes = (
(200,366,l),
(136,377,o),
(90,419,o),
(90,480,cs),
(90,558,o),
(148,595,o),
(236,595,cs),
(313,595,l),
(313,660,l),
(219,660,ls),
(92,660,o),
(10,593,o),
(10,481,cs),
(10,382,o),
(84,315,o),
(169,302,c)
);
},
{
alignment = -1;
pos = (255,0);
ref = W;
}
);
width = 1216;
},
{
anchors = (
{
name = bottom;
pos = (832,0);
},
{
name = ogonek;
pos = (1162,0);
},
{
name = top;
pos = (832,660);
}
);
layerId = "99EB5860-B45A-4B60-BB0B-F826C8F71D42";
shapes = (
{
closed = 1;
nodes = (
(293,362,l),
(237,365,o),
(214,396,o),
(214,432,cs),
(214,464,o),
(228,494,o),
(282,494,cs),
(467,494,l),
(467,660,l),
(277,660,ls),
(99,660,o),
(10,578,o),
(10,436,cs),
(10,301,o),
(98,212,o),
(227,212,c)
);
},
{
pos = (322,0);
ref = W;
}
);
width = 1343;
},
{
anchors = (
{
name = bottom;
pos = (655,0);
},
{
name = ogonek;
pos = (868,0);
},
{
name = top;
pos = (655,660);
}
);
layerId = "A593077A-0A46-47E3-817B-5940F86DDEB8";
shapes = (
{
closed = 1;
nodes = (
(143,361,l),
(71,377,o),
(26,424,o),
(26,502,cs),
(26,602,o),
(83,646,o),
(188,646,cs),
(233,646,l),
(233,660,l),
(183,660,ls),
(71,660,o),
(10,608,o),
(10,502,cs),
(10,416,o),
(59,366,o),
(132,350,c)
);
},
{
alignment = -1;
pos = (200,0);
ref = W;
}
);
width = 1109;
},
{
anchors = (
{
name = bottom;
pos = (736,0);
},
{
name = ogonek;
pos = (986,0);
},
{
name = top;
pos = (736,660);
}
);
layerId = "2D95750D-BD9C-4F78-991A-09E4A80A9CCF";
shapes = (
{
closed = 1;
nodes = (
(200,366,l),
(136,377,o),
(90,419,o),
(90,480,cs),
(90,558,o),
(148,595,o),
(236,595,cs),
(313,595,l),
(313,660,l),
(219,660,ls),
(92,660,o),
(10,593,o),
(10,481,cs),
(10,382,o),
(84,315,o),
(169,302,c)
);
},
{
alignment = -1;
pos = (255,0);
ref = W;
}
);
width = 1216;
},
{
anchors = (
{
name = bottom;
pos = (832,0);
},
{
name = ogonek;
pos = (1162,0);
},
{
name = top;
pos = (832,660);
}
);
layerId = "C6BF4D98-2DC0-4313-8217-C5861B72DC4C";
shapes = (
{
closed = 1;
nodes = (
(293,362,l),
(237,365,o),
(214,396,o),
(214,432,cs),
(214,464,o),
(228,494,o),
(282,494,cs),
(467,494,l),
(467,660,l),
(277,660,ls),
(99,660,o),
(10,578,o),
(10,436,cs),
(10,301,o),
(98,212,o),
(227,212,c)
);
},
{
pos = (322,0);
ref = W;
}
);
width = 1343;
}
);
metricLeft = F.swsh;
metricRight = W;
userData = {
com.typemytype.robofont.layerData = {
background = {
anchors = (
);
components = (
{
baseGlyph = W;
transformation = (
1,
0,
0,
1,
0,
0
);
}
);
contours = (
);
lib = {
};
name = W.swsh_i;
unicodes = (
);
width = 909;
};
};
};
},
{
glyphname = E.swsh.001;
kernLeft = I;
layers = (
{
anchors = (
{
name = bottom;
pos = (317,0);
},
{
name = ogonek;
pos = (504,0);
},
{
name = top;
pos = (357,660);
}
);
layerId = "1C7CD022-87C7-4E11-B656-E47B18819458";
shapes = (
{
closed = 1;
nodes = (
(570,264,l),
(630,252,o),
(661,208,o),
(661,139,cs),
(661,49,o),
(604,14,o),
(499,14,cs),
(284,14,l),
(284,0,l),
(504,0,ls),
(616,0,o),
(677,43,o),
(677,139,cs),
(677,214,o),
(643,260,o),
(581,275,c)
);
},
{
closed = 1;
nodes = (
(99,0,l),
(115,0,l),
(115,660,l),
(99,660,l)
);
},
{
closed = 1;
nodes = (
(105,330,l),
(403,330,l),
(403,344,l),
(105,344,l)
);
},
{
closed = 1;
nodes = (
(105,646,l),
(583,646,l),
(583,660,l),
(105,660,l)
);
},
{
closed = 1;
nodes = (
(105,0,l),
(386,0,l),
(386,14,l),
(105,14,l)
);
}
);
width = 687;
},
{
anchors = (
{
name = bottom;
pos = (339,0);
},
{
name = ogonek;
pos = (508,0);
},
{
name = top;
pos = (365,660);
}
);
layerId = "4A17B37A-CBFD-40E5-9E02-2080A0E1F76C";
shapes = (
{
closed = 1;
nodes = (
(583,274,l),
(625,273,o),
(657,240,o),
(657,176,cs),
(657,104,o),
(609,75,o),
(511,75,cs),
(354,75,l),
(354,0,l),
(528,0,ls),
(655,0,o),
(737,62,o),
(737,175,cs),
(737,275,o),
(679,335,o),
(614,338,c)
);
},
{
closed = 1;
nodes = (
(108,0,l),
(188,0,l),
(188,660,l),
(108,660,l)
);
},
{
closed = 1;
nodes = (
(150,288,l),
(406,288,l),
(406,363,l),
(150,363,l)
);
},
{
closed = 1;
nodes = (
(150,585,l),
(596,585,l),
(596,660,l),
(150,660,l)
);
},
{
closed = 1;
nodes = (
(150,0,l),
(501,0,l),
(501,75,l),
(150,75,l)
);
}
);
width = 747;
},
{
anchors = (
{
name = bottom;
pos = (329,0);
},
{
name = ogonek;
pos = (630,0);
},
{
name = top;
pos = (313,660);
}
);
layerId = "99EB5860-B45A-4B60-BB0B-F826C8F71D42";
shapes = (
{
closed = 1;
nodes = (
(607,268,l),
(664,261,o),
(683,241,o),
(683,215,cs),
(683,185,o),
(664,171,o),
(620,171,cs),
(470,171,l),
(470,0,l),
(650,0,ls),
(788,0,o),
(877,55,o),
(877,207,cs),
(877,305,o),
(821,379,o),
(680,402,c)
);
},
{
closed = 1;
nodes = (
(50,0,l),
(283,0,l),
(283,660,l),
(50,660,l)
);
},
{
closed = 1;
nodes = (
(162,249,l),
(477,249,l),
(477,407,l),
(162,407,l)
);
},
{
closed = 1;
nodes = (
(162,489,l),
(640,489,l),
(640,660,l),
(162,660,l)
);
},
{
closed = 1;
nodes = (
(162,0,l),
(568,0,l),
(568,171,l),
(162,171,l)
);
}
);
width = 887;
},
{
anchors = (
{
name = bottom;
pos = (317,0);
},
{
name = ogonek;
pos = (504,0);
},
{
name = top;
pos = (357,660);
}
);
layerId = "A593077A-0A46-47E3-817B-5940F86DDEB8";
shapes = (
{
closed = 1;
nodes = (
(570,264,l),
(630,252,o),
(661,208,o),
(661,139,cs),
(661,49,o),
(604,14,o),
(499,14,cs),
(284,14,l),
(284,0,l),
(504,0,ls),
(616,0,o),
(677,43,o),
(677,139,cs),
(677,214,o),
(643,260,o),
(581,275,c)
);
},
{
closed = 1;
nodes = (
(99,0,l),
(115,0,l),
(115,660,l),
(99,660,l)
);
},
{
closed = 1;
nodes = (
(105,330,l),
(403,330,l),
(403,344,l),
(105,344,l)
);
},
{
closed = 1;
nodes = (
(105,646,l),
(583,646,l),
(583,660,l),
(105,660,l)
);
},
{
closed = 1;
nodes = (
(105,0,l),
(386,0,l),
(386,14,l),
(105,14,l)
);
}
);
width = 687;
},
{
anchors = (
{
name = bottom;
pos = (339,0);
},
{
name = ogonek;
pos = (508,0);
},
{
name = top;
pos = (365,660);
}
);
layerId = "2D95750D-BD9C-4F78-991A-09E4A80A9CCF";
shapes = (
{
closed = 1;
nodes = (
(583,274,l),
(625,273,o),
(657,240,o),
(657,176,cs),
(657,104,o),
(609,75,o),
(511,75,cs),
(354,75,l),
(354,0,l),
(528,0,ls),
(655,0,o),
(737,62,o),
(737,175,cs),
(737,275,o),
(679,335,o),
(614,338,c)
);
},
{
closed = 1;
nodes = (
(108,0,l),
(188,0,l),
(188,660,l),
(108,660,l)
);
},
{
closed = 1;
nodes = (
(150,288,l),
(406,288,l),
(406,363,l),
(150,363,l)
);
},
{
closed = 1;
nodes = (
(150,585,l),
(596,585,l),
(596,660,l),
(150,660,l)
);
},
{
closed = 1;
nodes = (
(150,0,l),
(501,0,l),
(501,75,l),
(150,75,l)
);
}
);
width = 747;
},
{
anchors = (
{
name = bottom;
pos = (329,0);
},
{
name = ogonek;
pos = (630,0);
},
{
name = top;
pos = (313,660);
}
);
layerId = "C6BF4D98-2DC0-4313-8217-C5861B72DC4C";
shapes = (
{
closed = 1;
nodes = (
(607,268,l),
(664,261,o),
(683,241,o),
(683,215,cs),
(683,185,o),
(664,171,o),
(620,171,cs),
(470,171,l),
(470,0,l),
(650,0,ls),
(788,0,o),
(877,55,o),
(877,207,cs),
(877,305,o),
(821,379,o),
(680,402,c)
);
},
{
closed = 1;
nodes = (
(50,0,l),
(283,0,l),
(283,660,l),
(50,660,l)
);
},
{
closed = 1;
nodes = (
(162,249,l),
(477,249,l),
(477,407,l),
(162,407,l)
);
},
{
closed = 1;
nodes = (
(162,489,l),
(640,489,l),
(640,660,l),
(162,660,l)
);
},
{
closed = 1;
nodes = (
(162,0,l),
(568,0,l),
(568,171,l),
(162,171,l)
);
}
);
width = 887;
}
);
metricLeft = I;
metricRight = "=|F.swsh";
userData = {
com.typemytype.robofont.layerData = {
background = {
anchors = (
);
components = (
{
baseGlyph = E;
transformation = (
1,
0,
0,
1,
0,
0
);
}
);
contours = (
);
lib = {
};
name = E.swsh_f;
unicodes = (
);
width = 583;
};
};
};
},
{
glyphname = M.swsh.001;
kernRight = I;
layers = (
{
anchors = (
{
name = bottom;
pos = (607,0);
},
{
name = ogonek;
pos = (901,0);
},
{
name = top;
pos = (607,660);
}
);
layerId = "1C7CD022-87C7-4E11-B656-E47B18819458";
shapes = (
{
closed = 1;
nodes = (
(143,361,l),
(71,377,o),
(26,424,o),
(26,502,cs),
(26,602,o),
(83,646,o),
(188,646,cs),
(323,646,l),
(323,660,l),
(183,660,ls),
(71,660,o),
(10,608,o),
(10,502,cs),
(10,416,o),
(59,366,o),
(132,350,c)
);
},
{
alignment = -1;
pos = (214,0);
ref = M;
}
);
width = 1000;
},
{
anchors = (
{
name = bottom;
pos = (646,0);
},
{
name = ogonek;
pos = (965,0);
},
{
name = top;
pos = (646,660);
}
);
layerId = "4A17B37A-CBFD-40E5-9E02-2080A0E1F76C";
shapes = (
{
closed = 1;
nodes = (
(200,366,l),
(136,377,o),
(90,419,o),
(90,480,cs),
(90,558,o),
(148,595,o),
(236,595,cs),
(433,595,l),
(433,660,l),
(219,660,ls),
(92,660,o),
(10,593,o),
(10,481,cs),
(10,382,o),
(84,315,o),
(169,302,c)
);
},
{
pos = (219,0);
ref = M;
}
);
width = 1073;
},
{
anchors = (
{
name = bottom;
pos = (741,0);
},
{
name = ogonek;
pos = (1165,0);
},
{
name = top;
pos = (741,660);
}
);
layerId = "99EB5860-B45A-4B60-BB0B-F826C8F71D42";
shapes = (
{
closed = 1;
nodes = (
(290,362,l),
(240,365,o),
(214,396,o),
(214,432,cs),
(214,464,o),
(230,494,o),
(277,494,cs),
(527,494,l),
(527,660,l),
(277,660,ls),
(99,660,o),
(10,578,o),
(10,436,cs),
(10,299,o),
(97,216,o),
(227,212,c)
);
},
{
pos = (267,0);
ref = M;
}
);
width = 1215;
},
{
anchors = (
{
name = bottom;
pos = (607,0);
},
{
name = ogonek;
pos = (901,0);
},
{
name = top;
pos = (607,660);
}
);
layerId = "A593077A-0A46-47E3-817B-5940F86DDEB8";
shapes = (
{
closed = 1;
nodes = (
(143,361,l),
(71,377,o),
(26,424,o),
(26,502,cs),
(26,602,o),
(83,646,o),
(188,646,cs),
(323,646,l),
(323,660,l),
(183,660,ls),
(71,660,o),
(10,608,o),
(10,502,cs),
(10,416,o),
(59,366,o),
(132,350,c)
);
},
{
alignment = -1;
pos = (214,0);
ref = M;
}
);
width = 1000;
},
{
anchors = (
{
name = bottom;
pos = (646,0);
},
{
name = ogonek;
pos = (965,0);
},
{
name = top;
pos = (646,660);
}
);
layerId = "2D95750D-BD9C-4F78-991A-09E4A80A9CCF";
shapes = (
{
closed = 1;
nodes = (
(200,366,l),
(136,377,o),
(90,419,o),
(90,480,cs),
(90,558,o),
(148,595,o),
(236,595,cs),
(433,595,l),
(433,660,l),
(219,660,ls),
(92,660,o),
(10,593,o),
(10,481,cs),
(10,382,o),
(84,315,o),
(169,302,c)
);
},
{
pos = (219,0);
ref = M;
}
);
width = 1073;
},
{
anchors = (
{
name = bottom;
pos = (741,0);
},
{
name = ogonek;
pos = (1165,0);
},
{
name = top;
pos = (741,660);
}
);
layerId = "C6BF4D98-2DC0-4313-8217-C5861B72DC4C";
shapes = (
{
closed = 1;
nodes = (
(290,362,l),
(240,365,o),
(214,396,o),
(214,432,cs),
(214,464,o),
(230,494,o),
(277,494,cs),
(527,494,l),
(527,660,l),
(277,660,ls),
(99,660,o),
(10,578,o),
(10,436,cs),
(10,299,o),
(97,216,o),
(227,212,c)
);
},
{
pos = (267,0);
ref = M;
}
);
width = 1215;
}
);
metricLeft = F.swsh;
metricRight = I;
userData = {
com.typemytype.robofont.layerData = {
background = {
anchors = (
);
components = (
{
baseGlyph = M;
transformation = (
1,
0,
0,
1,
0,
0
);
}
);
contours = (
);
lib = {
};
name = M.swsh_i;
unicodes = (
);
width = 786;
};
};
};
},
{
glyphname = R.swsh.001;
kernLeft = I;
layers = (
{
anchors = (
{
name = bottom;
pos = (346,0);
},
{
name = ogonek;
pos = (659,-96);
},
{
name = top;
pos = (293,660);
}
);
layerId = "1C7CD022-87C7-4E11-B656-E47B18819458";
shapes = (
{
closed = 1;
nodes = (
(338,300,ls),
(467,300,o),
(547,368,o),
(547,480,cs),
(547,592,o),
(467,660,o),
(338,660,cs),
(107,660,l),
(107,646,l),
(338,646,ls),
(459,646,o),
(531,584,o),
(531,480,cs),
(531,376,o),
(459,314,o),
(338,314,cs),
(107,314,l),
(107,300,l)
);
},
{
closed = 1;
nodes = (
(115,0,l),
(115,660,l),
(99,660,l),
(99,0,l)
);
},
{
closed = 1;
nodes = (
(664,-92,l),
(619,-82,o),
(587,-51,o),
(568,-24,cs),
(339,312,l),
(326,304,l),
(552,-29,ls),
(572,-58,o),
(604,-91,o),
(657,-104,c)
);
}
);
width = 664;
},
{
anchors = (
{
name = bottom;
pos = (365,0);
},
{
name = ogonek;
pos = (642,-86);
},
{
name = top;
pos = (322,660);
}
);
layerId = "4A17B37A-CBFD-40E5-9E02-2080A0E1F76C";
shapes = (
{
closed = 1;
nodes = (
(358,274,ls),
(492,274,o),
(581,348,o),
(581,467,cs),
(581,586,o),
(492,660,o),
(358,660,cs),
(148,660,l),
(148,585,l),
(357,585,ls),
(451,585,o),
(497,546,o),
(497,467,cs),
(497,388,o),
(451,349,o),
(357,349,cs),
(148,349,l),
(148,274,l)
);
},
{
closed = 1;
nodes = (
(188,0,l),
(188,660,l),
(108,660,l),
(108,0,l)
);
},
{
closed = 1;
nodes = (
(685,-31,l),
(636,-14,o),
(565,48,o),
(535,90,cs),
(361,333,l),
(304,289,l),
(459,68,ls),
(498,12,o),
(528,-29,o),
(642,-86,c)
);
}
);
width = 685;
},
{
anchors = (
{
name = bottom;
pos = (362,0);
},
{
name = ogonek;
pos = (653,-102);
},
{
name = top;
pos = (334,660);
}
);
layerId = "99EB5860-B45A-4B60-BB0B-F826C8F71D42";
shapes = (
{
closed = 1;
nodes = (
(408,219,ls),
(584,219,o),
(675,293,o),
(675,439,cs),
(675,586,o),
(584,660,o),
(408,660,cs),
(208,660,l),
(208,494,l),
(361,494,ls),
(420,494,o),
(442,477,o),
(442,433,cs),
(442,388,o),
(420,372,o),
(361,372,cs),
(208,372,l),
(208,219,l)
);
},
{
closed = 1;
nodes = (
(278,0,l),
(278,660,l),
(50,660,l),
(50,0,l)
);
},
{
closed = 1;
nodes = (
(781,24,l),
(722,31,o),
(677,62,o),
(620,136,cs),
(476,323,l),
(277,289,l),
(481,-4,ls),
(520,-59,o),
(576,-102,o),
(653,-102,c)
);
}
);
width = 781;
},
{
anchors = (
{
name = bottom;
pos = (346,0);
},
{
name = ogonek;
pos = (659,-96);
},
{
name = top;
pos = (293,660);
}
);
layerId = "A593077A-0A46-47E3-817B-5940F86DDEB8";
shapes = (
{
closed = 1;
nodes = (
(338,300,ls),
(467,300,o),
(547,368,o),
(547,480,cs),
(547,592,o),
(467,660,o),
(338,660,cs),
(107,660,l),
(107,646,l),
(338,646,ls),
(459,646,o),
(531,584,o),
(531,480,cs),
(531,376,o),
(459,314,o),
(338,314,cs),
(107,314,l),
(107,300,l)
);
},
{
closed = 1;
nodes = (
(115,0,l),
(115,660,l),
(99,660,l),
(99,0,l)
);
},
{
closed = 1;
nodes = (
(664,-92,l),
(619,-82,o),
(587,-51,o),
(568,-24,cs),
(339,312,l),
(326,304,l),
(552,-29,ls),
(572,-58,o),
(604,-91,o),
(657,-104,c)
);
}
);
width = 664;
},
{
anchors = (
{
name = bottom;
pos = (365,0);
},
{
name = ogonek;
pos = (642,-86);
},
{
name = top;
pos = (322,660);
}
);
layerId = "2D95750D-BD9C-4F78-991A-09E4A80A9CCF";
shapes = (
{
closed = 1;
nodes = (
(358,274,ls),
(492,274,o),
(581,348,o),
(581,467,cs),
(581,586,o),
(492,660,o),
(358,660,cs),
(148,660,l),
(148,585,l),
(357,585,ls),
(451,585,o),
(497,546,o),
(497,467,cs),
(497,388,o),
(451,349,o),
(357,349,cs),
(148,349,l),
(148,274,l)
);
},
{
closed = 1;
nodes = (
(188,0,l),
(188,660,l),
(108,660,l),
(108,0,l)
);
},
{
closed = 1;
nodes = (
(685,-31,l),
(636,-14,o),
(565,48,o),
(535,90,cs),
(361,333,l),
(304,289,l),
(459,68,ls),
(498,12,o),
(528,-29,o),
(642,-86,c)
);
}
);
width = 685;
},
{
anchors = (
{
name = bottom;
pos = (362,0);
},
{
name = ogonek;
pos = (653,-102);
},
{
name = top;
pos = (334,660);
}
);
layerId = "C6BF4D98-2DC0-4313-8217-C5861B72DC4C";
shapes = (
{
closed = 1;
nodes = (
(408,219,ls),
(584,219,o),
(675,293,o),
(675,439,cs),
(675,586,o),
(584,660,o),
(408,660,cs),
(208,660,l),
(208,494,l),
(361,494,ls),
(420,494,o),
(442,477,o),
(442,433,cs),
(442,388,o),
(420,372,o),
(361,372,cs),
(208,372,l),
(208,219,l)
);
},
{
closed = 1;
nodes = (
(278,0,l),
(278,660,l),
(50,660,l),
(50,0,l)
);
},
{
closed = 1;
nodes = (
(781,24,l),
(722,31,o),
(677,62,o),
(620,136,cs),
(476,323,l),
(277,289,l),
(481,-4,ls),
(520,-59,o),
(576,-102,o),
(653,-102,c)
);
}
);
width = 781;
}
);
metricLeft = I;
userData = {
com.typemytype.robofont.layerData = {
background = {
anchors = (
);
components = (
{
baseGlyph = R;
transformation = (
1,
0,
0,
1,
0,
0
);
}
);
contours = (
);
lib = {
};
name = R.swsh_f;
unicodes = (
);
width = 611;
};
};
};
},
